$MeshFormat
4.1 0 8
$EndMeshFormat
$PhysicalNames
2
1 1 "Farfield"
1 2 "Wall"
$EndPhysicalNames
$Entities
689 9 1 0
2 0 0 0 0 
7 -15.44012670819029 8.914492794848416 0 0 
8 -16.86172290814193 8.594503703321433 0 0 
9 -18.28228634409334 8.269800676040433 0 0 
10 -19.70141468215252 7.94025908133735 0 0 
11 -21.08380749281469 7.614058046486941 0 0 
12 -22.4652334121638 7.282743792513773 0 0 
13 -23.84541371464047 6.946168081704601 0 0 
14 -25.22406967468578 6.604182676346184 0 0 
15 -25.22406967468623 6.604182676346185 0 0 
16 -37.08188201363646 3.616842988832134 0 0 
17 -37.08188201363646 3.616842988832241 0 0 
18 -37.16021014886837 3.595980467257296 0 0 
19 -37.2379460458933 3.573009357377631 0 0 
20 -37.31503295282846 3.547946429485745 0 0 
21 -37.39141459159327 3.520809981027162 0 0 
22 -37.46703519899529 3.491619823242194 0 0 
23 -37.54183956744055 3.460397266702541 0 0 
24 -37.61577308523874 3.427165105753297 0 0 
25 -37.68878177647275 3.391947601871702 0 0 
26 -37.76081234040521 3.354770465954804 0 0 
27 -37.83181219038897 3.315660839548958 0 0 
28 -37.90172949226235 3.274647275034862 0 0 
29 -37.97051320218679 3.231759714782607 0 0 
30 -38.03811310391529 3.187029469291935 0 0 
31 -38.10447984545181 3.140489194333701 0 0 
32 -38.16956497508136 3.092172867109185 0 0 
33 -38.23332097674256 3.0421157614447 0 0 
34 -38.29570130471848 2.990354422039568 0 0 
35 -38.35666041761488 2.936926637786297 0 0 
36 -38.41615381161228 2.881871414182408 0 0 
37 -38.47413805295173 2.825228944854085 0 0 
38 -38.53057080964936 2.767040582212399 0 0 
39 -38.58541088239554 2.707348807263567 0 0 
40 -38.63861823463776 2.646197198595254 0 0 
41 -38.6901540218073 2.58363040056159 0 0 
42 -38.73998061967814 2.5196940906901 0 0 
43 -38.78806165183551 2.45443494633436 0 0 
44 -38.83436201623272 2.38790061059672 0 0 
45 -38.87884791081751 2.320139657545973 0 0 
46 -38.9214868582103 2.251201556755369 0 0 
47 -38.96224772941287 2.181136637186835 0 0 
48 -39.00110076653755 2.109996050447815 0 0 
49 -39.03801760452825 2.037831733447518 0 0 
50 -39.07297129187236 1.964696370479845 0 0 
51 -39.10593631027496 1.890643354760684 0 0 
52 -39.13688859328795 1.815726749447654 0 0 
53 -39.16580554388338 1.740001248170742 0 0 
54 -39.19266605094617 1.663522135102667 0 0 
55 -39.21745050469053 1.586345244598102 0 0 
56 -39.24014081097403 1.508526920431237 0 0 
57 -39.26072040450663 1.430123974661436 0 0 
58 -39.27917426094791 1.35119364615701 0 0 
59 -39.29548890787146 1.271793558807404 0 0 
60 -39.30965243460332 1.191981679454286 0 0 
61 -39.32165450091679 1.111816275572266 0 0 
62 -39.33148634458166 1.031355872730135 0 0 
63 -39.33914078775979 0.9506592118636765 0 0 
64 -39.34461224224742 0.869785206391246 0 0 
65 -39.34789671355338 0.7887928992034373 0 0 
66 -39.34899180381581 0.7077414195582116 0 0 
67 -39.34899180381535 0.7077414195578111 0 0 
68 -39.34899180381672 -0.7077785357448092 0 0 
69 -39.34899180381672 -0.7077785357463878 0 0 
70 -39.34789671355384 -0.7888300153916258 0 0 
71 -39.34461224224788 -0.8698223225794468 0 0 
72 -39.3391407877607 -0.9506963280518871 0 0 
73 -39.33148634458257 -1.031392988918358 0 0 
74 -39.3216545009177 -1.111853391760501 0 0 
75 -39.30965243460423 -1.192018795642533 0 0 
76 -39.29548890787237 -1.271830674995664 0 0 
77 -39.27917426094882 -1.351230762345284 0 0 
78 -39.26072040450754 -1.430161090849724 0 0 
79 -39.24014081097494 -1.50856403661954 0 0 
80 -39.21745050469144 -1.586382360786418 0 0 
81 -39.19266605094708 -1.663559251290999 0 0 
82 -39.16580554388429 -1.74003836435909 0 0 
83 -39.13688859328886 -1.815763865636019 0 0 
84 -39.10593631027541 -1.890680470949066 0 0 
85 -39.07297129187327 -1.964733486668246 0 0 
86 -39.03801760452916 -2.037868849635939 0 0 
87 -39.00110076653846 -2.110033166636257 0 0 
88 -38.96224772941423 -2.181173753375298 0 0 
89 -38.92148685821121 -2.251238672943853 0 0 
90 -38.87884791081842 -2.320176773734481 0 0 
91 -38.83436201623363 -2.387937726785251 0 0 
92 -38.78806165183641 -2.454472062522916 0 0 
93 -38.73998061967905 -2.519731206878684 0 0 
94 -38.69015402180821 -2.583667516750202 0 0 
95 -38.63861823463867 -2.646234314783895 0 0 
96 -38.58541088239645 -2.707385923452238 0 0 
97 -38.53057080965027 -2.767077698401102 0 0 
98 -38.47413805295309 -2.825266061042821 0 0 
99 -38.41615381161319 -2.881908530371178 0 0 
100 -38.35666041761624 -2.936963753975101 0 0 
101 -38.29570130471939 -2.990391538228411 0 0 
102 -38.23332097674393 -3.042152877633582 0 0 
103 -38.16956497508227 -3.092209983298106 0 0 
104 -38.10447984545272 -3.140526310522664 0 0 
105 -38.0381131039162 -3.187066585480941 0 0 
106 -37.9705132021877 -3.231796830971655 0 0 
107 -37.90172949226326 -3.274684391223958 0 0 
108 -37.83181219039034 -3.315697955738099 0 0 
109 -37.76081234040612 -3.354807582143994 0 0 
110 -37.68878177647412 -3.391984718060943 0 0 
111 -37.61577308524011 -3.42720222194259 0 0 
112 -37.54183956744191 -3.460434382891886 0 0 
113 -37.46703519899665 -3.491656939431593 0 0 
114 -37.39141459159464 -3.520847097216618 0 0 
115 -37.31503295282982 -3.547983545675257 0 0 
116 -37.23794604589466 -3.573046473567202 0 0 
117 -37.16021014886974 -3.596017583446927 0 0 
118 -37.08188201363782 -3.616880105021933 0 0 
119 -37.08188201363737 -3.616880105020122 0 0 
120 -25.22406967469988 -6.604219792585846 0 0 
121 -25.22406967468623 -6.604219792541725 0 0 
122 -23.84541371463956 -6.946205197895146 0 0 
123 -22.46523341216289 -7.282780908701258 0 0 
124 -21.08380749281378 -7.614095162673165 0 0 
125 -19.70141468214888 -7.940296197523971 0 0 
126 -18.28228634409288 -8.269837792227039 0 0 
127 -16.86172290814557 -8.594540819507966 0 0 
128 -15.44012670819484 -8.914529911034968 0 0 
129 -14.01790007812633 -9.229929698476255 0 0 
130 -14.01790007812633 -9.229929698476257 0 0 
131 -13.44944423126617 -9.35521720572874 0 0 
132 -13.44944423126617 -9.35521720572874 0 0 
133 -12.81666583208244 -9.495592510215724 0 0 
134 -12.81666583206697 -9.495592510143441 0 0 
135 -10.89759726988814 -9.917654787350649 0 0 
136 -8.977070790137986 -10.33316282090474 0 0 
137 -7.055225471146059 -10.74230203356456 0 0 
138 -5.132200391239166 -11.14525784808897 0 0 
139 -3.127760453815426 -11.55866546721379 0 0 
140 -1.121761480441364 -11.9658899046663 0 0 
141 0.8853939550663199 -12.36708286840548 0 0 
142 2.8933032788932 -12.76239606639029 0 0 
143 2.893303278893654 -12.76239606639029 0 0 
144 4.49042184016389 -13.07083872890453 0 0 
145 4.49042184016389 -13.07083872890453 0 0 
146 6.134277386586746 -13.39778042144879 0 0 
147 6.134277386582653 -13.39778042145301 0 0 
148 7.145742867739955 -13.59638513812988 0 0 
149 8.15742214539614 -13.7932642592722 0 0 
150 9.169426424538869 -13.98844361575553 0 0 
151 10.18186691015671 -14.18194903845541 0 0 
152 11.21862962220803 -14.37828823758614 0 0 
153 12.25562116510355 -14.57284210883798 0 0 
154 13.29293720002579 -14.76563626233835 0 0 
155 14.33067338816045 -14.9566963082146 0 0 
156 14.33067338816045 -14.9566963082146 0 0 
157 16.21691249306377 -15.29850787258124 0 0 
158 16.21691249306377 -15.29850787258124 0 0 
159 18.14897995999263 -15.66280335877521 0 0 
160 18.14897996000036 -15.66280335877493 0 0 
161 23.05775678841974 -16.56272371507215 0 0 
162 29.78429160666246 -17.75641210720824 0 0 
163 38.2971362723415 -19.21948840811872 0 0 
164 48.56484264306982 -20.92757249073912 0 0 
165 60.55596257645675 -22.85628422800498 0 0 
166 74.2390479301157 -24.98124349285187 0 0 
167 81.70525009505127 -26.10969715841053 0 0 
168 89.58265056165965 -27.27807015821528 0 0 
169 97.86731831214092 -28.48331497638304 0 0 
170 106.5553223286979 -29.72238409703078 0 0 
171 118.9262109464207 -31.44694163917744 0 0 
172 131.4319134803764 -33.14735735140669 0 0 
173 144.0569930451666 -34.82302523301617 0 0 
174 156.7860127553949 -36.4733392833035 0 0 
175 169.603535725661 -38.09769350156638 0 0 
176 182.4941250705688 -39.69548188710242 0 0 
177 195.44234390472 -41.26609843920927 0 0 
178 208.432755342717 -42.80893715718459 0 0 
179 221.4499224991614 -44.32339204032599 0 0 
180 234.4784084886569 -45.80885708793114 0 0 
181 247.5027764258039 -47.2647262992977 0 0 
182 260.5075894252063 -48.69039367372329 0 0 
183 273.4774106014643 -50.08525321050558 0 0 
184 286.3968030691822 -51.44869890894218 0 0 
185 299.2503299429613 -52.78012476833077 0 0 
186 312.0225543374031 -54.07892478796897 0 0 
187 325.1161827544852 -55.3856283241812 0 0 
188 338.3159123118621 -56.67790670613761 0 0 
189 351.6132769576038 -57.95497302947467 0 0 
190 364.9998106397748 -59.2160403898289 0 0 
191 378.4670473064434 -60.46032188283675 0 0 
192 392.006520905677 -61.68703060413475 0 0 
193 405.6097653855431 -62.89537964935936 0 0 
194 419.2683146941081 -64.08458211414704 0 0 
195 432.9737027794399 -65.25385109413433 0 0 
196 446.7174635896049 -66.40239968495767 0 0 
197 460.4911310726688 -67.52944098225358 0 0 
198 474.2862391767026 -68.63418808165852 0 0 
199 488.0943218497709 -69.715854078809 0 0 
200 501.9069130399412 -70.77365206934151 0 0 
201 515.7155466952809 -71.80679514889248 0 0 
202 529.5117567638576 -72.81449641309847 0 0 
203 543.2870771937378 -73.7959689575959 0 0 
204 557.0330419329875 -74.75042587802133 0 0 
205 570.7411849296768 -75.67708027001119 0 0 
206 584.4030401318705 -76.57514522920198 0 0 
207 598.0101414876367 -77.44383385123018 0 0 
208 611.5540229450426 -78.28235923173227 0 0 
209 625.0262184521544 -79.08993446634479 0 0 
210 638.4182619570406 -79.86577265070417 0 0 
211 651.7216874077685 -80.6090868804469 0 0 
212 664.9280287524034 -81.31909025120949 0 0 
213 678.0288199390143 -81.99499585862841 0 0 
214 691.015594915667 -82.63601679834017 0 0 
215 703.8798876304304 -83.24136616598119 0 0 
216 716.6132320313695 -83.81025705718805 0 0 
217 729.2071620665533 -84.34190256759717 0 0 
218 741.6532116840485 -84.83551579284506 0 0 
219 757.8708337100397 -85.4250017381443 0 0 
220 772.5005939829316 -85.8980655056279 0 0 
221 785.5079558847074 -86.26735774139746 0 0 
222 796.8583827973475 -86.5455290915547 0 0 
223 806.517338102833 -86.74523020220131 0 0 
224 814.4502851831467 -86.87911171943892 0 0 
225 825.0000081961839 -87.00001855809393 0 0 
226 825.0000081961839 -87.00001855809393 0 0 
227 3151.000008196183 -87.00001855809637 0 0 
228 3151.000008196183 -87.00001855809637 0 0 
229 3151.000008196183 -49.00001855809619 0 0 
230 3151.000008196183 -49.00001855809619 0 0 
231 3200.000008196181 -49.00001855809616 0 0 
232 3200.000008196181 -49.00001855809616 0 0 
233 3200.000008196181 48.9999814419038 0 0 
234 3200.000008196181 48.9999814419038 0 0 
235 3151.000008196183 48.99998144190376 0 0 
236 3151.000008196183 48.99998144190376 0 0 
237 3151.000008196183 86.9999814419036 0 0 
238 3151.000008196183 86.9999814419036 0 0 
239 825.0000081961839 86.99998144190361 0 0 
240 825.0000081961844 86.99998144190602 0 0 
241 820.1940753720351 86.95584785084853 0 0 
242 813.8292497516109 86.8718414825159 0 0 
243 805.9065403677646 86.73644315869103 0 0 
244 796.4269562533595 86.53813370115662 0 0 
245 785.3915064412481 86.26539393169561 0 0 
246 772.8011999642908 85.90670467209071 0 0 
247 758.657045855346 85.45054674412471 0 0 
248 742.9600531472706 84.88540096958049 0 0 
249 725.7112308729211 84.19974817024081 0 0 
250 706.9115880651561 83.38206916788852 0 0 
251 686.5621337568336 82.4208447843064 0 0 
252 675.8065426127314 81.88280333136125 0 0 
253 664.6638769808114 81.30455584127721 0 0 
254 653.134262990181 80.68466241677713 0 0 
255 641.2178267699469 80.02168316058383 0 0 
256 628.9146944492168 79.31417817542018 0 0 
257 616.2249921570974 78.56070756400905 0 0 
258 603.1488460226965 77.75983142907324 0 0 
259 589.6863821751213 76.91010987333566 0 0 
260 575.8377267434785 76.01010299951911 0 0 
261 561.6030058568749 75.05837091034648 0 0 
262 546.5611706778182 74.02355645905953 0 0 
263 531.4577484749057 72.95437810746907 0 0 
264 516.3019902654751 71.85150223143964 0 0 
265 501.1031470668622 70.71559520683567 0 0 
266 485.8704698964034 69.54732340952174 0 0 
267 470.6132097714349 68.3473532153623 0 0 
268 455.3406177092934 67.11635100022188 0 0 
269 440.0619447273152 65.85498313996496 0 0 
270 424.786441842838 64.56391601045604 0 0 
271 409.5233600731949 63.24381598755962 0 0 
272 394.2819504357249 61.89534944714019 0 0 
273 379.0714639477642 60.51918276506226 0 0 
274 363.9011516266478 59.11598231719034 0 0 
275 348.7802644897138 57.68641447938892 0 0 
276 333.7180535542975 56.23114562752248 0 0 
277 318.7237698377362 54.75084213745553 0 0 
278 303.8781518140768 53.25283059315963 0 0 
279 288.8005688249291 51.69742216619316 0 0 
280 273.529340746099 50.08672170806962 0 0 
281 258.1027874533934 48.42283407030243 0 0 
282 242.5592288226198 46.70786410440507 0 0 
283 226.9369847295852 44.94391666189099 0 0 
284 211.2743750500986 43.13309659427362 0 0 
285 195.6097196599649 41.27750875306644 0 0 
286 179.9813384349927 39.37925798978291 0 0 
287 164.4275512509885 37.44044915593646 0 0 
288 148.9866779837603 35.46318710304057 0 0 
289 133.6970385091158 33.44957668260867 0 0 
290 118.5969527028606 31.40172274615424 0 0 
291 103.7247404408031 29.32173014519073 0 0 
292 89.11872159875065 27.21170373123157 0 0 
293 74.81721605250914 25.07374835579025 0 0 
294 66.55462557796 23.8005064685176 0 0 
295 58.41804006194297 22.51671942055776 0 0 
296 50.51289430561792 21.24149823841467 0 0 
297 42.94462311014559 19.99395394859228 0 0 
298 35.81866127668764 18.79319757759452 0 0 
299 29.24044360640255 17.65834015192532 0 0 
300 23.31540490045427 16.60849269808861 0 0 
301 18.14897996000036 15.66276624258834 0 0 
302 18.14897996000036 15.66276624258834 0 0 
303 16.21691249306377 15.2984707563942 0 0 
304 16.21691249306377 15.2984707563942 0 0 
305 14.3306733881509 14.95665919204209 0 0 
306 14.33067338816181 14.95665919202753 0 0 
307 13.29293720003398 14.76559914615363 0 0 
308 12.2556211651131 14.57280499265371 0 0 
309 11.21862962221667 14.3782511214008 0 0 
310 10.18186691015671 14.18191192226795 0 0 
311 9.169426424557059 13.98840649957167 0 0 
312 8.157422145418423 13.79322714309112 0 0 
313 7.145742867755871 13.59634802195189 0 0 
314 6.134277386582198 13.39774330527952 0 0 
315 6.134277386582198 13.39774330527952 0 0 
316 4.49042184016389 13.07080161271749 0 0 
317 4.49042184016389 13.07080161271749 0 0 
318 2.893303278890016 12.76235895022106 0 0 
319 2.893303278892745 12.7623589502038 0 0 
320 0.8853939550676841 12.367045752219 0 0 
321 -1.121761480439545 11.96585278847972 0 0 
322 -3.127760453814517 11.55862835102709 0 0 
323 -5.132200391239166 11.1452207319022 0 0 
324 -7.055225471142876 10.74226491737859 0 0 
325 -8.977070790134348 10.33312570471884 0 0 
326 -10.89759726988632 9.917617671164365 0 0 
327 -12.81666583206743 9.495555393956536 0 0 
328 -12.81666583206743 9.495555393956536 0 0 
329 -13.44944423126617 9.355180089541703 0 0 
330 -13.44944423126617 9.355180089541703 0 0 
331 -14.01790007812679 9.229892582289436 0 0 
332 18.14897996000036 15.6627662425884 0 0 
333 16.21691249306377 15.2984707563942 0 0 
334 16.21691249306377 15.2984707563942 0 0 
335 14.3306733881509 14.95665919204209 0 0 
336 14.33067338816181 14.95665919202754 0 0 
337 13.29293720003398 14.76559914615363 0 0 
338 12.2556211651131 14.57280499265371 0 0 
339 11.21862962221667 14.3782511214008 0 0 
340 10.18186691015671 14.18191192226795 0 0 
341 9.169426424557059 13.98840649957167 0 0 
342 8.157422145418423 13.79322714309113 0 0 
343 7.145742867755871 13.59634802195189 0 0 
344 6.134277386582198 13.39774330527952 0 0 
345 6.134277386582198 13.39774330527952 0 0 
346 4.49042184016389 13.07080161271749 0 0 
347 4.49042184016389 13.07080161271749 0 0 
348 2.893303278890016 12.76235895022106 0 0 
349 2.893303278892745 12.7623589502038 0 0 
350 0.8853939550676841 12.367045752219 0 0 
351 -1.121761480439545 11.96585278847972 0 0 
352 -3.127760453814517 11.55862835102709 0 0 
353 -5.132200391239166 11.14522073190221 0 0 
354 -7.055225471142876 10.74226491737859 0 0 
355 -8.977070790134348 10.33312570471885 0 0 
356 -10.89759726988632 9.917617671164367 0 0 
357 -12.81666583206743 9.495555393956538 0 0 
358 -12.81666583206743 9.495555393956538 0 0 
359 -13.44944423126617 9.355180089541703 0 0 
360 -13.44944423126617 9.355180089541703 0 0 
361 -14.01790007812679 9.229892582289436 0 0 
362 -14.01790007812679 9.229892582289438 0 0 
363 -15.44012670819029 8.914492794848416 0 0 
364 -16.86172290814193 8.594503703321434 0 0 
365 -18.28228634409334 8.269800676040436 0 0 
366 -19.70141468215252 7.940259081337352 0 0 
367 -21.08380749281469 7.614058046486942 0 0 
368 -22.4652334121638 7.282743792513774 0 0 
369 -23.84541371464047 6.946168081704601 0 0 
370 -25.22406967468578 6.604182676346185 0 0 
371 -25.22406967468623 6.604182676346186 0 0 
372 -37.08188201363646 3.616842988832134 0 0 
373 -37.08188201363646 3.616842988832241 0 0 
374 -37.16021014886837 3.595980467257296 0 0 
375 -37.2379460458933 3.573009357377631 0 0 
376 -37.31503295282846 3.547946429485745 0 0 
377 -37.39141459159327 3.520809981027162 0 0 
378 -37.46703519899529 3.491619823242194 0 0 
379 -37.54183956744055 3.460397266702541 0 0 
380 -37.61577308523874 3.427165105753297 0 0 
381 -37.68878177647275 3.391947601871702 0 0 
382 -37.76081234040521 3.354770465954804 0 0 
383 -37.83181219038897 3.315660839548958 0 0 
384 -37.90172949226235 3.274647275034862 0 0 
385 -37.97051320218679 3.231759714782607 0 0 
386 -38.03811310391529 3.187029469291935 0 0 
387 -38.10447984545181 3.140489194333701 0 0 
388 -38.16956497508136 3.092172867109185 0 0 
389 -38.23332097674256 3.0421157614447 0 0 
390 -38.29570130471848 2.990354422039568 0 0 
391 -38.35666041761488 2.936926637786297 0 0 
392 -38.41615381161228 2.881871414182408 0 0 
393 -38.47413805295173 2.825228944854085 0 0 
394 -38.53057080964936 2.767040582212399 0 0 
395 -38.58541088239554 2.707348807263567 0 0 
396 -38.63861823463776 2.646197198595254 0 0 
397 -38.6901540218073 2.58363040056159 0 0 
398 -38.73998061967814 2.5196940906901 0 0 
399 -38.78806165183551 2.45443494633436 0 0 
400 -38.83436201623272 2.38790061059672 0 0 
401 -38.87884791081751 2.320139657545973 0 0 
402 -38.9214868582103 2.251201556755369 0 0 
403 -38.96224772941287 2.181136637186835 0 0 
404 -39.00110076653755 2.109996050447815 0 0 
405 -39.03801760452825 2.037831733447518 0 0 
406 -39.07297129187236 1.964696370479845 0 0 
407 -39.10593631027496 1.890643354760684 0 0 
408 -39.13688859328795 1.815726749447654 0 0 
409 -39.16580554388338 1.740001248170742 0 0 
410 -39.19266605094617 1.663522135102667 0 0 
411 -39.21745050469053 1.586345244598102 0 0 
412 -39.24014081097403 1.508526920431237 0 0 
413 -39.26072040450663 1.430123974661436 0 0 
414 -39.27917426094791 1.35119364615701 0 0 
415 -39.29548890787146 1.271793558807404 0 0 
416 -39.30965243460332 1.191981679454286 0 0 
417 -39.32165450091679 1.111816275572266 0 0 
418 -39.33148634458166 1.031355872730135 0 0 
419 -39.33914078775979 0.9506592118636765 0 0 
420 -39.34461224224742 0.869785206391246 0 0 
421 -39.34789671355338 0.7887928992034373 0 0 
422 -39.34899180381581 0.7077414195582116 0 0 
423 -39.34899180381535 0.7077414195578104 0 0 
424 -39.34899180381672 -0.7077785357448094 0 0 
425 -39.34899180381672 -0.7077785357463878 0 0 
426 -39.34789671355384 -0.7888300153916258 0 0 
427 -39.34461224224788 -0.8698223225794468 0 0 
428 -39.3391407877607 -0.9506963280518871 0 0 
429 -39.33148634458257 -1.031392988918358 0 0 
430 -39.3216545009177 -1.111853391760501 0 0 
431 -39.30965243460423 -1.192018795642533 0 0 
432 -39.29548890787237 -1.271830674995665 0 0 
433 -39.27917426094882 -1.351230762345284 0 0 
434 -39.26072040450754 -1.430161090849724 0 0 
435 -39.24014081097494 -1.50856403661954 0 0 
436 -39.21745050469144 -1.586382360786419 0 0 
437 -39.19266605094708 -1.663559251291 0 0 
438 -39.16580554388429 -1.74003836435909 0 0 
439 -39.13688859328886 -1.815763865636019 0 0 
440 -39.10593631027541 -1.890680470949067 0 0 
441 -39.07297129187327 -1.964733486668247 0 0 
442 -39.03801760452916 -2.037868849635939 0 0 
443 -39.00110076653846 -2.110033166636257 0 0 
444 -38.96224772941423 -2.181173753375298 0 0 
445 -38.92148685821121 -2.251238672943854 0 0 
446 -38.87884791081842 -2.320176773734482 0 0 
447 -38.83436201623363 -2.387937726785252 0 0 
448 -38.78806165183641 -2.454472062522917 0 0 
449 -38.73998061967905 -2.519731206878685 0 0 
450 -38.69015402180821 -2.583667516750203 0 0 
451 -38.63861823463867 -2.646234314783896 0 0 
452 -38.58541088239645 -2.707385923452238 0 0 
453 -38.53057080965027 -2.767077698401103 0 0 
454 -38.47413805295309 -2.825266061042822 0 0 
455 -38.41615381161319 -2.881908530371179 0 0 
456 -38.35666041761624 -2.936963753975103 0 0 
457 -38.29570130471939 -2.990391538228413 0 0 
458 -38.23332097674393 -3.042152877633583 0 0 
459 -38.16956497508227 -3.092209983298106 0 0 
460 -38.10447984545272 -3.140526310522665 0 0 
461 -38.0381131039162 -3.187066585480941 0 0 
462 -37.9705132021877 -3.231796830971657 0 0 
463 -37.90172949226326 -3.274684391223958 0 0 
464 -37.83181219039034 -3.3156979557381 0 0 
465 -37.76081234040612 -3.354807582143996 0 0 
466 -37.68878177647412 -3.391984718060945 0 0 
467 -37.61577308524011 -3.427202221942591 0 0 
468 -37.54183956744191 -3.460434382891887 0 0 
469 -37.46703519899665 -3.491656939431595 0 0 
470 -37.39141459159464 -3.520847097216618 0 0 
471 -37.31503295282982 -3.547983545675258 0 0 
472 -37.23794604589466 -3.573046473567203 0 0 
473 -37.16021014886974 -3.596017583446928 0 0 
474 -37.08188201363782 -3.616880105021933 0 0 
475 -37.08188201363782 -3.616880105021934 0 0 
476 -25.22406967469988 -6.604219792585846 0 0 
477 -25.22406967468623 -6.604219792541725 0 0 
478 -23.84541371463956 -6.946205197895146 0 0 
479 -22.46523341216289 -7.282780908701259 0 0 
480 -21.08380749281378 -7.614095162673166 0 0 
481 -19.70141468214888 -7.940296197523971 0 0 
482 -18.28228634409288 -8.26983779222704 0 0 
483 -16.86172290814557 -8.594540819507966 0 0 
484 -15.44012670819484 -8.914529911034968 0 0 
485 -14.01790007812633 -9.229929698476257 0 0 
486 -14.01790007812633 -9.229929698476258 0 0 
487 -13.44944423126617 -9.35521720572874 0 0 
488 -13.44944423126617 -9.35521720572874 0 0 
489 -12.81666583208244 -9.495592510215724 0 0 
490 -12.81666583206697 -9.495592510143442 0 0 
491 -10.89759726988814 -9.917654787350649 0 0 
492 -8.977070790137986 -10.33316282090474 0 0 
493 -7.055225471146059 -10.74230203356456 0 0 
494 -5.132200391239166 -11.14525784808897 0 0 
495 -3.127760453815426 -11.55866546721379 0 0 
496 -1.121761480441364 -11.9658899046663 0 0 
497 0.8853939550663199 -12.36708286840548 0 0 
498 2.8933032788932 -12.76239606639029 0 0 
499 2.893303278893654 -12.76239606639029 0 0 
500 4.49042184016389 -13.07083872890453 0 0 
501 4.49042184016389 -13.07083872890453 0 0 
502 6.134277386586746 -13.39778042144879 0 0 
503 6.134277386582653 -13.39778042145301 0 0 
504 7.145742867739955 -13.59638513812988 0 0 
505 8.15742214539614 -13.7932642592722 0 0 
506 9.169426424538869 -13.98844361575553 0 0 
507 10.18186691015671 -14.18194903845542 0 0 
508 11.21862962220803 -14.37828823758614 0 0 
509 12.25562116510355 -14.57284210883799 0 0 
510 13.29293720002579 -14.76563626233835 0 0 
511 14.33067338816045 -14.95669630821461 0 0 
512 14.33067338816045 -14.95669630821461 0 0 
513 16.21691249306377 -15.29850787258124 0 0 
514 16.21691249306377 -15.29850787258124 0 0 
515 18.14897995999263 -15.66280335877521 0 0 
516 18.14897996000036 -15.66280335877494 0 0 
517 23.05775678841974 -16.56272371507216 0 0 
518 29.78429160666246 -17.75641210720825 0 0 
519 38.2971362723415 -19.21948840811872 0 0 
520 48.56484264306982 -20.92757249073912 0 0 
521 60.55596257645675 -22.85628422800499 0 0 
522 74.2390479301157 -24.98124349285188 0 0 
523 81.70525009505127 -26.10969715841055 0 0 
524 89.58265056165965 -27.27807015821529 0 0 
525 97.86731831214092 -28.48331497638305 0 0 
526 106.5553223286979 -29.72238409703078 0 0 
527 118.9262109464207 -31.44694163917745 0 0 
528 131.4319134803764 -33.1473573514067 0 0 
529 144.0569930451666 -34.82302523301617 0 0 
530 156.7860127553949 -36.47333928330352 0 0 
531 169.603535725661 -38.0976935015664 0 0 
532 182.4941250705688 -39.69548188710243 0 0 
533 195.44234390472 -41.26609843920928 0 0 
534 208.432755342717 -42.80893715718459 0 0 
535 221.4499224991614 -44.323392040326 0 0 
536 234.4784084886569 -45.80885708793114 0 0 
537 247.5027764258039 -47.26472629929771 0 0 
538 260.5075894252063 -48.69039367372329 0 0 
539 273.4774106014643 -50.08525321050558 0 0 
540 286.3968030691822 -51.44869890894218 0 0 
541 299.2503299429613 -52.78012476833077 0 0 
542 312.0225543374031 -54.07892478796898 0 0 
543 325.1161827544852 -55.38562832418121 0 0 
544 338.3159123118621 -56.67790670613761 0 0 
545 351.6132769576038 -57.95497302947468 0 0 
546 364.9998106397748 -59.21604038982891 0 0 
547 378.4670473064434 -60.46032188283675 0 0 
548 392.006520905677 -61.68703060413475 0 0 
549 405.6097653855431 -62.89537964935936 0 0 
550 419.2683146941081 -64.08458211414705 0 0 
551 432.9737027794399 -65.25385109413433 0 0 
552 446.7174635896049 -66.40239968495769 0 0 
553 460.4911310726688 -67.5294409822536 0 0 
554 474.2862391767026 -68.63418808165854 0 0 
555 488.0943218497709 -69.71585407880902 0 0 
556 501.9069130399412 -70.77365206934152 0 0 
557 515.7155466952809 -71.80679514889249 0 0 
558 529.5117567638576 -72.81449641309847 0 0 
559 543.2870771937378 -73.79596895759593 0 0 
560 557.0330419329875 -74.75042587802136 0 0 
561 570.7411849296768 -75.6770802700112 0 0 
562 584.4030401318705 -76.57514522920199 0 0 
563 598.0101414876367 -77.4438338512302 0 0 
564 611.5540229450426 -78.2823592317323 0 0 
565 625.0262184521544 -79.0899344663448 0 0 
566 638.4182619570406 -79.8657726507042 0 0 
567 651.7216874077685 -80.60908688044691 0 0 
568 664.9280287524034 -81.3190902512095 0 0 
569 678.0288199390143 -81.99499585862844 0 0 
570 691.015594915667 -82.63601679834019 0 0 
571 703.8798876304304 -83.24136616598122 0 0 
572 716.6132320313695 -83.81025705718808 0 0 
573 729.2071620665533 -84.3419025675972 0 0 
574 741.6532116840485 -84.83551579284509 0 0 
575 757.8708337100397 -85.42500173814433 0 0 
576 772.5005939829316 -85.89806550562793 0 0 
577 785.5079558847074 -86.26735774139749 0 0 
578 796.8583827973475 -86.54552909155473 0 0 
579 806.517338102833 -86.74523020220134 0 0 
580 814.4502851831467 -86.87911171943895 0 0 
581 825.0000081961839 -87.00001855809396 0 0 
582 825.0000081961839 -87.00001855809396 0 0 
583 3151.000008196183 -87.00001855809637 0 0 
584 3151.000008196183 -87.00001855809637 0 0 
585 3151.000008196183 -49.00001855809619 0 0 
586 3151.000008196183 -49.00001855809619 0 0 
587 3200.000008196181 -49.00001855809616 0 0 
588 3200.000008196181 -49.00001855809616 0 0 
589 3200.000008196181 48.9999814419038 0 0 
590 3200.000008196181 48.9999814419038 0 0 
591 3151.000008196183 48.99998144190376 0 0 
592 3151.000008196183 48.99998144190376 0 0 
593 3151.000008196183 86.9999814419036 0 0 
594 3151.000008196183 86.9999814419036 0 0 
595 825.0000081961839 86.99998144190361 0 0 
596 825.0000081961844 86.99998144190602 0 0 
597 820.1940753720351 86.95584785084853 0 0 
598 813.8292497516109 86.8718414825159 0 0 
599 805.9065403677646 86.73644315869103 0 0 
600 796.4269562533595 86.53813370115662 0 0 
601 785.3915064412481 86.26539393169561 0 0 
602 772.8011999642908 85.90670467209071 0 0 
603 758.657045855346 85.45054674412471 0 0 
604 742.9600531472706 84.88540096958049 0 0 
605 725.7112308729211 84.19974817024082 0 0 
606 706.9115880651561 83.38206916788852 0 0 
607 686.5621337568336 82.4208447843064 0 0 
608 675.8065426127314 81.88280333136125 0 0 
609 664.6638769808114 81.30455584127721 0 0 
610 653.134262990181 80.68466241677713 0 0 
611 641.2178267699469 80.02168316058383 0 0 
612 628.9146944492168 79.3141781754202 0 0 
613 616.2249921570974 78.56070756400905 0 0 
614 603.1488460226965 77.75983142907324 0 0 
615 589.6863821751213 76.91010987333567 0 0 
616 575.8377267434785 76.01010299951912 0 0 
617 561.6030058568749 75.05837091034648 0 0 
618 546.5611706778182 74.02355645905953 0 0 
619 531.4577484749057 72.95437810746908 0 0 
620 516.3019902654751 71.85150223143964 0 0 
621 501.1031470668622 70.71559520683569 0 0 
622 485.8704698964034 69.54732340952174 0 0 
623 470.6132097714349 68.34735321536232 0 0 
624 455.3406177092934 67.11635100022191 0 0 
625 440.0619447273152 65.85498313996499 0 0 
626 424.786441842838 64.56391601045605 0 0 
627 409.5233600731949 63.24381598755963 0 0 
628 394.2819504357249 61.8953494471402 0 0 
629 379.0714639477642 60.51918276506227 0 0 
630 363.9011516266478 59.11598231719034 0 0 
631 348.7802644897138 57.68641447938892 0 0 
632 333.7180535542975 56.23114562752248 0 0 
633 318.7237698377362 54.75084213745554 0 0 
634 303.8781518140768 53.25283059315964 0 0 
635 288.8005688249291 51.69742216619317 0 0 
636 273.529340746099 50.08672170806962 0 0 
637 258.1027874533934 48.42283407030244 0 0 
638 242.5592288226198 46.70786410440508 0 0 
639 226.9369847295852 44.94391666189099 0 0 
640 211.2743750500986 43.13309659427362 0 0 
641 195.6097196599649 41.27750875306646 0 0 
642 179.9813384349927 39.37925798978291 0 0 
643 164.4275512509885 37.44044915593648 0 0 
644 148.9866779837603 35.46318710304058 0 0 
645 133.6970385091158 33.44957668260868 0 0 
646 118.5969527028606 31.40172274615425 0 0 
647 103.7247404408031 29.32173014519073 0 0 
648 89.11872159875065 27.21170373123158 0 0 
649 74.81721605250914 25.07374835579026 0 0 
650 66.55462557796 23.80050646851761 0 0 
651 58.41804006194297 22.51671942055777 0 0 
652 50.51289430561792 21.24149823841468 0 0 
653 42.94462311014559 19.99395394859229 0 0 
654 35.81866127668764 18.79319757759452 0 0 
655 29.24044360640255 17.65834015192532 0 0 
656 23.31540490045427 16.60849269808861 0 0 
659 1500.254998863785 86.00054733249716 0 0 
660 1501.017005826611 86.00893003033896 0 0 
661 1502.277087053548 86.04440566339211 0 0 
662 1504.020469244313 86.13658708895561 0 0 
663 1506.22671283671 86.32193288752715 0 0 
664 1508.869951641804 86.63938979020629 0 0 
665 1511.919196101344 87.12563108778225 0 0 
666 1515.338696611991 87.81039755050047 0 0 
667 1519.088362656736 88.71243824394516 0 0 
668 1523.124232829559 89.83648729715887 0 0 
669 1527.398990242714 91.17160556752701 0 0 
670 1531.862517273979 92.6910744512126 0 0 
671 1536.462483149955 94.35386762860334 0 0 
672 1541.144957476534 96.10756220290142 0 0 
673 1545.855042523466 97.89240068091061 0 0 
674 1550.537516850045 99.64609525520869 0 0 
675 1555.137482726021 101.3088884325994 0 0 
676 1559.601009757286 102.828357316285 0 0 
677 1563.875767170441 104.1634755866532 0 0 
678 1567.911637343264 105.2875246398669 0 0 
679 1571.661303388009 106.1895653333116 0 0 
680 1575.080803898656 106.8743317960298 0 0 
681 1578.130048358196 107.3605730936058 0 0 
682 1580.77328716329 107.6780299962849 0 0 
683 1582.979530755687 107.8633757948564 0 0 
684 1584.722912946452 107.9555572204199 0 0 
685 1585.982994173389 107.9910328534731 0 0 
686 1586.745001136215 107.9994155513149 0 0 
693 -14.90589504253395 7.714060711577944 0 0 
694 16.41235306296213 17.47404895538345 0 0 
698 1569.203443951074 252.4091296144499 0 0 
699 0 -36000 0 0 
700 0 36000 0 0 
701 45000 -36000 0 0 
702 45000 36000 0 0 
703 1493.70356377542 244.4737724421497 0 0 
704 1567.017175856392 273.2950174491087 0 0 
705 1569.212273584998 252.4100576463712 0 0 
15 -14.90589514253395 7.714060611577945 -1e-07 16.41235316296213 17.47404905538345 1e-07 1 2 2 694 -693 
16 -36000.0000001 -36000.0000001 -1e-07 1.00000761449337e-07 36000.0000001 1e-07 1 1 2 699 -700 
17 -1.00000761449337e-07 -36000.0000001 -1e-07 45000.0000001 -35999.9999999 1e-07 1 1 2 701 -699 
18 -1.00000761449337e-07 35999.9999999 -1e-07 45000.0000001 36000.0000001 1e-07 1 1 2 700 -702 
19 44999.9999999 -36000.0000001 -1e-07 45000.0000001 36000.0000001 1e-07 1 1 2 702 -701 
20 -22.53361243684151 -21.2302399435624 -1e-07 1534.068821053003 284.8390297238782 1e-07 1 2 2 703 -694 
21 1493.69002397919 244.4602326413418 -1e-07 1567.017175956392 273.2950175491088 1e-07 1 2 2 703 -704 
22 1567.017175756392 252.4100575463728 -1e-07 1569.212273685013 273.2950175491088 1e-07 1 2 2 704 -705 
23 -22.53361243684162 -21.2302399435624 -1e-07 3187.59197006972 415.8925751537171 1e-07 1 2 2 693 -705 
1 -36000.0000001 -36000.0000001 -1e-07 45000.0000001 36000.0000001 1e-07 0 9 16 18 19 17 15 23 -22 -21 20 
$EndEntities
$Nodes
18 102 1 102
0 693 0 1
1
-14.90589504253395 7.714060711577944 0
0 694 0 1
2
16.41235306296213 17.47404895538345 0
0 699 0 1
3
0 -36000 0
0 700 0 1
4
0 36000 0
0 701 0 1
5
45000 -36000 0
0 702 0 1
6
45000 36000 0
0 703 0 1
7
1493.70356377542 244.4737724421497 0
0 704 0 1
8
1567.017175856392 273.2950174491087 0
0 705 0 1
9
1569.212273584998 252.4100576463712 0
1 15 0 3
10
11
12
8.582791036588118 15.03405189443207 0
0.7532290102140955 12.5940548334807 0
-7.076333016159921 10.15405777252932 0
1 16 0 28
13
14
15
16
17
18
19
20
21
22
23
24
25
26
27
28
29
30
31
32
33
34
35
36
37
38
39
40
-3892.284663261895 -35788.96645755695 0
-7738.935847596844 -35158.34000556312 0
-11494.85508489525 -34115.5141625809 0
-15116.00765616949 -32672.71510815447 0
-18559.93885837275 -30846.85834203323 0
-21786.2717469755 -28659.35036540321 0
-24757.18051872319 -26135.83770923276 0
-27437.83398459486 -23305.90625214586 0
-29796.80393364801 -20202.73435304583 0
-31806.43360005679 -16862.70386519252 0
-33443.16191340446 -13324.97359223699 0
-34687.79973069201 -9631.020187052027 0
-35525.75481149493 -5824.151875899607 0
-35947.20289864045 -1949.000709075108 0
-35947.20289864046 1949.000709074955 0
-35525.75481149495 5824.151875899457 0
-34687.79973069204 9631.020187051879 0
-33443.16191340451 13324.97359223687 0
-31806.43360005685 16862.7038651924 0
-29796.80393364809 20202.73435304572 0
-27437.83398459494 23305.90625214577 0
-24757.18051872326 26135.83770923268 0
-21786.27174697556 28659.35036540317 0
-18559.93885837281 30846.8583420332 0
-15116.00765616954 32672.71510815445 0
-11494.8550848953 34115.51416258088 0
-7738.935847596876 35158.34000556312 0
-3892.284663261928 35788.96645755694 0
1 17 0 11
41
42
43
44
45
46
47
48
49
50
51
41250 -36000 0
37500 -36000 0
33750 -36000 0
30000 -36000 0
26250 -36000 0
22500 -36000 0
18750 -36000 0
15000 -36000 0
11250 -36000 0
7500 -36000 0
3750 -36000 0
1 18 0 11
52
53
54
55
56
57
58
59
60
61
62
3750 36000 0
7500 36000 0
11250 36000 0
15000 36000 0
18750 36000 0
22500 36000 0
26250 36000 0
30000 36000 0
33750 36000 0
37500 36000 0
41250 36000 0
1 19 0 17
63
64
65
66
67
68
69
70
71
72
73
74
75
76
77
78
79
45000 32000 0
45000 28000 0
45000 24000 0
45000 20000 0
45000 16000 0
45000 12000 0
45000 8000 0
45000 4000 0
45000 0 0
45000 -4000 0
45000 -8000 0
45000 -12000 0
45000 -16000 0
45000 -20000 0
45000 -24000 0
45000 -28000 0
45000 -32000 0
1 20 0 6
80
81
82
83
84
85
1068.439592254132 199.776713000278 0
761.6287022857227 166.484204219618 0
542.5716364198677 131.9289853343082 0
385.8361599068727 102.8009430981362 0
192.9339935339876 62.10727550835541 0
42.68497404482852 24.93897569620569 0
1 21 0 5
86
87
88
89
90
1516.823162956105 253.7855376643829 0
1533.215237634603 261.9419789774777 0
1545.459335412373 267.4626883829712 0
1554.749050777443 270.7505233177255 0
1561.768182328303 272.4938319698055 0
1 22 0 0
1 23 0 12
91
92
93
94
95
96
97
98
99
100
101
102
153.7924835384595 -19.73932575728393 0
361.2769345193966 -20.823079426403 0
530.2180653490402 -17.19239289256625 0
766.0161656649509 -5.488821578093789 0
1094.25097470323 27.53120605576754 0
1544.840470607685 74.89003728834471 0
2031.679782090887 126.0589108190546 0
2518.519096531164 177.2277846605655 0
3005.341985042656 228.5516742687203 0
3029.764116448685 405.5890699088308 0
2542.890886041937 354.7478036032026 0
2056.051571938644 303.5789297971096 0
$EndNodes
$Elements
9 102 1 102
1 15 1 4
1 2 10 
2 10 11 
3 11 12 
4 12 1 
1 16 1 29
5 3 13 
6 13 14 
7 14 15 
8 15 16 
9 16 17 
10 17 18 
11 18 19 
12 19 20 
13 20 21 
14 21 22 
15 22 23 
16 23 24 
17 24 25 
18 25 26 
19 26 27 
20 27 28 
21 28 29 
22 29 30 
23 30 31 
24 31 32 
25 32 33 
26 33 34 
27 34 35 
28 35 36 
29 36 37 
30 37 38 
31 38 39 
32 39 40 
33 40 4 
1 17 1 12
34 5 41 
35 41 42 
36 42 43 
37 43 44 
38 44 45 
39 45 46 
40 46 47 
41 47 48 
42 48 49 
43 49 50 
44 50 51 
45 51 3 
1 18 1 12
46 4 52 
47 52 53 
48 53 54 
49 54 55 
50 55 56 
51 56 57 
52 57 58 
53 58 59 
54 59 60 
55 60 61 
56 61 62 
57 62 6 
1 19 1 18
58 6 63 
59 63 64 
60 64 65 
61 65 66 
62 66 67 
63 67 68 
64 68 69 
65 69 70 
66 70 71 
67 71 72 
68 72 73 
69 73 74 
70 74 75 
71 75 76 
72 76 77 
73 77 78 
74 78 79 
75 79 5 
1 20 1 7
76 7 80 
77 80 81 
78 81 82 
79 82 83 
80 83 84 
81 84 85 
82 85 2 
1 21 1 6
83 7 86 
84 86 87 
85 87 88 
86 88 89 
87 89 90 
88 90 8 
1 22 1 1
89 8 9 
1 23 1 13
90 1 91 
91 91 92 
92 92 93 
93 93 94 
94 94 95 
95 95 96 
96 96 97 
97 97 98 
98 98 99 
99 99 100 
100 100 101 
101 101 102 
102 102 9 
$EndElements
