NDIME= 2
NELEM= 0
NPOIN= 0
NMARK= 2
MARKER_TAG= Farfield
MARKER_ELEMS= 184
3 -1 -1 
3 -1 -1 
3 -1 -1 
3 -1 -1 
3 -1 -1 
3 -1 -1 
3 -1 -1 
3 -1 -1 
3 -1 -1 
3 -1 -1 
3 -1 -1 
3 -1 -1 
3 -1 -1 
3 -1 -1 
3 -1 -1 
3 -1 -1 
3 -1 -1 
3 -1 -1 
3 -1 -1 
3 -1 -1 
3 -1 -1 
3 -1 -1 
3 -1 -1 
3 -1 -1 
3 -1 -1 
3 -1 -1 
3 -1 -1 
3 -1 -1 
3 -1 -1 
3 -1 -1 
3 -1 -1 
3 -1 -1 
3 -1 -1 
3 -1 -1 
3 -1 -1 
3 -1 -1 
3 -1 -1 
3 -1 -1 
3 -1 -1 
3 -1 -1 
3 -1 -1 
3 -1 -1 
3 -1 -1 
3 -1 -1 
3 -1 -1 
3 -1 -1 
3 -1 -1 
3 -1 -1 
3 -1 -1 
3 -1 -1 
3 -1 -1 
3 -1 -1 
3 -1 -1 
3 -1 -1 
3 -1 -1 
3 -1 -1 
3 -1 -1 
3 -1 -1 
3 -1 -1 
3 -1 -1 
3 -1 -1 
3 -1 -1 
3 -1 -1 
3 -1 -1 
3 -1 -1 
3 -1 -1 
3 -1 -1 
3 -1 -1 
3 -1 -1 
3 -1 -1 
3 -1 -1 
3 -1 -1 
3 -1 -1 
3 -1 -1 
3 -1 -1 
3 -1 -1 
3 -1 -1 
3 -1 -1 
3 -1 -1 
3 -1 -1 
3 -1 -1 
3 -1 -1 
3 -1 -1 
3 -1 -1 
3 -1 -1 
3 -1 -1 
3 -1 -1 
3 -1 -1 
3 -1 -1 
3 -1 -1 
3 -1 -1 
3 -1 -1 
3 -1 -1 
3 -1 -1 
3 -1 -1 
3 -1 -1 
3 -1 -1 
3 -1 -1 
3 -1 -1 
3 -1 -1 
3 -1 -1 
3 -1 -1 
3 -1 -1 
3 -1 -1 
3 -1 -1 
3 -1 -1 
3 -1 -1 
3 -1 -1 
3 -1 -1 
3 -1 -1 
3 -1 -1 
3 -1 -1 
3 -1 -1 
3 -1 -1 
3 -1 -1 
3 -1 -1 
3 -1 -1 
3 -1 -1 
3 -1 -1 
3 -1 -1 
3 -1 -1 
3 -1 -1 
3 -1 -1 
3 -1 -1 
3 -1 -1 
3 -1 -1 
3 -1 -1 
3 -1 -1 
3 -1 -1 
3 -1 -1 
3 -1 -1 
3 -1 -1 
3 -1 -1 
3 -1 -1 
3 -1 -1 
3 -1 -1 
3 -1 -1 
3 -1 -1 
3 -1 -1 
3 -1 -1 
3 -1 -1 
3 -1 -1 
3 -1 -1 
3 -1 -1 
3 -1 -1 
3 -1 -1 
3 -1 -1 
3 -1 -1 
3 -1 -1 
3 -1 -1 
3 -1 -1 
3 -1 -1 
3 -1 -1 
3 -1 -1 
3 -1 -1 
3 -1 -1 
3 -1 -1 
3 -1 -1 
3 -1 -1 
3 -1 -1 
3 -1 -1 
3 -1 -1 
3 -1 -1 
3 -1 -1 
3 -1 -1 
3 -1 -1 
3 -1 -1 
3 -1 -1 
3 -1 -1 
3 -1 -1 
3 -1 -1 
3 -1 -1 
3 -1 -1 
3 -1 -1 
3 -1 -1 
3 -1 -1 
3 -1 -1 
3 -1 -1 
3 -1 -1 
3 -1 -1 
3 -1 -1 
3 -1 -1 
3 -1 -1 
3 -1 -1 
MARKER_TAG= Wall
MARKER_ELEMS= 8944
3 -1 -1 
3 -1 -1 
3 -1 -1 
3 -1 -1 
3 -1 -1 
3 -1 -1 
3 -1 -1 
3 -1 -1 
3 -1 -1 
3 -1 -1 
3 -1 -1 
3 -1 -1 
3 -1 -1 
3 -1 -1 
3 -1 -1 
3 -1 -1 
3 -1 -1 
3 -1 -1 
3 -1 -1 
3 -1 -1 
3 -1 -1 
3 -1 -1 
3 -1 -1 
3 -1 -1 
3 -1 -1 
3 -1 -1 
3 -1 -1 
3 -1 -1 
3 -1 -1 
3 -1 -1 
3 -1 -1 
3 -1 -1 
3 -1 -1 
3 -1 -1 
3 -1 -1 
3 -1 -1 
3 -1 -1 
3 -1 -1 
3 -1 -1 
3 -1 -1 
3 -1 -1 
3 -1 -1 
3 -1 -1 
3 -1 -1 
3 -1 -1 
3 -1 -1 
3 -1 -1 
3 -1 -1 
3 -1 -1 
3 -1 -1 
3 -1 -1 
3 -1 -1 
3 -1 -1 
3 -1 -1 
3 -1 -1 
3 -1 -1 
3 -1 -1 
3 -1 -1 
3 -1 -1 
3 -1 -1 
3 -1 -1 
3 -1 -1 
3 -1 -1 
3 -1 -1 
3 -1 -1 
3 -1 -1 
3 -1 -1 
3 -1 -1 
3 -1 -1 
3 -1 -1 
3 -1 -1 
3 -1 -1 
3 -1 -1 
3 -1 -1 
3 -1 -1 
3 -1 -1 
3 -1 -1 
3 -1 -1 
3 -1 -1 
3 -1 -1 
3 -1 -1 
3 -1 -1 
3 -1 -1 
3 -1 -1 
3 -1 -1 
3 -1 -1 
3 -1 -1 
3 -1 -1 
3 -1 -1 
3 -1 -1 
3 -1 -1 
3 -1 -1 
3 -1 -1 
3 -1 -1 
3 -1 -1 
3 -1 -1 
3 -1 -1 
3 -1 -1 
3 -1 -1 
3 -1 -1 
3 -1 -1 
3 -1 -1 
3 -1 -1 
3 -1 -1 
3 -1 -1 
3 -1 -1 
3 -1 -1 
3 -1 -1 
3 -1 -1 
3 -1 -1 
3 -1 -1 
3 -1 -1 
3 -1 -1 
3 -1 -1 
3 -1 -1 
3 -1 -1 
3 -1 -1 
3 -1 -1 
3 -1 -1 
3 -1 -1 
3 -1 -1 
3 -1 -1 
3 -1 -1 
3 -1 -1 
3 -1 -1 
3 -1 -1 
3 -1 -1 
3 -1 -1 
3 -1 -1 
3 -1 -1 
3 -1 -1 
3 -1 -1 
3 -1 -1 
3 -1 -1 
3 -1 -1 
3 -1 -1 
3 -1 -1 
3 -1 -1 
3 -1 -1 
3 -1 -1 
3 -1 -1 
3 -1 -1 
3 -1 -1 
3 -1 -1 
3 -1 -1 
3 -1 -1 
3 -1 -1 
3 -1 -1 
3 -1 -1 
3 -1 -1 
3 -1 -1 
3 -1 -1 
3 -1 -1 
3 -1 -1 
3 -1 -1 
3 -1 -1 
3 -1 -1 
3 -1 -1 
3 -1 -1 
3 -1 -1 
3 -1 -1 
3 -1 -1 
3 -1 -1 
3 -1 -1 
3 -1 -1 
3 -1 -1 
3 -1 -1 
3 -1 -1 
3 -1 -1 
3 -1 -1 
3 -1 -1 
3 -1 -1 
3 -1 -1 
3 -1 -1 
3 -1 -1 
3 -1 -1 
3 -1 -1 
3 -1 -1 
3 -1 -1 
3 -1 -1 
3 -1 -1 
3 -1 -1 
3 -1 -1 
3 -1 -1 
3 -1 -1 
3 -1 -1 
3 -1 -1 
3 -1 -1 
3 -1 -1 
3 -1 -1 
3 -1 -1 
3 -1 -1 
3 -1 -1 
3 -1 -1 
3 -1 -1 
3 -1 -1 
3 -1 -1 
3 -1 -1 
3 -1 -1 
3 -1 -1 
3 -1 -1 
3 -1 -1 
3 -1 -1 
3 -1 -1 
3 -1 -1 
3 -1 -1 
3 -1 -1 
3 -1 -1 
3 -1 -1 
3 -1 -1 
3 -1 -1 
3 -1 -1 
3 -1 -1 
3 -1 -1 
3 -1 -1 
3 -1 -1 
3 -1 -1 
3 -1 -1 
3 -1 -1 
3 -1 -1 
3 -1 -1 
3 -1 -1 
3 -1 -1 
3 -1 -1 
3 -1 -1 
3 -1 -1 
3 -1 -1 
3 -1 -1 
3 -1 -1 
3 -1 -1 
3 -1 -1 
3 -1 -1 
3 -1 -1 
3 -1 -1 
3 -1 -1 
3 -1 -1 
3 -1 -1 
3 -1 -1 
3 -1 -1 
3 -1 -1 
3 -1 -1 
3 -1 -1 
3 -1 -1 
3 -1 -1 
3 -1 -1 
3 -1 -1 
3 -1 -1 
3 -1 -1 
3 -1 -1 
3 -1 -1 
3 -1 -1 
3 -1 -1 
3 -1 -1 
3 -1 -1 
3 -1 -1 
3 -1 -1 
3 -1 -1 
3 -1 -1 
3 -1 -1 
3 -1 -1 
3 -1 -1 
3 -1 -1 
3 -1 -1 
3 -1 -1 
3 -1 -1 
3 -1 -1 
3 -1 -1 
3 -1 -1 
3 -1 -1 
3 -1 -1 
3 -1 -1 
3 -1 -1 
3 -1 -1 
3 -1 -1 
3 -1 -1 
3 -1 -1 
3 -1 -1 
3 -1 -1 
3 -1 -1 
3 -1 -1 
3 -1 -1 
3 -1 -1 
3 -1 -1 
3 -1 -1 
3 -1 -1 
3 -1 -1 
3 -1 -1 
3 -1 -1 
3 -1 -1 
3 -1 -1 
3 -1 -1 
3 -1 -1 
3 -1 -1 
3 -1 -1 
3 -1 -1 
3 -1 -1 
3 -1 -1 
3 -1 -1 
3 -1 -1 
3 -1 -1 
3 -1 -1 
3 -1 -1 
3 -1 -1 
3 -1 -1 
3 -1 -1 
3 -1 -1 
3 -1 -1 
3 -1 -1 
3 -1 -1 
3 -1 -1 
3 -1 -1 
3 -1 -1 
3 -1 -1 
3 -1 -1 
3 -1 -1 
3 -1 -1 
3 -1 -1 
3 -1 -1 
3 -1 -1 
3 -1 -1 
3 -1 -1 
3 -1 -1 
3 -1 -1 
3 -1 -1 
3 -1 -1 
3 -1 -1 
3 -1 -1 
3 -1 -1 
3 -1 -1 
3 -1 -1 
3 -1 -1 
3 -1 -1 
3 -1 -1 
3 -1 -1 
3 -1 -1 
3 -1 -1 
3 -1 -1 
3 -1 -1 
3 -1 -1 
3 -1 -1 
3 -1 -1 
3 -1 -1 
3 -1 -1 
3 -1 -1 
3 -1 -1 
3 -1 -1 
3 -1 -1 
3 -1 -1 
3 -1 -1 
3 -1 -1 
3 -1 -1 
3 -1 -1 
3 -1 -1 
3 -1 -1 
3 -1 -1 
3 -1 -1 
3 -1 -1 
3 -1 -1 
3 -1 -1 
3 -1 -1 
3 -1 -1 
3 -1 -1 
3 -1 -1 
3 -1 -1 
3 -1 -1 
3 -1 -1 
3 -1 -1 
3 -1 -1 
3 -1 -1 
3 -1 -1 
3 -1 -1 
3 -1 -1 
3 -1 -1 
3 -1 -1 
3 -1 -1 
3 -1 -1 
3 -1 -1 
3 -1 -1 
3 -1 -1 
3 -1 -1 
3 -1 -1 
3 -1 -1 
3 -1 -1 
3 -1 -1 
3 -1 -1 
3 -1 -1 
3 -1 -1 
3 -1 -1 
3 -1 -1 
3 -1 -1 
3 -1 -1 
3 -1 -1 
3 -1 -1 
3 -1 -1 
3 -1 -1 
3 -1 -1 
3 -1 -1 
3 -1 -1 
3 -1 -1 
3 -1 -1 
3 -1 -1 
3 -1 -1 
3 -1 -1 
3 -1 -1 
3 -1 -1 
3 -1 -1 
3 -1 -1 
3 -1 -1 
3 -1 -1 
3 -1 -1 
3 -1 -1 
3 -1 -1 
3 -1 -1 
3 -1 -1 
3 -1 -1 
3 -1 -1 
3 -1 -1 
3 -1 -1 
3 -1 -1 
3 -1 -1 
3 -1 -1 
3 -1 -1 
3 -1 -1 
3 -1 -1 
3 -1 -1 
3 -1 -1 
3 -1 -1 
3 -1 -1 
3 -1 -1 
3 -1 -1 
3 -1 -1 
3 -1 -1 
3 -1 -1 
3 -1 -1 
3 -1 -1 
3 -1 -1 
3 -1 -1 
3 -1 -1 
3 -1 -1 
3 -1 -1 
3 -1 -1 
3 -1 -1 
3 -1 -1 
3 -1 -1 
3 -1 -1 
3 -1 -1 
3 -1 -1 
3 -1 -1 
3 -1 -1 
3 -1 -1 
3 -1 -1 
3 -1 -1 
3 -1 -1 
3 -1 -1 
3 -1 -1 
3 -1 -1 
3 -1 -1 
3 -1 -1 
3 -1 -1 
3 -1 -1 
3 -1 -1 
3 -1 -1 
3 -1 -1 
3 -1 -1 
3 -1 -1 
3 -1 -1 
3 -1 -1 
3 -1 -1 
3 -1 -1 
3 -1 -1 
3 -1 -1 
3 -1 -1 
3 -1 -1 
3 -1 -1 
3 -1 -1 
3 -1 -1 
3 -1 -1 
3 -1 -1 
3 -1 -1 
3 -1 -1 
3 -1 -1 
3 -1 -1 
3 -1 -1 
3 -1 -1 
3 -1 -1 
3 -1 -1 
3 -1 -1 
3 -1 -1 
3 -1 -1 
3 -1 -1 
3 -1 -1 
3 -1 -1 
3 -1 -1 
3 -1 -1 
3 -1 -1 
3 -1 -1 
3 -1 -1 
3 -1 -1 
3 -1 -1 
3 -1 -1 
3 -1 -1 
3 -1 -1 
3 -1 -1 
3 -1 -1 
3 -1 -1 
3 -1 -1 
3 -1 -1 
3 -1 -1 
3 -1 -1 
3 -1 -1 
3 -1 -1 
3 -1 -1 
3 -1 -1 
3 -1 -1 
3 -1 -1 
3 -1 -1 
3 -1 -1 
3 -1 -1 
3 -1 -1 
3 -1 -1 
3 -1 -1 
3 -1 -1 
3 -1 -1 
3 -1 -1 
3 -1 -1 
3 -1 -1 
3 -1 -1 
3 -1 -1 
3 -1 -1 
3 -1 -1 
3 -1 -1 
3 -1 -1 
3 -1 -1 
3 -1 -1 
3 -1 -1 
3 -1 -1 
3 -1 -1 
3 -1 -1 
3 -1 -1 
3 -1 -1 
3 -1 -1 
3 -1 -1 
3 -1 -1 
3 -1 -1 
3 -1 -1 
3 -1 -1 
3 -1 -1 
3 -1 -1 
3 -1 -1 
3 -1 -1 
3 -1 -1 
3 -1 -1 
3 -1 -1 
3 -1 -1 
3 -1 -1 
3 -1 -1 
3 -1 -1 
3 -1 -1 
3 -1 -1 
3 -1 -1 
3 -1 -1 
3 -1 -1 
3 -1 -1 
3 -1 -1 
3 -1 -1 
3 -1 -1 
3 -1 -1 
3 -1 -1 
3 -1 -1 
3 -1 -1 
3 -1 -1 
3 -1 -1 
3 -1 -1 
3 -1 -1 
3 -1 -1 
3 -1 -1 
3 -1 -1 
3 -1 -1 
3 -1 -1 
3 -1 -1 
3 -1 -1 
3 -1 -1 
3 -1 -1 
3 -1 -1 
3 -1 -1 
3 -1 -1 
3 -1 -1 
3 -1 -1 
3 -1 -1 
3 -1 -1 
3 -1 -1 
3 -1 -1 
3 -1 -1 
3 -1 -1 
3 -1 -1 
3 -1 -1 
3 -1 -1 
3 -1 -1 
3 -1 -1 
3 -1 -1 
3 -1 -1 
3 -1 -1 
3 -1 -1 
3 -1 -1 
3 -1 -1 
3 -1 -1 
3 -1 -1 
3 -1 -1 
3 -1 -1 
3 -1 -1 
3 -1 -1 
3 -1 -1 
3 -1 -1 
3 -1 -1 
3 -1 -1 
3 -1 -1 
3 -1 -1 
3 -1 -1 
3 -1 -1 
3 -1 -1 
3 -1 -1 
3 -1 -1 
3 -1 -1 
3 -1 -1 
3 -1 -1 
3 -1 -1 
3 -1 -1 
3 -1 -1 
3 -1 -1 
3 -1 -1 
3 -1 -1 
3 -1 -1 
3 -1 -1 
3 -1 -1 
3 -1 -1 
3 -1 -1 
3 -1 -1 
3 -1 -1 
3 -1 -1 
3 -1 -1 
3 -1 -1 
3 -1 -1 
3 -1 -1 
3 -1 -1 
3 -1 -1 
3 -1 -1 
3 -1 -1 
3 -1 -1 
3 -1 -1 
3 -1 -1 
3 -1 -1 
3 -1 -1 
3 -1 -1 
3 -1 -1 
3 -1 -1 
3 -1 -1 
3 -1 -1 
3 -1 -1 
3 -1 -1 
3 -1 -1 
3 -1 -1 
3 -1 -1 
3 -1 -1 
3 -1 -1 
3 -1 -1 
3 -1 -1 
3 -1 -1 
3 -1 -1 
3 -1 -1 
3 -1 -1 
3 -1 -1 
3 -1 -1 
3 -1 -1 
3 -1 -1 
3 -1 -1 
3 -1 -1 
3 -1 -1 
3 -1 -1 
3 -1 -1 
3 -1 -1 
3 -1 -1 
3 -1 -1 
3 -1 -1 
3 -1 -1 
3 -1 -1 
3 -1 -1 
3 -1 -1 
3 -1 -1 
3 -1 -1 
3 -1 -1 
3 -1 -1 
3 -1 -1 
3 -1 -1 
3 -1 -1 
3 -1 -1 
3 -1 -1 
3 -1 -1 
3 -1 -1 
3 -1 -1 
3 -1 -1 
3 -1 -1 
3 -1 -1 
3 -1 -1 
3 -1 -1 
3 -1 -1 
3 -1 -1 
3 -1 -1 
3 -1 -1 
3 -1 -1 
3 -1 -1 
3 -1 -1 
3 -1 -1 
3 -1 -1 
3 -1 -1 
3 -1 -1 
3 -1 -1 
3 -1 -1 
3 -1 -1 
3 -1 -1 
3 -1 -1 
3 -1 -1 
3 -1 -1 
3 -1 -1 
3 -1 -1 
3 -1 -1 
3 -1 -1 
3 -1 -1 
3 -1 -1 
3 -1 -1 
3 -1 -1 
3 -1 -1 
3 -1 -1 
3 -1 -1 
3 -1 -1 
3 -1 -1 
3 -1 -1 
3 -1 -1 
3 -1 -1 
3 -1 -1 
3 -1 -1 
3 -1 -1 
3 -1 -1 
3 -1 -1 
3 -1 -1 
3 -1 -1 
3 -1 -1 
3 -1 -1 
3 -1 -1 
3 -1 -1 
3 -1 -1 
3 -1 -1 
3 -1 -1 
3 -1 -1 
3 -1 -1 
3 -1 -1 
3 -1 -1 
3 -1 -1 
3 -1 -1 
3 -1 -1 
3 -1 -1 
3 -1 -1 
3 -1 -1 
3 -1 -1 
3 -1 -1 
3 -1 -1 
3 -1 -1 
3 -1 -1 
3 -1 -1 
3 -1 -1 
3 -1 -1 
3 -1 -1 
3 -1 -1 
3 -1 -1 
3 -1 -1 
3 -1 -1 
3 -1 -1 
3 -1 -1 
3 -1 -1 
3 -1 -1 
3 -1 -1 
3 -1 -1 
3 -1 -1 
3 -1 -1 
3 -1 -1 
3 -1 -1 
3 -1 -1 
3 -1 -1 
3 -1 -1 
3 -1 -1 
3 -1 -1 
3 -1 -1 
3 -1 -1 
3 -1 -1 
3 -1 -1 
3 -1 -1 
3 -1 -1 
3 -1 -1 
3 -1 -1 
3 -1 -1 
3 -1 -1 
3 -1 -1 
3 -1 -1 
3 -1 -1 
3 -1 -1 
3 -1 -1 
3 -1 -1 
3 -1 -1 
3 -1 -1 
3 -1 -1 
3 -1 -1 
3 -1 -1 
3 -1 -1 
3 -1 -1 
3 -1 -1 
3 -1 -1 
3 -1 -1 
3 -1 -1 
3 -1 -1 
3 -1 -1 
3 -1 -1 
3 -1 -1 
3 -1 -1 
3 -1 -1 
3 -1 -1 
3 -1 -1 
3 -1 -1 
3 -1 -1 
3 -1 -1 
3 -1 -1 
3 -1 -1 
3 -1 -1 
3 -1 -1 
3 -1 -1 
3 -1 -1 
3 -1 -1 
3 -1 -1 
3 -1 -1 
3 -1 -1 
3 -1 -1 
3 -1 -1 
3 -1 -1 
3 -1 -1 
3 -1 -1 
3 -1 -1 
3 -1 -1 
3 -1 -1 
3 -1 -1 
3 -1 -1 
3 -1 -1 
3 -1 -1 
3 -1 -1 
3 -1 -1 
3 -1 -1 
3 -1 -1 
3 -1 -1 
3 -1 -1 
3 -1 -1 
3 -1 -1 
3 -1 -1 
3 -1 -1 
3 -1 -1 
3 -1 -1 
3 -1 -1 
3 -1 -1 
3 -1 -1 
3 -1 -1 
3 -1 -1 
3 -1 -1 
3 -1 -1 
3 -1 -1 
3 -1 -1 
3 -1 -1 
3 -1 -1 
3 -1 -1 
3 -1 -1 
3 -1 -1 
3 -1 -1 
3 -1 -1 
3 -1 -1 
3 -1 -1 
3 -1 -1 
3 -1 -1 
3 -1 -1 
3 -1 -1 
3 -1 -1 
3 -1 -1 
3 -1 -1 
3 -1 -1 
3 -1 -1 
3 -1 -1 
3 -1 -1 
3 -1 -1 
3 -1 -1 
3 -1 -1 
3 -1 -1 
3 -1 -1 
3 -1 -1 
3 -1 -1 
3 -1 -1 
3 -1 -1 
3 -1 -1 
3 -1 -1 
3 -1 -1 
3 -1 -1 
3 -1 -1 
3 -1 -1 
3 -1 -1 
3 -1 -1 
3 -1 -1 
3 -1 -1 
3 -1 -1 
3 -1 -1 
3 -1 -1 
3 -1 -1 
3 -1 -1 
3 -1 -1 
3 -1 -1 
3 -1 -1 
3 -1 -1 
3 -1 -1 
3 -1 -1 
3 -1 -1 
3 -1 -1 
3 -1 -1 
3 -1 -1 
3 -1 -1 
3 -1 -1 
3 -1 -1 
3 -1 -1 
3 -1 -1 
3 -1 -1 
3 -1 -1 
3 -1 -1 
3 -1 -1 
3 -1 -1 
3 -1 -1 
3 -1 -1 
3 -1 -1 
3 -1 -1 
3 -1 -1 
3 -1 -1 
3 -1 -1 
3 -1 -1 
3 -1 -1 
3 -1 -1 
3 -1 -1 
3 -1 -1 
3 -1 -1 
3 -1 -1 
3 -1 -1 
3 -1 -1 
3 -1 -1 
3 -1 -1 
3 -1 -1 
3 -1 -1 
3 -1 -1 
3 -1 -1 
3 -1 -1 
3 -1 -1 
3 -1 -1 
3 -1 -1 
3 -1 -1 
3 -1 -1 
3 -1 -1 
3 -1 -1 
3 -1 -1 
3 -1 -1 
3 -1 -1 
3 -1 -1 
3 -1 -1 
3 -1 -1 
3 -1 -1 
3 -1 -1 
3 -1 -1 
3 -1 -1 
3 -1 -1 
3 -1 -1 
3 -1 -1 
3 -1 -1 
3 -1 -1 
3 -1 -1 
3 -1 -1 
3 -1 -1 
3 -1 -1 
3 -1 -1 
3 -1 -1 
3 -1 -1 
3 -1 -1 
3 -1 -1 
3 -1 -1 
3 -1 -1 
3 -1 -1 
3 -1 -1 
3 -1 -1 
3 -1 -1 
3 -1 -1 
3 -1 -1 
3 -1 -1 
3 -1 -1 
3 -1 -1 
3 -1 -1 
3 -1 -1 
3 -1 -1 
3 -1 -1 
3 -1 -1 
3 -1 -1 
3 -1 -1 
3 -1 -1 
3 -1 -1 
3 -1 -1 
3 -1 -1 
3 -1 -1 
3 -1 -1 
3 -1 -1 
3 -1 -1 
3 -1 -1 
3 -1 -1 
3 -1 -1 
3 -1 -1 
3 -1 -1 
3 -1 -1 
3 -1 -1 
3 -1 -1 
3 -1 -1 
3 -1 -1 
3 -1 -1 
3 -1 -1 
3 -1 -1 
3 -1 -1 
3 -1 -1 
3 -1 -1 
3 -1 -1 
3 -1 -1 
3 -1 -1 
3 -1 -1 
3 -1 -1 
3 -1 -1 
3 -1 -1 
3 -1 -1 
3 -1 -1 
3 -1 -1 
3 -1 -1 
3 -1 -1 
3 -1 -1 
3 -1 -1 
3 -1 -1 
3 -1 -1 
3 -1 -1 
3 -1 -1 
3 -1 -1 
3 -1 -1 
3 -1 -1 
3 -1 -1 
3 -1 -1 
3 -1 -1 
3 -1 -1 
3 -1 -1 
3 -1 -1 
3 -1 -1 
3 -1 -1 
3 -1 -1 
3 -1 -1 
3 -1 -1 
3 -1 -1 
3 -1 -1 
3 -1 -1 
3 -1 -1 
3 -1 -1 
3 -1 -1 
3 -1 -1 
3 -1 -1 
3 -1 -1 
3 -1 -1 
3 -1 -1 
3 -1 -1 
3 -1 -1 
3 -1 -1 
3 -1 -1 
3 -1 -1 
3 -1 -1 
3 -1 -1 
3 -1 -1 
3 -1 -1 
3 -1 -1 
3 -1 -1 
3 -1 -1 
3 -1 -1 
3 -1 -1 
3 -1 -1 
3 -1 -1 
3 -1 -1 
3 -1 -1 
3 -1 -1 
3 -1 -1 
3 -1 -1 
3 -1 -1 
3 -1 -1 
3 -1 -1 
3 -1 -1 
3 -1 -1 
3 -1 -1 
3 -1 -1 
3 -1 -1 
3 -1 -1 
3 -1 -1 
3 -1 -1 
3 -1 -1 
3 -1 -1 
3 -1 -1 
3 -1 -1 
3 -1 -1 
3 -1 -1 
3 -1 -1 
3 -1 -1 
3 -1 -1 
3 -1 -1 
3 -1 -1 
3 -1 -1 
3 -1 -1 
3 -1 -1 
3 -1 -1 
3 -1 -1 
3 -1 -1 
3 -1 -1 
3 -1 -1 
3 -1 -1 
3 -1 -1 
3 -1 -1 
3 -1 -1 
3 -1 -1 
3 -1 -1 
3 -1 -1 
3 -1 -1 
3 -1 -1 
3 -1 -1 
3 -1 -1 
3 -1 -1 
3 -1 -1 
3 -1 -1 
3 -1 -1 
3 -1 -1 
3 -1 -1 
3 -1 -1 
3 -1 -1 
3 -1 -1 
3 -1 -1 
3 -1 -1 
3 -1 -1 
3 -1 -1 
3 -1 -1 
3 -1 -1 
3 -1 -1 
3 -1 -1 
3 -1 -1 
3 -1 -1 
3 -1 -1 
3 -1 -1 
3 -1 -1 
3 -1 -1 
3 -1 -1 
3 -1 -1 
3 -1 -1 
3 -1 -1 
3 -1 -1 
3 -1 -1 
3 -1 -1 
3 -1 -1 
3 -1 -1 
3 -1 -1 
3 -1 -1 
3 -1 -1 
3 -1 -1 
3 -1 -1 
3 -1 -1 
3 -1 -1 
3 -1 -1 
3 -1 -1 
3 -1 -1 
3 -1 -1 
3 -1 -1 
3 -1 -1 
3 -1 -1 
3 -1 -1 
3 -1 -1 
3 -1 -1 
3 -1 -1 
3 -1 -1 
3 -1 -1 
3 -1 -1 
3 -1 -1 
3 -1 -1 
3 -1 -1 
3 -1 -1 
3 -1 -1 
3 -1 -1 
3 -1 -1 
3 -1 -1 
3 -1 -1 
3 -1 -1 
3 -1 -1 
3 -1 -1 
3 -1 -1 
3 -1 -1 
3 -1 -1 
3 -1 -1 
3 -1 -1 
3 -1 -1 
3 -1 -1 
3 -1 -1 
3 -1 -1 
3 -1 -1 
3 -1 -1 
3 -1 -1 
3 -1 -1 
3 -1 -1 
3 -1 -1 
3 -1 -1 
3 -1 -1 
3 -1 -1 
3 -1 -1 
3 -1 -1 
3 -1 -1 
3 -1 -1 
3 -1 -1 
3 -1 -1 
3 -1 -1 
3 -1 -1 
3 -1 -1 
3 -1 -1 
3 -1 -1 
3 -1 -1 
3 -1 -1 
3 -1 -1 
3 -1 -1 
3 -1 -1 
3 -1 -1 
3 -1 -1 
3 -1 -1 
3 -1 -1 
3 -1 -1 
3 -1 -1 
3 -1 -1 
3 -1 -1 
3 -1 -1 
3 -1 -1 
3 -1 -1 
3 -1 -1 
3 -1 -1 
3 -1 -1 
3 -1 -1 
3 -1 -1 
3 -1 -1 
3 -1 -1 
3 -1 -1 
3 -1 -1 
3 -1 -1 
3 -1 -1 
3 -1 -1 
3 -1 -1 
3 -1 -1 
3 -1 -1 
3 -1 -1 
3 -1 -1 
3 -1 -1 
3 -1 -1 
3 -1 -1 
3 -1 -1 
3 -1 -1 
3 -1 -1 
3 -1 -1 
3 -1 -1 
3 -1 -1 
3 -1 -1 
3 -1 -1 
3 -1 -1 
3 -1 -1 
3 -1 -1 
3 -1 -1 
3 -1 -1 
3 -1 -1 
3 -1 -1 
3 -1 -1 
3 -1 -1 
3 -1 -1 
3 -1 -1 
3 -1 -1 
3 -1 -1 
3 -1 -1 
3 -1 -1 
3 -1 -1 
3 -1 -1 
3 -1 -1 
3 -1 -1 
3 -1 -1 
3 -1 -1 
3 -1 -1 
3 -1 -1 
3 -1 -1 
3 -1 -1 
3 -1 -1 
3 -1 -1 
3 -1 -1 
3 -1 -1 
3 -1 -1 
3 -1 -1 
3 -1 -1 
3 -1 -1 
3 -1 -1 
3 -1 -1 
3 -1 -1 
3 -1 -1 
3 -1 -1 
3 -1 -1 
3 -1 -1 
3 -1 -1 
3 -1 -1 
3 -1 -1 
3 -1 -1 
3 -1 -1 
3 -1 -1 
3 -1 -1 
3 -1 -1 
3 -1 -1 
3 -1 -1 
3 -1 -1 
3 -1 -1 
3 -1 -1 
3 -1 -1 
3 -1 -1 
3 -1 -1 
3 -1 -1 
3 -1 -1 
3 -1 -1 
3 -1 -1 
3 -1 -1 
3 -1 -1 
3 -1 -1 
3 -1 -1 
3 -1 -1 
3 -1 -1 
3 -1 -1 
3 -1 -1 
3 -1 -1 
3 -1 -1 
3 -1 -1 
3 -1 -1 
3 -1 -1 
3 -1 -1 
3 -1 -1 
3 -1 -1 
3 -1 -1 
3 -1 -1 
3 -1 -1 
3 -1 -1 
3 -1 -1 
3 -1 -1 
3 -1 -1 
3 -1 -1 
3 -1 -1 
3 -1 -1 
3 -1 -1 
3 -1 -1 
3 -1 -1 
3 -1 -1 
3 -1 -1 
3 -1 -1 
3 -1 -1 
3 -1 -1 
3 -1 -1 
3 -1 -1 
3 -1 -1 
3 -1 -1 
3 -1 -1 
3 -1 -1 
3 -1 -1 
3 -1 -1 
3 -1 -1 
3 -1 -1 
3 -1 -1 
3 -1 -1 
3 -1 -1 
3 -1 -1 
3 -1 -1 
3 -1 -1 
3 -1 -1 
3 -1 -1 
3 -1 -1 
3 -1 -1 
3 -1 -1 
3 -1 -1 
3 -1 -1 
3 -1 -1 
3 -1 -1 
3 -1 -1 
3 -1 -1 
3 -1 -1 
3 -1 -1 
3 -1 -1 
3 -1 -1 
3 -1 -1 
3 -1 -1 
3 -1 -1 
3 -1 -1 
3 -1 -1 
3 -1 -1 
3 -1 -1 
3 -1 -1 
3 -1 -1 
3 -1 -1 
3 -1 -1 
3 -1 -1 
3 -1 -1 
3 -1 -1 
3 -1 -1 
3 -1 -1 
3 -1 -1 
3 -1 -1 
3 -1 -1 
3 -1 -1 
3 -1 -1 
3 -1 -1 
3 -1 -1 
3 -1 -1 
3 -1 -1 
3 -1 -1 
3 -1 -1 
3 -1 -1 
3 -1 -1 
3 -1 -1 
3 -1 -1 
3 -1 -1 
3 -1 -1 
3 -1 -1 
3 -1 -1 
3 -1 -1 
3 -1 -1 
3 -1 -1 
3 -1 -1 
3 -1 -1 
3 -1 -1 
3 -1 -1 
3 -1 -1 
3 -1 -1 
3 -1 -1 
3 -1 -1 
3 -1 -1 
3 -1 -1 
3 -1 -1 
3 -1 -1 
3 -1 -1 
3 -1 -1 
3 -1 -1 
3 -1 -1 
3 -1 -1 
3 -1 -1 
3 -1 -1 
3 -1 -1 
3 -1 -1 
3 -1 -1 
3 -1 -1 
3 -1 -1 
3 -1 -1 
3 -1 -1 
3 -1 -1 
3 -1 -1 
3 -1 -1 
3 -1 -1 
3 -1 -1 
3 -1 -1 
3 -1 -1 
3 -1 -1 
3 -1 -1 
3 -1 -1 
3 -1 -1 
3 -1 -1 
3 -1 -1 
3 -1 -1 
3 -1 -1 
3 -1 -1 
3 -1 -1 
3 -1 -1 
3 -1 -1 
3 -1 -1 
3 -1 -1 
3 -1 -1 
3 -1 -1 
3 -1 -1 
3 -1 -1 
3 -1 -1 
3 -1 -1 
3 -1 -1 
3 -1 -1 
3 -1 -1 
3 -1 -1 
3 -1 -1 
3 -1 -1 
3 -1 -1 
3 -1 -1 
3 -1 -1 
3 -1 -1 
3 -1 -1 
3 -1 -1 
3 -1 -1 
3 -1 -1 
3 -1 -1 
3 -1 -1 
3 -1 -1 
3 -1 -1 
3 -1 -1 
3 -1 -1 
3 -1 -1 
3 -1 -1 
3 -1 -1 
3 -1 -1 
3 -1 -1 
3 -1 -1 
3 -1 -1 
3 -1 -1 
3 -1 -1 
3 -1 -1 
3 -1 -1 
3 -1 -1 
3 -1 -1 
3 -1 -1 
3 -1 -1 
3 -1 -1 
3 -1 -1 
3 -1 -1 
3 -1 -1 
3 -1 -1 
3 -1 -1 
3 -1 -1 
3 -1 -1 
3 -1 -1 
3 -1 -1 
3 -1 -1 
3 -1 -1 
3 -1 -1 
3 -1 -1 
3 -1 -1 
3 -1 -1 
3 -1 -1 
3 -1 -1 
3 -1 -1 
3 -1 -1 
3 -1 -1 
3 -1 -1 
3 -1 -1 
3 -1 -1 
3 -1 -1 
3 -1 -1 
3 -1 -1 
3 -1 -1 
3 -1 -1 
3 -1 -1 
3 -1 -1 
3 -1 -1 
3 -1 -1 
3 -1 -1 
3 -1 -1 
3 -1 -1 
3 -1 -1 
3 -1 -1 
3 -1 -1 
3 -1 -1 
3 -1 -1 
3 -1 -1 
3 -1 -1 
3 -1 -1 
3 -1 -1 
3 -1 -1 
3 -1 -1 
3 -1 -1 
3 -1 -1 
3 -1 -1 
3 -1 -1 
3 -1 -1 
3 -1 -1 
3 -1 -1 
3 -1 -1 
3 -1 -1 
3 -1 -1 
3 -1 -1 
3 -1 -1 
3 -1 -1 
3 -1 -1 
3 -1 -1 
3 -1 -1 
3 -1 -1 
3 -1 -1 
3 -1 -1 
3 -1 -1 
3 -1 -1 
3 -1 -1 
3 -1 -1 
3 -1 -1 
3 -1 -1 
3 -1 -1 
3 -1 -1 
3 -1 -1 
3 -1 -1 
3 -1 -1 
3 -1 -1 
3 -1 -1 
3 -1 -1 
3 -1 -1 
3 -1 -1 
3 -1 -1 
3 -1 -1 
3 -1 -1 
3 -1 -1 
3 -1 -1 
3 -1 -1 
3 -1 -1 
3 -1 -1 
3 -1 -1 
3 -1 -1 
3 -1 -1 
3 -1 -1 
3 -1 -1 
3 -1 -1 
3 -1 -1 
3 -1 -1 
3 -1 -1 
3 -1 -1 
3 -1 -1 
3 -1 -1 
3 -1 -1 
3 -1 -1 
3 -1 -1 
3 -1 -1 
3 -1 -1 
3 -1 -1 
3 -1 -1 
3 -1 -1 
3 -1 -1 
3 -1 -1 
3 -1 -1 
3 -1 -1 
3 -1 -1 
3 -1 -1 
3 -1 -1 
3 -1 -1 
3 -1 -1 
3 -1 -1 
3 -1 -1 
3 -1 -1 
3 -1 -1 
3 -1 -1 
3 -1 -1 
3 -1 -1 
3 -1 -1 
3 -1 -1 
3 -1 -1 
3 -1 -1 
3 -1 -1 
3 -1 -1 
3 -1 -1 
3 -1 -1 
3 -1 -1 
3 -1 -1 
3 -1 -1 
3 -1 -1 
3 -1 -1 
3 -1 -1 
3 -1 -1 
3 -1 -1 
3 -1 -1 
3 -1 -1 
3 -1 -1 
3 -1 -1 
3 -1 -1 
3 -1 -1 
3 -1 -1 
3 -1 -1 
3 -1 -1 
3 -1 -1 
3 -1 -1 
3 -1 -1 
3 -1 -1 
3 -1 -1 
3 -1 -1 
3 -1 -1 
3 -1 -1 
3 -1 -1 
3 -1 -1 
3 -1 -1 
3 -1 -1 
3 -1 -1 
3 -1 -1 
3 -1 -1 
3 -1 -1 
3 -1 -1 
3 -1 -1 
3 -1 -1 
3 -1 -1 
3 -1 -1 
3 -1 -1 
3 -1 -1 
3 -1 -1 
3 -1 -1 
3 -1 -1 
3 -1 -1 
3 -1 -1 
3 -1 -1 
3 -1 -1 
3 -1 -1 
3 -1 -1 
3 -1 -1 
3 -1 -1 
3 -1 -1 
3 -1 -1 
3 -1 -1 
3 -1 -1 
3 -1 -1 
3 -1 -1 
3 -1 -1 
3 -1 -1 
3 -1 -1 
3 -1 -1 
3 -1 -1 
3 -1 -1 
3 -1 -1 
3 -1 -1 
3 -1 -1 
3 -1 -1 
3 -1 -1 
3 -1 -1 
3 -1 -1 
3 -1 -1 
3 -1 -1 
3 -1 -1 
3 -1 -1 
3 -1 -1 
3 -1 -1 
3 -1 -1 
3 -1 -1 
3 -1 -1 
3 -1 -1 
3 -1 -1 
3 -1 -1 
3 -1 -1 
3 -1 -1 
3 -1 -1 
3 -1 -1 
3 -1 -1 
3 -1 -1 
3 -1 -1 
3 -1 -1 
3 -1 -1 
3 -1 -1 
3 -1 -1 
3 -1 -1 
3 -1 -1 
3 -1 -1 
3 -1 -1 
3 -1 -1 
3 -1 -1 
3 -1 -1 
3 -1 -1 
3 -1 -1 
3 -1 -1 
3 -1 -1 
3 -1 -1 
3 -1 -1 
3 -1 -1 
3 -1 -1 
3 -1 -1 
3 -1 -1 
3 -1 -1 
3 -1 -1 
3 -1 -1 
3 -1 -1 
3 -1 -1 
3 -1 -1 
3 -1 -1 
3 -1 -1 
3 -1 -1 
3 -1 -1 
3 -1 -1 
3 -1 -1 
3 -1 -1 
3 -1 -1 
3 -1 -1 
3 -1 -1 
3 -1 -1 
3 -1 -1 
3 -1 -1 
3 -1 -1 
3 -1 -1 
3 -1 -1 
3 -1 -1 
3 -1 -1 
3 -1 -1 
3 -1 -1 
3 -1 -1 
3 -1 -1 
3 -1 -1 
3 -1 -1 
3 -1 -1 
3 -1 -1 
3 -1 -1 
3 -1 -1 
3 -1 -1 
3 -1 -1 
3 -1 -1 
3 -1 -1 
3 -1 -1 
3 -1 -1 
3 -1 -1 
3 -1 -1 
3 -1 -1 
3 -1 -1 
3 -1 -1 
3 -1 -1 
3 -1 -1 
3 -1 -1 
3 -1 -1 
3 -1 -1 
3 -1 -1 
3 -1 -1 
3 -1 -1 
3 -1 -1 
3 -1 -1 
3 -1 -1 
3 -1 -1 
3 -1 -1 
3 -1 -1 
3 -1 -1 
3 -1 -1 
3 -1 -1 
3 -1 -1 
3 -1 -1 
3 -1 -1 
3 -1 -1 
3 -1 -1 
3 -1 -1 
3 -1 -1 
3 -1 -1 
3 -1 -1 
3 -1 -1 
3 -1 -1 
3 -1 -1 
3 -1 -1 
3 -1 -1 
3 -1 -1 
3 -1 -1 
3 -1 -1 
3 -1 -1 
3 -1 -1 
3 -1 -1 
3 -1 -1 
3 -1 -1 
3 -1 -1 
3 -1 -1 
3 -1 -1 
3 -1 -1 
3 -1 -1 
3 -1 -1 
3 -1 -1 
3 -1 -1 
3 -1 -1 
3 -1 -1 
3 -1 -1 
3 -1 -1 
3 -1 -1 
3 -1 -1 
3 -1 -1 
3 -1 -1 
3 -1 -1 
3 -1 -1 
3 -1 -1 
3 -1 -1 
3 -1 -1 
3 -1 -1 
3 -1 -1 
3 -1 -1 
3 -1 -1 
3 -1 -1 
3 -1 -1 
3 -1 -1 
3 -1 -1 
3 -1 -1 
3 -1 -1 
3 -1 -1 
3 -1 -1 
3 -1 -1 
3 -1 -1 
3 -1 -1 
3 -1 -1 
3 -1 -1 
3 -1 -1 
3 -1 -1 
3 -1 -1 
3 -1 -1 
3 -1 -1 
3 -1 -1 
3 -1 -1 
3 -1 -1 
3 -1 -1 
3 -1 -1 
3 -1 -1 
3 -1 -1 
3 -1 -1 
3 -1 -1 
3 -1 -1 
3 -1 -1 
3 -1 -1 
3 -1 -1 
3 -1 -1 
3 -1 -1 
3 -1 -1 
3 -1 -1 
3 -1 -1 
3 -1 -1 
3 -1 -1 
3 -1 -1 
3 -1 -1 
3 -1 -1 
3 -1 -1 
3 -1 -1 
3 -1 -1 
3 -1 -1 
3 -1 -1 
3 -1 -1 
3 -1 -1 
3 -1 -1 
3 -1 -1 
3 -1 -1 
3 -1 -1 
3 -1 -1 
3 -1 -1 
3 -1 -1 
3 -1 -1 
3 -1 -1 
3 -1 -1 
3 -1 -1 
3 -1 -1 
3 -1 -1 
3 -1 -1 
3 -1 -1 
3 -1 -1 
3 -1 -1 
3 -1 -1 
3 -1 -1 
3 -1 -1 
3 -1 -1 
3 -1 -1 
3 -1 -1 
3 -1 -1 
3 -1 -1 
3 -1 -1 
3 -1 -1 
3 -1 -1 
3 -1 -1 
3 -1 -1 
3 -1 -1 
3 -1 -1 
3 -1 -1 
3 -1 -1 
3 -1 -1 
3 -1 -1 
3 -1 -1 
3 -1 -1 
3 -1 -1 
3 -1 -1 
3 -1 -1 
3 -1 -1 
3 -1 -1 
3 -1 -1 
3 -1 -1 
3 -1 -1 
3 -1 -1 
3 -1 -1 
3 -1 -1 
3 -1 -1 
3 -1 -1 
3 -1 -1 
3 -1 -1 
3 -1 -1 
3 -1 -1 
3 -1 -1 
3 -1 -1 
3 -1 -1 
3 -1 -1 
3 -1 -1 
3 -1 -1 
3 -1 -1 
3 -1 -1 
3 -1 -1 
3 -1 -1 
3 -1 -1 
3 -1 -1 
3 -1 -1 
3 -1 -1 
3 -1 -1 
3 -1 -1 
3 -1 -1 
3 -1 -1 
3 -1 -1 
3 -1 -1 
3 -1 -1 
3 -1 -1 
3 -1 -1 
3 -1 -1 
3 -1 -1 
3 -1 -1 
3 -1 -1 
3 -1 -1 
3 -1 -1 
3 -1 -1 
3 -1 -1 
3 -1 -1 
3 -1 -1 
3 -1 -1 
3 -1 -1 
3 -1 -1 
3 -1 -1 
3 -1 -1 
3 -1 -1 
3 -1 -1 
3 -1 -1 
3 -1 -1 
3 -1 -1 
3 -1 -1 
3 -1 -1 
3 -1 -1 
3 -1 -1 
3 -1 -1 
3 -1 -1 
3 -1 -1 
3 -1 -1 
3 -1 -1 
3 -1 -1 
3 -1 -1 
3 -1 -1 
3 -1 -1 
3 -1 -1 
3 -1 -1 
3 -1 -1 
3 -1 -1 
3 -1 -1 
3 -1 -1 
3 -1 -1 
3 -1 -1 
3 -1 -1 
3 -1 -1 
3 -1 -1 
3 -1 -1 
3 -1 -1 
3 -1 -1 
3 -1 -1 
3 -1 -1 
3 -1 -1 
3 -1 -1 
3 -1 -1 
3 -1 -1 
3 -1 -1 
3 -1 -1 
3 -1 -1 
3 -1 -1 
3 -1 -1 
3 -1 -1 
3 -1 -1 
3 -1 -1 
3 -1 -1 
3 -1 -1 
3 -1 -1 
3 -1 -1 
3 -1 -1 
3 -1 -1 
3 -1 -1 
3 -1 -1 
3 -1 -1 
3 -1 -1 
3 -1 -1 
3 -1 -1 
3 -1 -1 
3 -1 -1 
3 -1 -1 
3 -1 -1 
3 -1 -1 
3 -1 -1 
3 -1 -1 
3 -1 -1 
3 -1 -1 
3 -1 -1 
3 -1 -1 
3 -1 -1 
3 -1 -1 
3 -1 -1 
3 -1 -1 
3 -1 -1 
3 -1 -1 
3 -1 -1 
3 -1 -1 
3 -1 -1 
3 -1 -1 
3 -1 -1 
3 -1 -1 
3 -1 -1 
3 -1 -1 
3 -1 -1 
3 -1 -1 
3 -1 -1 
3 -1 -1 
3 -1 -1 
3 -1 -1 
3 -1 -1 
3 -1 -1 
3 -1 -1 
3 -1 -1 
3 -1 -1 
3 -1 -1 
3 -1 -1 
3 -1 -1 
3 -1 -1 
3 -1 -1 
3 -1 -1 
3 -1 -1 
3 -1 -1 
3 -1 -1 
3 -1 -1 
3 -1 -1 
3 -1 -1 
3 -1 -1 
3 -1 -1 
3 -1 -1 
3 -1 -1 
3 -1 -1 
3 -1 -1 
3 -1 -1 
3 -1 -1 
3 -1 -1 
3 -1 -1 
3 -1 -1 
3 -1 -1 
3 -1 -1 
3 -1 -1 
3 -1 -1 
3 -1 -1 
3 -1 -1 
3 -1 -1 
3 -1 -1 
3 -1 -1 
3 -1 -1 
3 -1 -1 
3 -1 -1 
3 -1 -1 
3 -1 -1 
3 -1 -1 
3 -1 -1 
3 -1 -1 
3 -1 -1 
3 -1 -1 
3 -1 -1 
3 -1 -1 
3 -1 -1 
3 -1 -1 
3 -1 -1 
3 -1 -1 
3 -1 -1 
3 -1 -1 
3 -1 -1 
3 -1 -1 
3 -1 -1 
3 -1 -1 
3 -1 -1 
3 -1 -1 
3 -1 -1 
3 -1 -1 
3 -1 -1 
3 -1 -1 
3 -1 -1 
3 -1 -1 
3 -1 -1 
3 -1 -1 
3 -1 -1 
3 -1 -1 
3 -1 -1 
3 -1 -1 
3 -1 -1 
3 -1 -1 
3 -1 -1 
3 -1 -1 
3 -1 -1 
3 -1 -1 
3 -1 -1 
3 -1 -1 
3 -1 -1 
3 -1 -1 
3 -1 -1 
3 -1 -1 
3 -1 -1 
3 -1 -1 
3 -1 -1 
3 -1 -1 
3 -1 -1 
3 -1 -1 
3 -1 -1 
3 -1 -1 
3 -1 -1 
3 -1 -1 
3 -1 -1 
3 -1 -1 
3 -1 -1 
3 -1 -1 
3 -1 -1 
3 -1 -1 
3 -1 -1 
3 -1 -1 
3 -1 -1 
3 -1 -1 
3 -1 -1 
3 -1 -1 
3 -1 -1 
3 -1 -1 
3 -1 -1 
3 -1 -1 
3 -1 -1 
3 -1 -1 
3 -1 -1 
3 -1 -1 
3 -1 -1 
3 -1 -1 
3 -1 -1 
3 -1 -1 
3 -1 -1 
3 -1 -1 
3 -1 -1 
3 -1 -1 
3 -1 -1 
3 -1 -1 
3 -1 -1 
3 -1 -1 
3 -1 -1 
3 -1 -1 
3 -1 -1 
3 -1 -1 
3 -1 -1 
3 -1 -1 
3 -1 -1 
3 -1 -1 
3 -1 -1 
3 -1 -1 
3 -1 -1 
3 -1 -1 
3 -1 -1 
3 -1 -1 
3 -1 -1 
3 -1 -1 
3 -1 -1 
3 -1 -1 
3 -1 -1 
3 -1 -1 
3 -1 -1 
3 -1 -1 
3 -1 -1 
3 -1 -1 
3 -1 -1 
3 -1 -1 
3 -1 -1 
3 -1 -1 
3 -1 -1 
3 -1 -1 
3 -1 -1 
3 -1 -1 
3 -1 -1 
3 -1 -1 
3 -1 -1 
3 -1 -1 
3 -1 -1 
3 -1 -1 
3 -1 -1 
3 -1 -1 
3 -1 -1 
3 -1 -1 
3 -1 -1 
3 -1 -1 
3 -1 -1 
3 -1 -1 
3 -1 -1 
3 -1 -1 
3 -1 -1 
3 -1 -1 
3 -1 -1 
3 -1 -1 
3 -1 -1 
3 -1 -1 
3 -1 -1 
3 -1 -1 
3 -1 -1 
3 -1 -1 
3 -1 -1 
3 -1 -1 
3 -1 -1 
3 -1 -1 
3 -1 -1 
3 -1 -1 
3 -1 -1 
3 -1 -1 
3 -1 -1 
3 -1 -1 
3 -1 -1 
3 -1 -1 
3 -1 -1 
3 -1 -1 
3 -1 -1 
3 -1 -1 
3 -1 -1 
3 -1 -1 
3 -1 -1 
3 -1 -1 
3 -1 -1 
3 -1 -1 
3 -1 -1 
3 -1 -1 
3 -1 -1 
3 -1 -1 
3 -1 -1 
3 -1 -1 
3 -1 -1 
3 -1 -1 
3 -1 -1 
3 -1 -1 
3 -1 -1 
3 -1 -1 
3 -1 -1 
3 -1 -1 
3 -1 -1 
3 -1 -1 
3 -1 -1 
3 -1 -1 
3 -1 -1 
3 -1 -1 
3 -1 -1 
3 -1 -1 
3 -1 -1 
3 -1 -1 
3 -1 -1 
3 -1 -1 
3 -1 -1 
3 -1 -1 
3 -1 -1 
3 -1 -1 
3 -1 -1 
3 -1 -1 
3 -1 -1 
3 -1 -1 
3 -1 -1 
3 -1 -1 
3 -1 -1 
3 -1 -1 
3 -1 -1 
3 -1 -1 
3 -1 -1 
3 -1 -1 
3 -1 -1 
3 -1 -1 
3 -1 -1 
3 -1 -1 
3 -1 -1 
3 -1 -1 
3 -1 -1 
3 -1 -1 
3 -1 -1 
3 -1 -1 
3 -1 -1 
3 -1 -1 
3 -1 -1 
3 -1 -1 
3 -1 -1 
3 -1 -1 
3 -1 -1 
3 -1 -1 
3 -1 -1 
3 -1 -1 
3 -1 -1 
3 -1 -1 
3 -1 -1 
3 -1 -1 
3 -1 -1 
3 -1 -1 
3 -1 -1 
3 -1 -1 
3 -1 -1 
3 -1 -1 
3 -1 -1 
3 -1 -1 
3 -1 -1 
3 -1 -1 
3 -1 -1 
3 -1 -1 
3 -1 -1 
3 -1 -1 
3 -1 -1 
3 -1 -1 
3 -1 -1 
3 -1 -1 
3 -1 -1 
3 -1 -1 
3 -1 -1 
3 -1 -1 
3 -1 -1 
3 -1 -1 
3 -1 -1 
3 -1 -1 
3 -1 -1 
3 -1 -1 
3 -1 -1 
3 -1 -1 
3 -1 -1 
3 -1 -1 
3 -1 -1 
3 -1 -1 
3 -1 -1 
3 -1 -1 
3 -1 -1 
3 -1 -1 
3 -1 -1 
3 -1 -1 
3 -1 -1 
3 -1 -1 
3 -1 -1 
3 -1 -1 
3 -1 -1 
3 -1 -1 
3 -1 -1 
3 -1 -1 
3 -1 -1 
3 -1 -1 
3 -1 -1 
3 -1 -1 
3 -1 -1 
3 -1 -1 
3 -1 -1 
3 -1 -1 
3 -1 -1 
3 -1 -1 
3 -1 -1 
3 -1 -1 
3 -1 -1 
3 -1 -1 
3 -1 -1 
3 -1 -1 
3 -1 -1 
3 -1 -1 
3 -1 -1 
3 -1 -1 
3 -1 -1 
3 -1 -1 
3 -1 -1 
3 -1 -1 
3 -1 -1 
3 -1 -1 
3 -1 -1 
3 -1 -1 
3 -1 -1 
3 -1 -1 
3 -1 -1 
3 -1 -1 
3 -1 -1 
3 -1 -1 
3 -1 -1 
3 -1 -1 
3 -1 -1 
3 -1 -1 
3 -1 -1 
3 -1 -1 
3 -1 -1 
3 -1 -1 
3 -1 -1 
3 -1 -1 
3 -1 -1 
3 -1 -1 
3 -1 -1 
3 -1 -1 
3 -1 -1 
3 -1 -1 
3 -1 -1 
3 -1 -1 
3 -1 -1 
3 -1 -1 
3 -1 -1 
3 -1 -1 
3 -1 -1 
3 -1 -1 
3 -1 -1 
3 -1 -1 
3 -1 -1 
3 -1 -1 
3 -1 -1 
3 -1 -1 
3 -1 -1 
3 -1 -1 
3 -1 -1 
3 -1 -1 
3 -1 -1 
3 -1 -1 
3 -1 -1 
3 -1 -1 
3 -1 -1 
3 -1 -1 
3 -1 -1 
3 -1 -1 
3 -1 -1 
3 -1 -1 
3 -1 -1 
3 -1 -1 
3 -1 -1 
3 -1 -1 
3 -1 -1 
3 -1 -1 
3 -1 -1 
3 -1 -1 
3 -1 -1 
3 -1 -1 
3 -1 -1 
3 -1 -1 
3 -1 -1 
3 -1 -1 
3 -1 -1 
3 -1 -1 
3 -1 -1 
3 -1 -1 
3 -1 -1 
3 -1 -1 
3 -1 -1 
3 -1 -1 
3 -1 -1 
3 -1 -1 
3 -1 -1 
3 -1 -1 
3 -1 -1 
3 -1 -1 
3 -1 -1 
3 -1 -1 
3 -1 -1 
3 -1 -1 
3 -1 -1 
3 -1 -1 
3 -1 -1 
3 -1 -1 
3 -1 -1 
3 -1 -1 
3 -1 -1 
3 -1 -1 
3 -1 -1 
3 -1 -1 
3 -1 -1 
3 -1 -1 
3 -1 -1 
3 -1 -1 
3 -1 -1 
3 -1 -1 
3 -1 -1 
3 -1 -1 
3 -1 -1 
3 -1 -1 
3 -1 -1 
3 -1 -1 
3 -1 -1 
3 -1 -1 
3 -1 -1 
3 -1 -1 
3 -1 -1 
3 -1 -1 
3 -1 -1 
3 -1 -1 
3 -1 -1 
3 -1 -1 
3 -1 -1 
3 -1 -1 
3 -1 -1 
3 -1 -1 
3 -1 -1 
3 -1 -1 
3 -1 -1 
3 -1 -1 
3 -1 -1 
3 -1 -1 
3 -1 -1 
3 -1 -1 
3 -1 -1 
3 -1 -1 
3 -1 -1 
3 -1 -1 
3 -1 -1 
3 -1 -1 
3 -1 -1 
3 -1 -1 
3 -1 -1 
3 -1 -1 
3 -1 -1 
3 -1 -1 
3 -1 -1 
3 -1 -1 
3 -1 -1 
3 -1 -1 
3 -1 -1 
3 -1 -1 
3 -1 -1 
3 -1 -1 
3 -1 -1 
3 -1 -1 
3 -1 -1 
3 -1 -1 
3 -1 -1 
3 -1 -1 
3 -1 -1 
3 -1 -1 
3 -1 -1 
3 -1 -1 
3 -1 -1 
3 -1 -1 
3 -1 -1 
3 -1 -1 
3 -1 -1 
3 -1 -1 
3 -1 -1 
3 -1 -1 
3 -1 -1 
3 -1 -1 
3 -1 -1 
3 -1 -1 
3 -1 -1 
3 -1 -1 
3 -1 -1 
3 -1 -1 
3 -1 -1 
3 -1 -1 
3 -1 -1 
3 -1 -1 
3 -1 -1 
3 -1 -1 
3 -1 -1 
3 -1 -1 
3 -1 -1 
3 -1 -1 
3 -1 -1 
3 -1 -1 
3 -1 -1 
3 -1 -1 
3 -1 -1 
3 -1 -1 
3 -1 -1 
3 -1 -1 
3 -1 -1 
3 -1 -1 
3 -1 -1 
3 -1 -1 
3 -1 -1 
3 -1 -1 
3 -1 -1 
3 -1 -1 
3 -1 -1 
3 -1 -1 
3 -1 -1 
3 -1 -1 
3 -1 -1 
3 -1 -1 
3 -1 -1 
3 -1 -1 
3 -1 -1 
3 -1 -1 
3 -1 -1 
3 -1 -1 
3 -1 -1 
3 -1 -1 
3 -1 -1 
3 -1 -1 
3 -1 -1 
3 -1 -1 
3 -1 -1 
3 -1 -1 
3 -1 -1 
3 -1 -1 
3 -1 -1 
3 -1 -1 
3 -1 -1 
3 -1 -1 
3 -1 -1 
3 -1 -1 
3 -1 -1 
3 -1 -1 
3 -1 -1 
3 -1 -1 
3 -1 -1 
3 -1 -1 
3 -1 -1 
3 -1 -1 
3 -1 -1 
3 -1 -1 
3 -1 -1 
3 -1 -1 
3 -1 -1 
3 -1 -1 
3 -1 -1 
3 -1 -1 
3 -1 -1 
3 -1 -1 
3 -1 -1 
3 -1 -1 
3 -1 -1 
3 -1 -1 
3 -1 -1 
3 -1 -1 
3 -1 -1 
3 -1 -1 
3 -1 -1 
3 -1 -1 
3 -1 -1 
3 -1 -1 
3 -1 -1 
3 -1 -1 
3 -1 -1 
3 -1 -1 
3 -1 -1 
3 -1 -1 
3 -1 -1 
3 -1 -1 
3 -1 -1 
3 -1 -1 
3 -1 -1 
3 -1 -1 
3 -1 -1 
3 -1 -1 
3 -1 -1 
3 -1 -1 
3 -1 -1 
3 -1 -1 
3 -1 -1 
3 -1 -1 
3 -1 -1 
3 -1 -1 
3 -1 -1 
3 -1 -1 
3 -1 -1 
3 -1 -1 
3 -1 -1 
3 -1 -1 
3 -1 -1 
3 -1 -1 
3 -1 -1 
3 -1 -1 
3 -1 -1 
3 -1 -1 
3 -1 -1 
3 -1 -1 
3 -1 -1 
3 -1 -1 
3 -1 -1 
3 -1 -1 
3 -1 -1 
3 -1 -1 
3 -1 -1 
3 -1 -1 
3 -1 -1 
3 -1 -1 
3 -1 -1 
3 -1 -1 
3 -1 -1 
3 -1 -1 
3 -1 -1 
3 -1 -1 
3 -1 -1 
3 -1 -1 
3 -1 -1 
3 -1 -1 
3 -1 -1 
3 -1 -1 
3 -1 -1 
3 -1 -1 
3 -1 -1 
3 -1 -1 
3 -1 -1 
3 -1 -1 
3 -1 -1 
3 -1 -1 
3 -1 -1 
3 -1 -1 
3 -1 -1 
3 -1 -1 
3 -1 -1 
3 -1 -1 
3 -1 -1 
3 -1 -1 
3 -1 -1 
3 -1 -1 
3 -1 -1 
3 -1 -1 
3 -1 -1 
3 -1 -1 
3 -1 -1 
3 -1 -1 
3 -1 -1 
3 -1 -1 
3 -1 -1 
3 -1 -1 
3 -1 -1 
3 -1 -1 
3 -1 -1 
3 -1 -1 
3 -1 -1 
3 -1 -1 
3 -1 -1 
3 -1 -1 
3 -1 -1 
3 -1 -1 
3 -1 -1 
3 -1 -1 
3 -1 -1 
3 -1 -1 
3 -1 -1 
3 -1 -1 
3 -1 -1 
3 -1 -1 
3 -1 -1 
3 -1 -1 
3 -1 -1 
3 -1 -1 
3 -1 -1 
3 -1 -1 
3 -1 -1 
3 -1 -1 
3 -1 -1 
3 -1 -1 
3 -1 -1 
3 -1 -1 
3 -1 -1 
3 -1 -1 
3 -1 -1 
3 -1 -1 
3 -1 -1 
3 -1 -1 
3 -1 -1 
3 -1 -1 
3 -1 -1 
3 -1 -1 
3 -1 -1 
3 -1 -1 
3 -1 -1 
3 -1 -1 
3 -1 -1 
3 -1 -1 
3 -1 -1 
3 -1 -1 
3 -1 -1 
3 -1 -1 
3 -1 -1 
3 -1 -1 
3 -1 -1 
3 -1 -1 
3 -1 -1 
3 -1 -1 
3 -1 -1 
3 -1 -1 
3 -1 -1 
3 -1 -1 
3 -1 -1 
3 -1 -1 
3 -1 -1 
3 -1 -1 
3 -1 -1 
3 -1 -1 
3 -1 -1 
3 -1 -1 
3 -1 -1 
3 -1 -1 
3 -1 -1 
3 -1 -1 
3 -1 -1 
3 -1 -1 
3 -1 -1 
3 -1 -1 
3 -1 -1 
3 -1 -1 
3 -1 -1 
3 -1 -1 
3 -1 -1 
3 -1 -1 
3 -1 -1 
3 -1 -1 
3 -1 -1 
3 -1 -1 
3 -1 -1 
3 -1 -1 
3 -1 -1 
3 -1 -1 
3 -1 -1 
3 -1 -1 
3 -1 -1 
3 -1 -1 
3 -1 -1 
3 -1 -1 
3 -1 -1 
3 -1 -1 
3 -1 -1 
3 -1 -1 
3 -1 -1 
3 -1 -1 
3 -1 -1 
3 -1 -1 
3 -1 -1 
3 -1 -1 
3 -1 -1 
3 -1 -1 
3 -1 -1 
3 -1 -1 
3 -1 -1 
3 -1 -1 
3 -1 -1 
3 -1 -1 
3 -1 -1 
3 -1 -1 
3 -1 -1 
3 -1 -1 
3 -1 -1 
3 -1 -1 
3 -1 -1 
3 -1 -1 
3 -1 -1 
3 -1 -1 
3 -1 -1 
3 -1 -1 
3 -1 -1 
3 -1 -1 
3 -1 -1 
3 -1 -1 
3 -1 -1 
3 -1 -1 
3 -1 -1 
3 -1 -1 
3 -1 -1 
3 -1 -1 
3 -1 -1 
3 -1 -1 
3 -1 -1 
3 -1 -1 
3 -1 -1 
3 -1 -1 
3 -1 -1 
3 -1 -1 
3 -1 -1 
3 -1 -1 
3 -1 -1 
3 -1 -1 
3 -1 -1 
3 -1 -1 
3 -1 -1 
3 -1 -1 
3 -1 -1 
3 -1 -1 
3 -1 -1 
3 -1 -1 
3 -1 -1 
3 -1 -1 
3 -1 -1 
3 -1 -1 
3 -1 -1 
3 -1 -1 
3 -1 -1 
3 -1 -1 
3 -1 -1 
3 -1 -1 
3 -1 -1 
3 -1 -1 
3 -1 -1 
3 -1 -1 
3 -1 -1 
3 -1 -1 
3 -1 -1 
3 -1 -1 
3 -1 -1 
3 -1 -1 
3 -1 -1 
3 -1 -1 
3 -1 -1 
3 -1 -1 
3 -1 -1 
3 -1 -1 
3 -1 -1 
3 -1 -1 
3 -1 -1 
3 -1 -1 
3 -1 -1 
3 -1 -1 
3 -1 -1 
3 -1 -1 
3 -1 -1 
3 -1 -1 
3 -1 -1 
3 -1 -1 
3 -1 -1 
3 -1 -1 
3 -1 -1 
3 -1 -1 
3 -1 -1 
3 -1 -1 
3 -1 -1 
3 -1 -1 
3 -1 -1 
3 -1 -1 
3 -1 -1 
3 -1 -1 
3 -1 -1 
3 -1 -1 
3 -1 -1 
3 -1 -1 
3 -1 -1 
3 -1 -1 
3 -1 -1 
3 -1 -1 
3 -1 -1 
3 -1 -1 
3 -1 -1 
3 -1 -1 
3 -1 -1 
3 -1 -1 
3 -1 -1 
3 -1 -1 
3 -1 -1 
3 -1 -1 
3 -1 -1 
3 -1 -1 
3 -1 -1 
3 -1 -1 
3 -1 -1 
3 -1 -1 
3 -1 -1 
3 -1 -1 
3 -1 -1 
3 -1 -1 
3 -1 -1 
3 -1 -1 
3 -1 -1 
3 -1 -1 
3 -1 -1 
3 -1 -1 
3 -1 -1 
3 -1 -1 
3 -1 -1 
3 -1 -1 
3 -1 -1 
3 -1 -1 
3 -1 -1 
3 -1 -1 
3 -1 -1 
3 -1 -1 
3 -1 -1 
3 -1 -1 
3 -1 -1 
3 -1 -1 
3 -1 -1 
3 -1 -1 
3 -1 -1 
3 -1 -1 
3 -1 -1 
3 -1 -1 
3 -1 -1 
3 -1 -1 
3 -1 -1 
3 -1 -1 
3 -1 -1 
3 -1 -1 
3 -1 -1 
3 -1 -1 
3 -1 -1 
3 -1 -1 
3 -1 -1 
3 -1 -1 
3 -1 -1 
3 -1 -1 
3 -1 -1 
3 -1 -1 
3 -1 -1 
3 -1 -1 
3 -1 -1 
3 -1 -1 
3 -1 -1 
3 -1 -1 
3 -1 -1 
3 -1 -1 
3 -1 -1 
3 -1 -1 
3 -1 -1 
3 -1 -1 
3 -1 -1 
3 -1 -1 
3 -1 -1 
3 -1 -1 
3 -1 -1 
3 -1 -1 
3 -1 -1 
3 -1 -1 
3 -1 -1 
3 -1 -1 
3 -1 -1 
3 -1 -1 
3 -1 -1 
3 -1 -1 
3 -1 -1 
3 -1 -1 
3 -1 -1 
3 -1 -1 
3 -1 -1 
3 -1 -1 
3 -1 -1 
3 -1 -1 
3 -1 -1 
3 -1 -1 
3 -1 -1 
3 -1 -1 
3 -1 -1 
3 -1 -1 
3 -1 -1 
3 -1 -1 
3 -1 -1 
3 -1 -1 
3 -1 -1 
3 -1 -1 
3 -1 -1 
3 -1 -1 
3 -1 -1 
3 -1 -1 
3 -1 -1 
3 -1 -1 
3 -1 -1 
3 -1 -1 
3 -1 -1 
3 -1 -1 
3 -1 -1 
3 -1 -1 
3 -1 -1 
3 -1 -1 
3 -1 -1 
3 -1 -1 
3 -1 -1 
3 -1 -1 
3 -1 -1 
3 -1 -1 
3 -1 -1 
3 -1 -1 
3 -1 -1 
3 -1 -1 
3 -1 -1 
3 -1 -1 
3 -1 -1 
3 -1 -1 
3 -1 -1 
3 -1 -1 
3 -1 -1 
3 -1 -1 
3 -1 -1 
3 -1 -1 
3 -1 -1 
3 -1 -1 
3 -1 -1 
3 -1 -1 
3 -1 -1 
3 -1 -1 
3 -1 -1 
3 -1 -1 
3 -1 -1 
3 -1 -1 
3 -1 -1 
3 -1 -1 
3 -1 -1 
3 -1 -1 
3 -1 -1 
3 -1 -1 
3 -1 -1 
3 -1 -1 
3 -1 -1 
3 -1 -1 
3 -1 -1 
3 -1 -1 
3 -1 -1 
3 -1 -1 
3 -1 -1 
3 -1 -1 
3 -1 -1 
3 -1 -1 
3 -1 -1 
3 -1 -1 
3 -1 -1 
3 -1 -1 
3 -1 -1 
3 -1 -1 
3 -1 -1 
3 -1 -1 
3 -1 -1 
3 -1 -1 
3 -1 -1 
3 -1 -1 
3 -1 -1 
3 -1 -1 
3 -1 -1 
3 -1 -1 
3 -1 -1 
3 -1 -1 
3 -1 -1 
3 -1 -1 
3 -1 -1 
3 -1 -1 
3 -1 -1 
3 -1 -1 
3 -1 -1 
3 -1 -1 
3 -1 -1 
3 -1 -1 
3 -1 -1 
3 -1 -1 
3 -1 -1 
3 -1 -1 
3 -1 -1 
3 -1 -1 
3 -1 -1 
3 -1 -1 
3 -1 -1 
3 -1 -1 
3 -1 -1 
3 -1 -1 
3 -1 -1 
3 -1 -1 
3 -1 -1 
3 -1 -1 
3 -1 -1 
3 -1 -1 
3 -1 -1 
3 -1 -1 
3 -1 -1 
3 -1 -1 
3 -1 -1 
3 -1 -1 
3 -1 -1 
3 -1 -1 
3 -1 -1 
3 -1 -1 
3 -1 -1 
3 -1 -1 
3 -1 -1 
3 -1 -1 
3 -1 -1 
3 -1 -1 
3 -1 -1 
3 -1 -1 
3 -1 -1 
3 -1 -1 
3 -1 -1 
3 -1 -1 
3 -1 -1 
3 -1 -1 
3 -1 -1 
3 -1 -1 
3 -1 -1 
3 -1 -1 
3 -1 -1 
3 -1 -1 
3 -1 -1 
3 -1 -1 
3 -1 -1 
3 -1 -1 
3 -1 -1 
3 -1 -1 
3 -1 -1 
3 -1 -1 
3 -1 -1 
3 -1 -1 
3 -1 -1 
3 -1 -1 
3 -1 -1 
3 -1 -1 
3 -1 -1 
3 -1 -1 
3 -1 -1 
3 -1 -1 
3 -1 -1 
3 -1 -1 
3 -1 -1 
3 -1 -1 
3 -1 -1 
3 -1 -1 
3 -1 -1 
3 -1 -1 
3 -1 -1 
3 -1 -1 
3 -1 -1 
3 -1 -1 
3 -1 -1 
3 -1 -1 
3 -1 -1 
3 -1 -1 
3 -1 -1 
3 -1 -1 
3 -1 -1 
3 -1 -1 
3 -1 -1 
3 -1 -1 
3 -1 -1 
3 -1 -1 
3 -1 -1 
3 -1 -1 
3 -1 -1 
3 -1 -1 
3 -1 -1 
3 -1 -1 
3 -1 -1 
3 -1 -1 
3 -1 -1 
3 -1 -1 
3 -1 -1 
3 -1 -1 
3 -1 -1 
3 -1 -1 
3 -1 -1 
3 -1 -1 
3 -1 -1 
3 -1 -1 
3 -1 -1 
3 -1 -1 
3 -1 -1 
3 -1 -1 
3 -1 -1 
3 -1 -1 
3 -1 -1 
3 -1 -1 
3 -1 -1 
3 -1 -1 
3 -1 -1 
3 -1 -1 
3 -1 -1 
3 -1 -1 
3 -1 -1 
3 -1 -1 
3 -1 -1 
3 -1 -1 
3 -1 -1 
3 -1 -1 
3 -1 -1 
3 -1 -1 
3 -1 -1 
3 -1 -1 
3 -1 -1 
3 -1 -1 
3 -1 -1 
3 -1 -1 
3 -1 -1 
3 -1 -1 
3 -1 -1 
3 -1 -1 
3 -1 -1 
3 -1 -1 
3 -1 -1 
3 -1 -1 
3 -1 -1 
3 -1 -1 
3 -1 -1 
3 -1 -1 
3 -1 -1 
3 -1 -1 
3 -1 -1 
3 -1 -1 
3 -1 -1 
3 -1 -1 
3 -1 -1 
3 -1 -1 
3 -1 -1 
3 -1 -1 
3 -1 -1 
3 -1 -1 
3 -1 -1 
3 -1 -1 
3 -1 -1 
3 -1 -1 
3 -1 -1 
3 -1 -1 
3 -1 -1 
3 -1 -1 
3 -1 -1 
3 -1 -1 
3 -1 -1 
3 -1 -1 
3 -1 -1 
3 -1 -1 
3 -1 -1 
3 -1 -1 
3 -1 -1 
3 -1 -1 
3 -1 -1 
3 -1 -1 
3 -1 -1 
3 -1 -1 
3 -1 -1 
3 -1 -1 
3 -1 -1 
3 -1 -1 
3 -1 -1 
3 -1 -1 
3 -1 -1 
3 -1 -1 
3 -1 -1 
3 -1 -1 
3 -1 -1 
3 -1 -1 
3 -1 -1 
3 -1 -1 
3 -1 -1 
3 -1 -1 
3 -1 -1 
3 -1 -1 
3 -1 -1 
3 -1 -1 
3 -1 -1 
3 -1 -1 
3 -1 -1 
3 -1 -1 
3 -1 -1 
3 -1 -1 
3 -1 -1 
3 -1 -1 
3 -1 -1 
3 -1 -1 
3 -1 -1 
3 -1 -1 
3 -1 -1 
3 -1 -1 
3 -1 -1 
3 -1 -1 
3 -1 -1 
3 -1 -1 
3 -1 -1 
3 -1 -1 
3 -1 -1 
3 -1 -1 
3 -1 -1 
3 -1 -1 
3 -1 -1 
3 -1 -1 
3 -1 -1 
3 -1 -1 
3 -1 -1 
3 -1 -1 
3 -1 -1 
3 -1 -1 
3 -1 -1 
3 -1 -1 
3 -1 -1 
3 -1 -1 
3 -1 -1 
3 -1 -1 
3 -1 -1 
3 -1 -1 
3 -1 -1 
3 -1 -1 
3 -1 -1 
3 -1 -1 
3 -1 -1 
3 -1 -1 
3 -1 -1 
3 -1 -1 
3 -1 -1 
3 -1 -1 
3 -1 -1 
3 -1 -1 
3 -1 -1 
3 -1 -1 
3 -1 -1 
3 -1 -1 
3 -1 -1 
3 -1 -1 
3 -1 -1 
3 -1 -1 
3 -1 -1 
3 -1 -1 
3 -1 -1 
3 -1 -1 
3 -1 -1 
3 -1 -1 
3 -1 -1 
3 -1 -1 
3 -1 -1 
3 -1 -1 
3 -1 -1 
3 -1 -1 
3 -1 -1 
3 -1 -1 
3 -1 -1 
3 -1 -1 
3 -1 -1 
3 -1 -1 
3 -1 -1 
3 -1 -1 
3 -1 -1 
3 -1 -1 
3 -1 -1 
3 -1 -1 
3 -1 -1 
3 -1 -1 
3 -1 -1 
3 -1 -1 
3 -1 -1 
3 -1 -1 
3 -1 -1 
3 -1 -1 
3 -1 -1 
3 -1 -1 
3 -1 -1 
3 -1 -1 
3 -1 -1 
3 -1 -1 
3 -1 -1 
3 -1 -1 
3 -1 -1 
3 -1 -1 
3 -1 -1 
3 -1 -1 
3 -1 -1 
3 -1 -1 
3 -1 -1 
3 -1 -1 
3 -1 -1 
3 -1 -1 
3 -1 -1 
3 -1 -1 
3 -1 -1 
3 -1 -1 
3 -1 -1 
3 -1 -1 
3 -1 -1 
3 -1 -1 
3 -1 -1 
3 -1 -1 
3 -1 -1 
3 -1 -1 
3 -1 -1 
3 -1 -1 
3 -1 -1 
3 -1 -1 
3 -1 -1 
3 -1 -1 
3 -1 -1 
3 -1 -1 
3 -1 -1 
3 -1 -1 
3 -1 -1 
3 -1 -1 
3 -1 -1 
3 -1 -1 
3 -1 -1 
3 -1 -1 
3 -1 -1 
3 -1 -1 
3 -1 -1 
3 -1 -1 
3 -1 -1 
3 -1 -1 
3 -1 -1 
3 -1 -1 
3 -1 -1 
3 -1 -1 
3 -1 -1 
3 -1 -1 
3 -1 -1 
3 -1 -1 
3 -1 -1 
3 -1 -1 
3 -1 -1 
3 -1 -1 
3 -1 -1 
3 -1 -1 
3 -1 -1 
3 -1 -1 
3 -1 -1 
3 -1 -1 
3 -1 -1 
3 -1 -1 
3 -1 -1 
3 -1 -1 
3 -1 -1 
3 -1 -1 
3 -1 -1 
3 -1 -1 
3 -1 -1 
3 -1 -1 
3 -1 -1 
3 -1 -1 
3 -1 -1 
3 -1 -1 
3 -1 -1 
3 -1 -1 
3 -1 -1 
3 -1 -1 
3 -1 -1 
3 -1 -1 
3 -1 -1 
3 -1 -1 
3 -1 -1 
3 -1 -1 
3 -1 -1 
3 -1 -1 
3 -1 -1 
3 -1 -1 
3 -1 -1 
3 -1 -1 
3 -1 -1 
3 -1 -1 
3 -1 -1 
3 -1 -1 
3 -1 -1 
3 -1 -1 
3 -1 -1 
3 -1 -1 
3 -1 -1 
3 -1 -1 
3 -1 -1 
3 -1 -1 
3 -1 -1 
3 -1 -1 
3 -1 -1 
3 -1 -1 
3 -1 -1 
3 -1 -1 
3 -1 -1 
3 -1 -1 
3 -1 -1 
3 -1 -1 
3 -1 -1 
3 -1 -1 
3 -1 -1 
3 -1 -1 
3 -1 -1 
3 -1 -1 
3 -1 -1 
3 -1 -1 
3 -1 -1 
3 -1 -1 
3 -1 -1 
3 -1 -1 
3 -1 -1 
3 -1 -1 
3 -1 -1 
3 -1 -1 
3 -1 -1 
3 -1 -1 
3 -1 -1 
3 -1 -1 
3 -1 -1 
3 -1 -1 
3 -1 -1 
3 -1 -1 
3 -1 -1 
3 -1 -1 
3 -1 -1 
3 -1 -1 
3 -1 -1 
3 -1 -1 
3 -1 -1 
3 -1 -1 
3 -1 -1 
3 -1 -1 
3 -1 -1 
3 -1 -1 
3 -1 -1 
3 -1 -1 
3 -1 -1 
3 -1 -1 
3 -1 -1 
3 -1 -1 
3 -1 -1 
3 -1 -1 
3 -1 -1 
3 -1 -1 
3 -1 -1 
3 -1 -1 
3 -1 -1 
3 -1 -1 
3 -1 -1 
3 -1 -1 
3 -1 -1 
3 -1 -1 
3 -1 -1 
3 -1 -1 
3 -1 -1 
3 -1 -1 
3 -1 -1 
3 -1 -1 
3 -1 -1 
3 -1 -1 
3 -1 -1 
3 -1 -1 
3 -1 -1 
3 -1 -1 
3 -1 -1 
3 -1 -1 
3 -1 -1 
3 -1 -1 
3 -1 -1 
3 -1 -1 
3 -1 -1 
3 -1 -1 
3 -1 -1 
3 -1 -1 
3 -1 -1 
3 -1 -1 
3 -1 -1 
3 -1 -1 
3 -1 -1 
3 -1 -1 
3 -1 -1 
3 -1 -1 
3 -1 -1 
3 -1 -1 
3 -1 -1 
3 -1 -1 
3 -1 -1 
3 -1 -1 
3 -1 -1 
3 -1 -1 
3 -1 -1 
3 -1 -1 
3 -1 -1 
3 -1 -1 
3 -1 -1 
3 -1 -1 
3 -1 -1 
3 -1 -1 
3 -1 -1 
3 -1 -1 
3 -1 -1 
3 -1 -1 
3 -1 -1 
3 -1 -1 
3 -1 -1 
3 -1 -1 
3 -1 -1 
3 -1 -1 
3 -1 -1 
3 -1 -1 
3 -1 -1 
3 -1 -1 
3 -1 -1 
3 -1 -1 
3 -1 -1 
3 -1 -1 
3 -1 -1 
3 -1 -1 
3 -1 -1 
3 -1 -1 
3 -1 -1 
3 -1 -1 
3 -1 -1 
3 -1 -1 
3 -1 -1 
3 -1 -1 
3 -1 -1 
3 -1 -1 
3 -1 -1 
3 -1 -1 
3 -1 -1 
3 -1 -1 
3 -1 -1 
3 -1 -1 
3 -1 -1 
3 -1 -1 
3 -1 -1 
3 -1 -1 
3 -1 -1 
3 -1 -1 
3 -1 -1 
3 -1 -1 
3 -1 -1 
3 -1 -1 
3 -1 -1 
3 -1 -1 
3 -1 -1 
3 -1 -1 
3 -1 -1 
3 -1 -1 
3 -1 -1 
3 -1 -1 
3 -1 -1 
3 -1 -1 
3 -1 -1 
3 -1 -1 
3 -1 -1 
3 -1 -1 
3 -1 -1 
3 -1 -1 
3 -1 -1 
3 -1 -1 
3 -1 -1 
3 -1 -1 
3 -1 -1 
3 -1 -1 
3 -1 -1 
3 -1 -1 
3 -1 -1 
3 -1 -1 
3 -1 -1 
3 -1 -1 
3 -1 -1 
3 -1 -1 
3 -1 -1 
3 -1 -1 
3 -1 -1 
3 -1 -1 
3 -1 -1 
3 -1 -1 
3 -1 -1 
3 -1 -1 
3 -1 -1 
3 -1 -1 
3 -1 -1 
3 -1 -1 
3 -1 -1 
3 -1 -1 
3 -1 -1 
3 -1 -1 
3 -1 -1 
3 -1 -1 
3 -1 -1 
3 -1 -1 
3 -1 -1 
3 -1 -1 
3 -1 -1 
3 -1 -1 
3 -1 -1 
3 -1 -1 
3 -1 -1 
3 -1 -1 
3 -1 -1 
3 -1 -1 
3 -1 -1 
3 -1 -1 
3 -1 -1 
3 -1 -1 
3 -1 -1 
3 -1 -1 
3 -1 -1 
3 -1 -1 
3 -1 -1 
3 -1 -1 
3 -1 -1 
3 -1 -1 
3 -1 -1 
3 -1 -1 
3 -1 -1 
3 -1 -1 
3 -1 -1 
3 -1 -1 
3 -1 -1 
3 -1 -1 
3 -1 -1 
3 -1 -1 
3 -1 -1 
3 -1 -1 
3 -1 -1 
3 -1 -1 
3 -1 -1 
3 -1 -1 
3 -1 -1 
3 -1 -1 
3 -1 -1 
3 -1 -1 
3 -1 -1 
3 -1 -1 
3 -1 -1 
3 -1 -1 
3 -1 -1 
3 -1 -1 
3 -1 -1 
3 -1 -1 
3 -1 -1 
3 -1 -1 
3 -1 -1 
3 -1 -1 
3 -1 -1 
3 -1 -1 
3 -1 -1 
3 -1 -1 
3 -1 -1 
3 -1 -1 
3 -1 -1 
3 -1 -1 
3 -1 -1 
3 -1 -1 
3 -1 -1 
3 -1 -1 
3 -1 -1 
3 -1 -1 
3 -1 -1 
3 -1 -1 
3 -1 -1 
3 -1 -1 
3 -1 -1 
3 -1 -1 
3 -1 -1 
3 -1 -1 
3 -1 -1 
3 -1 -1 
3 -1 -1 
3 -1 -1 
3 -1 -1 
3 -1 -1 
3 -1 -1 
3 -1 -1 
3 -1 -1 
3 -1 -1 
3 -1 -1 
3 -1 -1 
3 -1 -1 
3 -1 -1 
3 -1 -1 
3 -1 -1 
3 -1 -1 
3 -1 -1 
3 -1 -1 
3 -1 -1 
3 -1 -1 
3 -1 -1 
3 -1 -1 
3 -1 -1 
3 -1 -1 
3 -1 -1 
3 -1 -1 
3 -1 -1 
3 -1 -1 
3 -1 -1 
3 -1 -1 
3 -1 -1 
3 -1 -1 
3 -1 -1 
3 -1 -1 
3 -1 -1 
3 -1 -1 
3 -1 -1 
3 -1 -1 
3 -1 -1 
3 -1 -1 
3 -1 -1 
3 -1 -1 
3 -1 -1 
3 -1 -1 
3 -1 -1 
3 -1 -1 
3 -1 -1 
3 -1 -1 
3 -1 -1 
3 -1 -1 
3 -1 -1 
3 -1 -1 
3 -1 -1 
3 -1 -1 
3 -1 -1 
3 -1 -1 
3 -1 -1 
3 -1 -1 
3 -1 -1 
3 -1 -1 
3 -1 -1 
3 -1 -1 
3 -1 -1 
3 -1 -1 
3 -1 -1 
3 -1 -1 
3 -1 -1 
3 -1 -1 
3 -1 -1 
3 -1 -1 
3 -1 -1 
3 -1 -1 
3 -1 -1 
3 -1 -1 
3 -1 -1 
3 -1 -1 
3 -1 -1 
3 -1 -1 
3 -1 -1 
3 -1 -1 
3 -1 -1 
3 -1 -1 
3 -1 -1 
3 -1 -1 
3 -1 -1 
3 -1 -1 
3 -1 -1 
3 -1 -1 
3 -1 -1 
3 -1 -1 
3 -1 -1 
3 -1 -1 
3 -1 -1 
3 -1 -1 
3 -1 -1 
3 -1 -1 
3 -1 -1 
3 -1 -1 
3 -1 -1 
3 -1 -1 
3 -1 -1 
3 -1 -1 
3 -1 -1 
3 -1 -1 
3 -1 -1 
3 -1 -1 
3 -1 -1 
3 -1 -1 
3 -1 -1 
3 -1 -1 
3 -1 -1 
3 -1 -1 
3 -1 -1 
3 -1 -1 
3 -1 -1 
3 -1 -1 
3 -1 -1 
3 -1 -1 
3 -1 -1 
3 -1 -1 
3 -1 -1 
3 -1 -1 
3 -1 -1 
3 -1 -1 
3 -1 -1 
3 -1 -1 
3 -1 -1 
3 -1 -1 
3 -1 -1 
3 -1 -1 
3 -1 -1 
3 -1 -1 
3 -1 -1 
3 -1 -1 
3 -1 -1 
3 -1 -1 
3 -1 -1 
3 -1 -1 
3 -1 -1 
3 -1 -1 
3 -1 -1 
3 -1 -1 
3 -1 -1 
3 -1 -1 
3 -1 -1 
3 -1 -1 
3 -1 -1 
3 -1 -1 
3 -1 -1 
3 -1 -1 
3 -1 -1 
3 -1 -1 
3 -1 -1 
3 -1 -1 
3 -1 -1 
3 -1 -1 
3 -1 -1 
3 -1 -1 
3 -1 -1 
3 -1 -1 
3 -1 -1 
3 -1 -1 
3 -1 -1 
3 -1 -1 
3 -1 -1 
3 -1 -1 
3 -1 -1 
3 -1 -1 
3 -1 -1 
3 -1 -1 
3 -1 -1 
3 -1 -1 
3 -1 -1 
3 -1 -1 
3 -1 -1 
3 -1 -1 
3 -1 -1 
3 -1 -1 
3 -1 -1 
3 -1 -1 
3 -1 -1 
3 -1 -1 
3 -1 -1 
3 -1 -1 
3 -1 -1 
3 -1 -1 
3 -1 -1 
3 -1 -1 
3 -1 -1 
3 -1 -1 
3 -1 -1 
3 -1 -1 
3 -1 -1 
3 -1 -1 
3 -1 -1 
3 -1 -1 
3 -1 -1 
3 -1 -1 
3 -1 -1 
3 -1 -1 
3 -1 -1 
3 -1 -1 
3 -1 -1 
3 -1 -1 
3 -1 -1 
3 -1 -1 
3 -1 -1 
3 -1 -1 
3 -1 -1 
3 -1 -1 
3 -1 -1 
3 -1 -1 
3 -1 -1 
3 -1 -1 
3 -1 -1 
3 -1 -1 
3 -1 -1 
3 -1 -1 
3 -1 -1 
3 -1 -1 
3 -1 -1 
3 -1 -1 
3 -1 -1 
3 -1 -1 
3 -1 -1 
3 -1 -1 
3 -1 -1 
3 -1 -1 
3 -1 -1 
3 -1 -1 
3 -1 -1 
3 -1 -1 
3 -1 -1 
3 -1 -1 
3 -1 -1 
3 -1 -1 
3 -1 -1 
3 -1 -1 
3 -1 -1 
3 -1 -1 
3 -1 -1 
3 -1 -1 
3 -1 -1 
3 -1 -1 
3 -1 -1 
3 -1 -1 
3 -1 -1 
3 -1 -1 
3 -1 -1 
3 -1 -1 
3 -1 -1 
3 -1 -1 
3 -1 -1 
3 -1 -1 
3 -1 -1 
3 -1 -1 
3 -1 -1 
3 -1 -1 
3 -1 -1 
3 -1 -1 
3 -1 -1 
3 -1 -1 
3 -1 -1 
3 -1 -1 
3 -1 -1 
3 -1 -1 
3 -1 -1 
3 -1 -1 
3 -1 -1 
3 -1 -1 
3 -1 -1 
3 -1 -1 
3 -1 -1 
3 -1 -1 
3 -1 -1 
3 -1 -1 
3 -1 -1 
3 -1 -1 
3 -1 -1 
3 -1 -1 
3 -1 -1 
3 -1 -1 
3 -1 -1 
3 -1 -1 
3 -1 -1 
3 -1 -1 
3 -1 -1 
3 -1 -1 
3 -1 -1 
3 -1 -1 
3 -1 -1 
3 -1 -1 
3 -1 -1 
3 -1 -1 
3 -1 -1 
3 -1 -1 
3 -1 -1 
3 -1 -1 
3 -1 -1 
3 -1 -1 
3 -1 -1 
3 -1 -1 
3 -1 -1 
3 -1 -1 
3 -1 -1 
3 -1 -1 
3 -1 -1 
3 -1 -1 
3 -1 -1 
3 -1 -1 
3 -1 -1 
3 -1 -1 
3 -1 -1 
3 -1 -1 
3 -1 -1 
3 -1 -1 
3 -1 -1 
3 -1 -1 
3 -1 -1 
3 -1 -1 
3 -1 -1 
3 -1 -1 
3 -1 -1 
3 -1 -1 
3 -1 -1 
3 -1 -1 
3 -1 -1 
3 -1 -1 
3 -1 -1 
3 -1 -1 
3 -1 -1 
3 -1 -1 
3 -1 -1 
3 -1 -1 
3 -1 -1 
3 -1 -1 
3 -1 -1 
3 -1 -1 
3 -1 -1 
3 -1 -1 
3 -1 -1 
3 -1 -1 
3 -1 -1 
3 -1 -1 
3 -1 -1 
3 -1 -1 
3 -1 -1 
3 -1 -1 
3 -1 -1 
3 -1 -1 
3 -1 -1 
3 -1 -1 
3 -1 -1 
3 -1 -1 
3 -1 -1 
3 -1 -1 
3 -1 -1 
3 -1 -1 
3 -1 -1 
3 -1 -1 
3 -1 -1 
3 -1 -1 
3 -1 -1 
3 -1 -1 
3 -1 -1 
3 -1 -1 
3 -1 -1 
3 -1 -1 
3 -1 -1 
3 -1 -1 
3 -1 -1 
3 -1 -1 
3 -1 -1 
3 -1 -1 
3 -1 -1 
3 -1 -1 
3 -1 -1 
3 -1 -1 
3 -1 -1 
3 -1 -1 
3 -1 -1 
3 -1 -1 
3 -1 -1 
3 -1 -1 
3 -1 -1 
3 -1 -1 
3 -1 -1 
3 -1 -1 
3 -1 -1 
3 -1 -1 
3 -1 -1 
3 -1 -1 
3 -1 -1 
3 -1 -1 
3 -1 -1 
3 -1 -1 
3 -1 -1 
3 -1 -1 
3 -1 -1 
3 -1 -1 
3 -1 -1 
3 -1 -1 
3 -1 -1 
3 -1 -1 
3 -1 -1 
3 -1 -1 
3 -1 -1 
3 -1 -1 
3 -1 -1 
3 -1 -1 
3 -1 -1 
3 -1 -1 
3 -1 -1 
3 -1 -1 
3 -1 -1 
3 -1 -1 
3 -1 -1 
3 -1 -1 
3 -1 -1 
3 -1 -1 
3 -1 -1 
3 -1 -1 
3 -1 -1 
3 -1 -1 
3 -1 -1 
3 -1 -1 
3 -1 -1 
3 -1 -1 
3 -1 -1 
3 -1 -1 
3 -1 -1 
3 -1 -1 
3 -1 -1 
3 -1 -1 
3 -1 -1 
3 -1 -1 
3 -1 -1 
3 -1 -1 
3 -1 -1 
3 -1 -1 
3 -1 -1 
3 -1 -1 
3 -1 -1 
3 -1 -1 
3 -1 -1 
3 -1 -1 
3 -1 -1 
3 -1 -1 
3 -1 -1 
3 -1 -1 
3 -1 -1 
3 -1 -1 
3 -1 -1 
3 -1 -1 
3 -1 -1 
3 -1 -1 
3 -1 -1 
3 -1 -1 
3 -1 -1 
3 -1 -1 
3 -1 -1 
3 -1 -1 
3 -1 -1 
3 -1 -1 
3 -1 -1 
3 -1 -1 
3 -1 -1 
3 -1 -1 
3 -1 -1 
3 -1 -1 
3 -1 -1 
3 -1 -1 
3 -1 -1 
3 -1 -1 
3 -1 -1 
3 -1 -1 
3 -1 -1 
3 -1 -1 
3 -1 -1 
3 -1 -1 
3 -1 -1 
3 -1 -1 
3 -1 -1 
3 -1 -1 
3 -1 -1 
3 -1 -1 
3 -1 -1 
3 -1 -1 
3 -1 -1 
3 -1 -1 
3 -1 -1 
3 -1 -1 
3 -1 -1 
3 -1 -1 
3 -1 -1 
3 -1 -1 
3 -1 -1 
3 -1 -1 
3 -1 -1 
3 -1 -1 
3 -1 -1 
3 -1 -1 
3 -1 -1 
3 -1 -1 
3 -1 -1 
3 -1 -1 
3 -1 -1 
3 -1 -1 
3 -1 -1 
3 -1 -1 
3 -1 -1 
3 -1 -1 
3 -1 -1 
3 -1 -1 
3 -1 -1 
3 -1 -1 
3 -1 -1 
3 -1 -1 
3 -1 -1 
3 -1 -1 
3 -1 -1 
3 -1 -1 
3 -1 -1 
3 -1 -1 
3 -1 -1 
3 -1 -1 
3 -1 -1 
3 -1 -1 
3 -1 -1 
3 -1 -1 
3 -1 -1 
3 -1 -1 
3 -1 -1 
3 -1 -1 
3 -1 -1 
3 -1 -1 
3 -1 -1 
3 -1 -1 
3 -1 -1 
3 -1 -1 
3 -1 -1 
3 -1 -1 
3 -1 -1 
3 -1 -1 
3 -1 -1 
3 -1 -1 
3 -1 -1 
3 -1 -1 
3 -1 -1 
3 -1 -1 
3 -1 -1 
3 -1 -1 
3 -1 -1 
3 -1 -1 
3 -1 -1 
3 -1 -1 
3 -1 -1 
3 -1 -1 
3 -1 -1 
3 -1 -1 
3 -1 -1 
3 -1 -1 
3 -1 -1 
3 -1 -1 
3 -1 -1 
3 -1 -1 
3 -1 -1 
3 -1 -1 
3 -1 -1 
3 -1 -1 
3 -1 -1 
3 -1 -1 
3 -1 -1 
3 -1 -1 
3 -1 -1 
3 -1 -1 
3 -1 -1 
3 -1 -1 
3 -1 -1 
3 -1 -1 
3 -1 -1 
3 -1 -1 
3 -1 -1 
3 -1 -1 
3 -1 -1 
3 -1 -1 
3 -1 -1 
3 -1 -1 
3 -1 -1 
3 -1 -1 
3 -1 -1 
3 -1 -1 
3 -1 -1 
3 -1 -1 
3 -1 -1 
3 -1 -1 
3 -1 -1 
3 -1 -1 
3 -1 -1 
3 -1 -1 
3 -1 -1 
3 -1 -1 
3 -1 -1 
3 -1 -1 
3 -1 -1 
3 -1 -1 
3 -1 -1 
3 -1 -1 
3 -1 -1 
3 -1 -1 
3 -1 -1 
3 -1 -1 
3 -1 -1 
3 -1 -1 
3 -1 -1 
3 -1 -1 
3 -1 -1 
3 -1 -1 
3 -1 -1 
3 -1 -1 
3 -1 -1 
3 -1 -1 
3 -1 -1 
3 -1 -1 
3 -1 -1 
3 -1 -1 
3 -1 -1 
3 -1 -1 
3 -1 -1 
3 -1 -1 
3 -1 -1 
3 -1 -1 
3 -1 -1 
3 -1 -1 
3 -1 -1 
3 -1 -1 
3 -1 -1 
3 -1 -1 
3 -1 -1 
3 -1 -1 
3 -1 -1 
3 -1 -1 
3 -1 -1 
3 -1 -1 
3 -1 -1 
3 -1 -1 
3 -1 -1 
3 -1 -1 
3 -1 -1 
3 -1 -1 
3 -1 -1 
3 -1 -1 
3 -1 -1 
3 -1 -1 
3 -1 -1 
3 -1 -1 
3 -1 -1 
3 -1 -1 
3 -1 -1 
3 -1 -1 
3 -1 -1 
3 -1 -1 
3 -1 -1 
3 -1 -1 
3 -1 -1 
3 -1 -1 
3 -1 -1 
3 -1 -1 
3 -1 -1 
3 -1 -1 
3 -1 -1 
3 -1 -1 
3 -1 -1 
3 -1 -1 
3 -1 -1 
3 -1 -1 
3 -1 -1 
3 -1 -1 
3 -1 -1 
3 -1 -1 
3 -1 -1 
3 -1 -1 
3 -1 -1 
3 -1 -1 
3 -1 -1 
3 -1 -1 
3 -1 -1 
3 -1 -1 
3 -1 -1 
3 -1 -1 
3 -1 -1 
3 -1 -1 
3 -1 -1 
3 -1 -1 
3 -1 -1 
3 -1 -1 
3 -1 -1 
3 -1 -1 
3 -1 -1 
3 -1 -1 
3 -1 -1 
3 -1 -1 
3 -1 -1 
3 -1 -1 
3 -1 -1 
3 -1 -1 
3 -1 -1 
3 -1 -1 
3 -1 -1 
3 -1 -1 
3 -1 -1 
3 -1 -1 
3 -1 -1 
3 -1 -1 
3 -1 -1 
3 -1 -1 
3 -1 -1 
3 -1 -1 
3 -1 -1 
3 -1 -1 
3 -1 -1 
3 -1 -1 
3 -1 -1 
3 -1 -1 
3 -1 -1 
3 -1 -1 
3 -1 -1 
3 -1 -1 
3 -1 -1 
3 -1 -1 
3 -1 -1 
3 -1 -1 
3 -1 -1 
3 -1 -1 
3 -1 -1 
3 -1 -1 
3 -1 -1 
3 -1 -1 
3 -1 -1 
3 -1 -1 
3 -1 -1 
3 -1 -1 
3 -1 -1 
3 -1 -1 
3 -1 -1 
3 -1 -1 
3 -1 -1 
3 -1 -1 
3 -1 -1 
3 -1 -1 
3 -1 -1 
3 -1 -1 
3 -1 -1 
3 -1 -1 
3 -1 -1 
3 -1 -1 
3 -1 -1 
3 -1 -1 
3 -1 -1 
3 -1 -1 
3 -1 -1 
3 -1 -1 
3 -1 -1 
3 -1 -1 
3 -1 -1 
3 -1 -1 
3 -1 -1 
3 -1 -1 
3 -1 -1 
3 -1 -1 
3 -1 -1 
3 -1 -1 
3 -1 -1 
3 -1 -1 
3 -1 -1 
3 -1 -1 
3 -1 -1 
3 -1 -1 
3 -1 -1 
3 -1 -1 
3 -1 -1 
3 -1 -1 
3 -1 -1 
3 -1 -1 
3 -1 -1 
3 -1 -1 
3 -1 -1 
3 -1 -1 
3 -1 -1 
3 -1 -1 
3 -1 -1 
3 -1 -1 
3 -1 -1 
3 -1 -1 
3 -1 -1 
3 -1 -1 
3 -1 -1 
3 -1 -1 
3 -1 -1 
3 -1 -1 
3 -1 -1 
3 -1 -1 
3 -1 -1 
3 -1 -1 
3 -1 -1 
3 -1 -1 
3 -1 -1 
3 -1 -1 
3 -1 -1 
3 -1 -1 
3 -1 -1 
3 -1 -1 
3 -1 -1 
3 -1 -1 
3 -1 -1 
3 -1 -1 
3 -1 -1 
3 -1 -1 
3 -1 -1 
3 -1 -1 
3 -1 -1 
3 -1 -1 
3 -1 -1 
3 -1 -1 
3 -1 -1 
3 -1 -1 
3 -1 -1 
3 -1 -1 
3 -1 -1 
3 -1 -1 
3 -1 -1 
3 -1 -1 
3 -1 -1 
3 -1 -1 
3 -1 -1 
3 -1 -1 
3 -1 -1 
3 -1 -1 
3 -1 -1 
3 -1 -1 
3 -1 -1 
3 -1 -1 
3 -1 -1 
3 -1 -1 
3 -1 -1 
3 -1 -1 
3 -1 -1 
3 -1 -1 
3 -1 -1 
3 -1 -1 
3 -1 -1 
3 -1 -1 
3 -1 -1 
3 -1 -1 
3 -1 -1 
3 -1 -1 
3 -1 -1 
3 -1 -1 
3 -1 -1 
3 -1 -1 
3 -1 -1 
3 -1 -1 
3 -1 -1 
3 -1 -1 
3 -1 -1 
3 -1 -1 
3 -1 -1 
3 -1 -1 
3 -1 -1 
3 -1 -1 
3 -1 -1 
3 -1 -1 
3 -1 -1 
3 -1 -1 
3 -1 -1 
3 -1 -1 
3 -1 -1 
3 -1 -1 
3 -1 -1 
3 -1 -1 
3 -1 -1 
3 -1 -1 
3 -1 -1 
3 -1 -1 
3 -1 -1 
3 -1 -1 
3 -1 -1 
3 -1 -1 
3 -1 -1 
3 -1 -1 
3 -1 -1 
3 -1 -1 
3 -1 -1 
3 -1 -1 
3 -1 -1 
3 -1 -1 
3 -1 -1 
3 -1 -1 
3 -1 -1 
3 -1 -1 
3 -1 -1 
3 -1 -1 
3 -1 -1 
3 -1 -1 
3 -1 -1 
3 -1 -1 
3 -1 -1 
3 -1 -1 
3 -1 -1 
3 -1 -1 
3 -1 -1 
3 -1 -1 
3 -1 -1 
3 -1 -1 
3 -1 -1 
3 -1 -1 
3 -1 -1 
3 -1 -1 
3 -1 -1 
3 -1 -1 
3 -1 -1 
3 -1 -1 
3 -1 -1 
3 -1 -1 
3 -1 -1 
3 -1 -1 
3 -1 -1 
3 -1 -1 
3 -1 -1 
3 -1 -1 
3 -1 -1 
3 -1 -1 
3 -1 -1 
3 -1 -1 
3 -1 -1 
3 -1 -1 
3 -1 -1 
3 -1 -1 
3 -1 -1 
3 -1 -1 
3 -1 -1 
3 -1 -1 
3 -1 -1 
3 -1 -1 
3 -1 -1 
3 -1 -1 
3 -1 -1 
3 -1 -1 
3 -1 -1 
3 -1 -1 
3 -1 -1 
3 -1 -1 
3 -1 -1 
3 -1 -1 
3 -1 -1 
3 -1 -1 
3 -1 -1 
3 -1 -1 
3 -1 -1 
3 -1 -1 
3 -1 -1 
3 -1 -1 
3 -1 -1 
3 -1 -1 
3 -1 -1 
3 -1 -1 
3 -1 -1 
3 -1 -1 
3 -1 -1 
3 -1 -1 
3 -1 -1 
3 -1 -1 
3 -1 -1 
3 -1 -1 
3 -1 -1 
3 -1 -1 
3 -1 -1 
3 -1 -1 
3 -1 -1 
3 -1 -1 
3 -1 -1 
3 -1 -1 
3 -1 -1 
3 -1 -1 
3 -1 -1 
3 -1 -1 
3 -1 -1 
3 -1 -1 
3 -1 -1 
3 -1 -1 
3 -1 -1 
3 -1 -1 
3 -1 -1 
3 -1 -1 
3 -1 -1 
3 -1 -1 
3 -1 -1 
3 -1 -1 
3 -1 -1 
3 -1 -1 
3 -1 -1 
3 -1 -1 
3 -1 -1 
3 -1 -1 
3 -1 -1 
3 -1 -1 
3 -1 -1 
3 -1 -1 
3 -1 -1 
3 -1 -1 
3 -1 -1 
3 -1 -1 
3 -1 -1 
3 -1 -1 
3 -1 -1 
3 -1 -1 
3 -1 -1 
3 -1 -1 
3 -1 -1 
3 -1 -1 
3 -1 -1 
3 -1 -1 
3 -1 -1 
3 -1 -1 
3 -1 -1 
3 -1 -1 
3 -1 -1 
3 -1 -1 
3 -1 -1 
3 -1 -1 
3 -1 -1 
3 -1 -1 
3 -1 -1 
3 -1 -1 
3 -1 -1 
3 -1 -1 
3 -1 -1 
3 -1 -1 
3 -1 -1 
3 -1 -1 
3 -1 -1 
3 -1 -1 
3 -1 -1 
3 -1 -1 
3 -1 -1 
3 -1 -1 
3 -1 -1 
3 -1 -1 
3 -1 -1 
3 -1 -1 
3 -1 -1 
3 -1 -1 
3 -1 -1 
3 -1 -1 
3 -1 -1 
3 -1 -1 
3 -1 -1 
3 -1 -1 
3 -1 -1 
3 -1 -1 
3 -1 -1 
3 -1 -1 
3 -1 -1 
3 -1 -1 
3 -1 -1 
3 -1 -1 
3 -1 -1 
3 -1 -1 
3 -1 -1 
3 -1 -1 
3 -1 -1 
3 -1 -1 
3 -1 -1 
3 -1 -1 
3 -1 -1 
3 -1 -1 
3 -1 -1 
3 -1 -1 
3 -1 -1 
3 -1 -1 
3 -1 -1 
3 -1 -1 
3 -1 -1 
3 -1 -1 
3 -1 -1 
3 -1 -1 
3 -1 -1 
3 -1 -1 
3 -1 -1 
3 -1 -1 
3 -1 -1 
3 -1 -1 
3 -1 -1 
3 -1 -1 
3 -1 -1 
3 -1 -1 
3 -1 -1 
3 -1 -1 
3 -1 -1 
3 -1 -1 
3 -1 -1 
3 -1 -1 
3 -1 -1 
3 -1 -1 
3 -1 -1 
3 -1 -1 
3 -1 -1 
3 -1 -1 
3 -1 -1 
3 -1 -1 
3 -1 -1 
3 -1 -1 
3 -1 -1 
3 -1 -1 
3 -1 -1 
3 -1 -1 
3 -1 -1 
3 -1 -1 
3 -1 -1 
3 -1 -1 
3 -1 -1 
3 -1 -1 
3 -1 -1 
3 -1 -1 
3 -1 -1 
3 -1 -1 
3 -1 -1 
3 -1 -1 
3 -1 -1 
3 -1 -1 
3 -1 -1 
3 -1 -1 
3 -1 -1 
3 -1 -1 
3 -1 -1 
3 -1 -1 
3 -1 -1 
3 -1 -1 
3 -1 -1 
3 -1 -1 
3 -1 -1 
3 -1 -1 
3 -1 -1 
3 -1 -1 
3 -1 -1 
3 -1 -1 
3 -1 -1 
3 -1 -1 
3 -1 -1 
3 -1 -1 
3 -1 -1 
3 -1 -1 
3 -1 -1 
3 -1 -1 
3 -1 -1 
3 -1 -1 
3 -1 -1 
3 -1 -1 
3 -1 -1 
3 -1 -1 
3 -1 -1 
3 -1 -1 
3 -1 -1 
3 -1 -1 
3 -1 -1 
3 -1 -1 
3 -1 -1 
3 -1 -1 
3 -1 -1 
3 -1 -1 
3 -1 -1 
3 -1 -1 
3 -1 -1 
3 -1 -1 
3 -1 -1 
3 -1 -1 
3 -1 -1 
3 -1 -1 
3 -1 -1 
3 -1 -1 
3 -1 -1 
3 -1 -1 
3 -1 -1 
3 -1 -1 
3 -1 -1 
3 -1 -1 
3 -1 -1 
3 -1 -1 
3 -1 -1 
3 -1 -1 
3 -1 -1 
3 -1 -1 
3 -1 -1 
3 -1 -1 
3 -1 -1 
3 -1 -1 
3 -1 -1 
3 -1 -1 
3 -1 -1 
3 -1 -1 
3 -1 -1 
3 -1 -1 
3 -1 -1 
3 -1 -1 
3 -1 -1 
3 -1 -1 
3 -1 -1 
3 -1 -1 
3 -1 -1 
3 -1 -1 
3 -1 -1 
3 -1 -1 
3 -1 -1 
3 -1 -1 
3 -1 -1 
3 -1 -1 
3 -1 -1 
3 -1 -1 
3 -1 -1 
3 -1 -1 
3 -1 -1 
3 -1 -1 
3 -1 -1 
3 -1 -1 
3 -1 -1 
3 -1 -1 
3 -1 -1 
3 -1 -1 
3 -1 -1 
3 -1 -1 
3 -1 -1 
3 -1 -1 
3 -1 -1 
3 -1 -1 
3 -1 -1 
3 -1 -1 
3 -1 -1 
3 -1 -1 
3 -1 -1 
3 -1 -1 
3 -1 -1 
3 -1 -1 
3 -1 -1 
3 -1 -1 
3 -1 -1 
3 -1 -1 
3 -1 -1 
3 -1 -1 
3 -1 -1 
3 -1 -1 
3 -1 -1 
3 -1 -1 
3 -1 -1 
3 -1 -1 
3 -1 -1 
3 -1 -1 
3 -1 -1 
3 -1 -1 
3 -1 -1 
3 -1 -1 
3 -1 -1 
3 -1 -1 
3 -1 -1 
3 -1 -1 
3 -1 -1 
3 -1 -1 
3 -1 -1 
3 -1 -1 
3 -1 -1 
3 -1 -1 
3 -1 -1 
3 -1 -1 
3 -1 -1 
3 -1 -1 
3 -1 -1 
3 -1 -1 
3 -1 -1 
3 -1 -1 
3 -1 -1 
3 -1 -1 
3 -1 -1 
3 -1 -1 
3 -1 -1 
3 -1 -1 
3 -1 -1 
3 -1 -1 
3 -1 -1 
3 -1 -1 
3 -1 -1 
3 -1 -1 
3 -1 -1 
3 -1 -1 
3 -1 -1 
3 -1 -1 
3 -1 -1 
3 -1 -1 
3 -1 -1 
3 -1 -1 
3 -1 -1 
3 -1 -1 
3 -1 -1 
3 -1 -1 
3 -1 -1 
3 -1 -1 
3 -1 -1 
3 -1 -1 
3 -1 -1 
3 -1 -1 
3 -1 -1 
3 -1 -1 
3 -1 -1 
3 -1 -1 
3 -1 -1 
3 -1 -1 
3 -1 -1 
3 -1 -1 
3 -1 -1 
3 -1 -1 
3 -1 -1 
3 -1 -1 
3 -1 -1 
3 -1 -1 
3 -1 -1 
3 -1 -1 
3 -1 -1 
3 -1 -1 
3 -1 -1 
3 -1 -1 
3 -1 -1 
3 -1 -1 
3 -1 -1 
3 -1 -1 
3 -1 -1 
3 -1 -1 
3 -1 -1 
3 -1 -1 
3 -1 -1 
3 -1 -1 
3 -1 -1 
3 -1 -1 
3 -1 -1 
3 -1 -1 
3 -1 -1 
3 -1 -1 
3 -1 -1 
3 -1 -1 
3 -1 -1 
3 -1 -1 
3 -1 -1 
3 -1 -1 
3 -1 -1 
3 -1 -1 
3 -1 -1 
3 -1 -1 
3 -1 -1 
3 -1 -1 
3 -1 -1 
3 -1 -1 
3 -1 -1 
3 -1 -1 
3 -1 -1 
3 -1 -1 
3 -1 -1 
3 -1 -1 
3 -1 -1 
3 -1 -1 
3 -1 -1 
3 -1 -1 
3 -1 -1 
3 -1 -1 
3 -1 -1 
3 -1 -1 
3 -1 -1 
3 -1 -1 
3 -1 -1 
3 -1 -1 
3 -1 -1 
3 -1 -1 
3 -1 -1 
3 -1 -1 
3 -1 -1 
3 -1 -1 
3 -1 -1 
3 -1 -1 
3 -1 -1 
3 -1 -1 
3 -1 -1 
3 -1 -1 
3 -1 -1 
3 -1 -1 
3 -1 -1 
3 -1 -1 
3 -1 -1 
3 -1 -1 
3 -1 -1 
3 -1 -1 
3 -1 -1 
3 -1 -1 
3 -1 -1 
3 -1 -1 
3 -1 -1 
3 -1 -1 
3 -1 -1 
3 -1 -1 
3 -1 -1 
3 -1 -1 
3 -1 -1 
3 -1 -1 
3 -1 -1 
3 -1 -1 
3 -1 -1 
3 -1 -1 
3 -1 -1 
3 -1 -1 
3 -1 -1 
3 -1 -1 
3 -1 -1 
3 -1 -1 
3 -1 -1 
3 -1 -1 
3 -1 -1 
3 -1 -1 
3 -1 -1 
3 -1 -1 
3 -1 -1 
3 -1 -1 
3 -1 -1 
3 -1 -1 
3 -1 -1 
3 -1 -1 
3 -1 -1 
3 -1 -1 
3 -1 -1 
3 -1 -1 
3 -1 -1 
3 -1 -1 
3 -1 -1 
3 -1 -1 
3 -1 -1 
3 -1 -1 
3 -1 -1 
3 -1 -1 
3 -1 -1 
3 -1 -1 
3 -1 -1 
3 -1 -1 
3 -1 -1 
3 -1 -1 
3 -1 -1 
3 -1 -1 
3 -1 -1 
3 -1 -1 
3 -1 -1 
3 -1 -1 
3 -1 -1 
3 -1 -1 
3 -1 -1 
3 -1 -1 
3 -1 -1 
3 -1 -1 
3 -1 -1 
3 -1 -1 
3 -1 -1 
3 -1 -1 
3 -1 -1 
3 -1 -1 
3 -1 -1 
3 -1 -1 
3 -1 -1 
3 -1 -1 
3 -1 -1 
3 -1 -1 
3 -1 -1 
3 -1 -1 
3 -1 -1 
3 -1 -1 
3 -1 -1 
3 -1 -1 
3 -1 -1 
3 -1 -1 
3 -1 -1 
3 -1 -1 
3 -1 -1 
3 -1 -1 
3 -1 -1 
3 -1 -1 
3 -1 -1 
3 -1 -1 
3 -1 -1 
3 -1 -1 
3 -1 -1 
3 -1 -1 
3 -1 -1 
3 -1 -1 
3 -1 -1 
3 -1 -1 
3 -1 -1 
3 -1 -1 
3 -1 -1 
3 -1 -1 
3 -1 -1 
3 -1 -1 
3 -1 -1 
3 -1 -1 
3 -1 -1 
3 -1 -1 
3 -1 -1 
3 -1 -1 
3 -1 -1 
3 -1 -1 
3 -1 -1 
3 -1 -1 
3 -1 -1 
3 -1 -1 
3 -1 -1 
3 -1 -1 
3 -1 -1 
3 -1 -1 
3 -1 -1 
3 -1 -1 
3 -1 -1 
3 -1 -1 
3 -1 -1 
3 -1 -1 
3 -1 -1 
3 -1 -1 
3 -1 -1 
3 -1 -1 
3 -1 -1 
3 -1 -1 
3 -1 -1 
3 -1 -1 
3 -1 -1 
3 -1 -1 
3 -1 -1 
3 -1 -1 
3 -1 -1 
3 -1 -1 
3 -1 -1 
3 -1 -1 
3 -1 -1 
3 -1 -1 
3 -1 -1 
3 -1 -1 
3 -1 -1 
3 -1 -1 
3 -1 -1 
3 -1 -1 
3 -1 -1 
3 -1 -1 
3 -1 -1 
3 -1 -1 
3 -1 -1 
3 -1 -1 
3 -1 -1 
3 -1 -1 
3 -1 -1 
3 -1 -1 
3 -1 -1 
3 -1 -1 
3 -1 -1 
3 -1 -1 
3 -1 -1 
3 -1 -1 
3 -1 -1 
3 -1 -1 
3 -1 -1 
3 -1 -1 
3 -1 -1 
3 -1 -1 
3 -1 -1 
3 -1 -1 
3 -1 -1 
3 -1 -1 
3 -1 -1 
3 -1 -1 
3 -1 -1 
3 -1 -1 
3 -1 -1 
3 -1 -1 
3 -1 -1 
3 -1 -1 
3 -1 -1 
3 -1 -1 
3 -1 -1 
3 -1 -1 
3 -1 -1 
3 -1 -1 
3 -1 -1 
3 -1 -1 
3 -1 -1 
3 -1 -1 
3 -1 -1 
3 -1 -1 
3 -1 -1 
3 -1 -1 
3 -1 -1 
3 -1 -1 
3 -1 -1 
3 -1 -1 
3 -1 -1 
3 -1 -1 
3 -1 -1 
3 -1 -1 
3 -1 -1 
3 -1 -1 
3 -1 -1 
3 -1 -1 
3 -1 -1 
3 -1 -1 
3 -1 -1 
3 -1 -1 
3 -1 -1 
3 -1 -1 
3 -1 -1 
3 -1 -1 
3 -1 -1 
3 -1 -1 
3 -1 -1 
3 -1 -1 
3 -1 -1 
3 -1 -1 
3 -1 -1 
3 -1 -1 
3 -1 -1 
3 -1 -1 
3 -1 -1 
3 -1 -1 
3 -1 -1 
3 -1 -1 
3 -1 -1 
3 -1 -1 
3 -1 -1 
3 -1 -1 
3 -1 -1 
3 -1 -1 
3 -1 -1 
3 -1 -1 
3 -1 -1 
3 -1 -1 
3 -1 -1 
3 -1 -1 
3 -1 -1 
3 -1 -1 
3 -1 -1 
3 -1 -1 
3 -1 -1 
3 -1 -1 
3 -1 -1 
3 -1 -1 
3 -1 -1 
3 -1 -1 
3 -1 -1 
3 -1 -1 
3 -1 -1 
3 -1 -1 
3 -1 -1 
3 -1 -1 
3 -1 -1 
3 -1 -1 
3 -1 -1 
3 -1 -1 
3 -1 -1 
3 -1 -1 
3 -1 -1 
3 -1 -1 
3 -1 -1 
3 -1 -1 
3 -1 -1 
3 -1 -1 
3 -1 -1 
3 -1 -1 
3 -1 -1 
3 -1 -1 
3 -1 -1 
3 -1 -1 
3 -1 -1 
3 -1 -1 
3 -1 -1 
3 -1 -1 
3 -1 -1 
3 -1 -1 
3 -1 -1 
3 -1 -1 
3 -1 -1 
3 -1 -1 
3 -1 -1 
3 -1 -1 
3 -1 -1 
3 -1 -1 
3 -1 -1 
3 -1 -1 
3 -1 -1 
3 -1 -1 
3 -1 -1 
3 -1 -1 
3 -1 -1 
3 -1 -1 
3 -1 -1 
3 -1 -1 
3 -1 -1 
3 -1 -1 
3 -1 -1 
3 -1 -1 
3 -1 -1 
3 -1 -1 
3 -1 -1 
3 -1 -1 
3 -1 -1 
3 -1 -1 
3 -1 -1 
3 -1 -1 
3 -1 -1 
3 -1 -1 
3 -1 -1 
3 -1 -1 
3 -1 -1 
3 -1 -1 
3 -1 -1 
3 -1 -1 
3 -1 -1 
3 -1 -1 
3 -1 -1 
3 -1 -1 
3 -1 -1 
3 -1 -1 
3 -1 -1 
3 -1 -1 
3 -1 -1 
3 -1 -1 
3 -1 -1 
3 -1 -1 
3 -1 -1 
3 -1 -1 
3 -1 -1 
3 -1 -1 
3 -1 -1 
3 -1 -1 
3 -1 -1 
3 -1 -1 
3 -1 -1 
3 -1 -1 
3 -1 -1 
3 -1 -1 
3 -1 -1 
3 -1 -1 
3 -1 -1 
3 -1 -1 
3 -1 -1 
3 -1 -1 
3 -1 -1 
3 -1 -1 
3 -1 -1 
3 -1 -1 
3 -1 -1 
3 -1 -1 
3 -1 -1 
3 -1 -1 
3 -1 -1 
3 -1 -1 
3 -1 -1 
3 -1 -1 
3 -1 -1 
3 -1 -1 
3 -1 -1 
3 -1 -1 
3 -1 -1 
3 -1 -1 
3 -1 -1 
3 -1 -1 
3 -1 -1 
3 -1 -1 
3 -1 -1 
3 -1 -1 
3 -1 -1 
3 -1 -1 
3 -1 -1 
3 -1 -1 
3 -1 -1 
3 -1 -1 
3 -1 -1 
3 -1 -1 
3 -1 -1 
3 -1 -1 
3 -1 -1 
3 -1 -1 
3 -1 -1 
3 -1 -1 
3 -1 -1 
3 -1 -1 
3 -1 -1 
3 -1 -1 
3 -1 -1 
3 -1 -1 
3 -1 -1 
3 -1 -1 
3 -1 -1 
3 -1 -1 
3 -1 -1 
3 -1 -1 
3 -1 -1 
3 -1 -1 
3 -1 -1 
3 -1 -1 
3 -1 -1 
3 -1 -1 
3 -1 -1 
3 -1 -1 
3 -1 -1 
3 -1 -1 
3 -1 -1 
3 -1 -1 
3 -1 -1 
3 -1 -1 
3 -1 -1 
3 -1 -1 
3 -1 -1 
3 -1 -1 
3 -1 -1 
3 -1 -1 
3 -1 -1 
3 -1 -1 
3 -1 -1 
3 -1 -1 
3 -1 -1 
3 -1 -1 
3 -1 -1 
3 -1 -1 
3 -1 -1 
3 -1 -1 
3 -1 -1 
3 -1 -1 
3 -1 -1 
3 -1 -1 
3 -1 -1 
3 -1 -1 
3 -1 -1 
3 -1 -1 
3 -1 -1 
3 -1 -1 
3 -1 -1 
3 -1 -1 
3 -1 -1 
3 -1 -1 
3 -1 -1 
3 -1 -1 
3 -1 -1 
3 -1 -1 
3 -1 -1 
3 -1 -1 
3 -1 -1 
3 -1 -1 
3 -1 -1 
3 -1 -1 
3 -1 -1 
3 -1 -1 
3 -1 -1 
3 -1 -1 
3 -1 -1 
3 -1 -1 
3 -1 -1 
3 -1 -1 
3 -1 -1 
3 -1 -1 
3 -1 -1 
3 -1 -1 
3 -1 -1 
3 -1 -1 
3 -1 -1 
3 -1 -1 
3 -1 -1 
3 -1 -1 
3 -1 -1 
3 -1 -1 
3 -1 -1 
3 -1 -1 
3 -1 -1 
3 -1 -1 
3 -1 -1 
3 -1 -1 
3 -1 -1 
3 -1 -1 
3 -1 -1 
3 -1 -1 
3 -1 -1 
3 -1 -1 
3 -1 -1 
3 -1 -1 
3 -1 -1 
3 -1 -1 
3 -1 -1 
3 -1 -1 
3 -1 -1 
3 -1 -1 
3 -1 -1 
3 -1 -1 
3 -1 -1 
3 -1 -1 
3 -1 -1 
3 -1 -1 
3 -1 -1 
3 -1 -1 
3 -1 -1 
3 -1 -1 
3 -1 -1 
3 -1 -1 
3 -1 -1 
3 -1 -1 
3 -1 -1 
3 -1 -1 
3 -1 -1 
3 -1 -1 
3 -1 -1 
3 -1 -1 
3 -1 -1 
3 -1 -1 
3 -1 -1 
3 -1 -1 
3 -1 -1 
3 -1 -1 
3 -1 -1 
3 -1 -1 
3 -1 -1 
3 -1 -1 
3 -1 -1 
3 -1 -1 
3 -1 -1 
3 -1 -1 
3 -1 -1 
3 -1 -1 
3 -1 -1 
3 -1 -1 
3 -1 -1 
3 -1 -1 
3 -1 -1 
3 -1 -1 
3 -1 -1 
3 -1 -1 
3 -1 -1 
3 -1 -1 
3 -1 -1 
3 -1 -1 
3 -1 -1 
3 -1 -1 
3 -1 -1 
3 -1 -1 
3 -1 -1 
3 -1 -1 
3 -1 -1 
3 -1 -1 
3 -1 -1 
3 -1 -1 
3 -1 -1 
3 -1 -1 
3 -1 -1 
3 -1 -1 
3 -1 -1 
3 -1 -1 
3 -1 -1 
3 -1 -1 
3 -1 -1 
3 -1 -1 
3 -1 -1 
3 -1 -1 
3 -1 -1 
3 -1 -1 
3 -1 -1 
3 -1 -1 
3 -1 -1 
3 -1 -1 
3 -1 -1 
3 -1 -1 
3 -1 -1 
3 -1 -1 
3 -1 -1 
3 -1 -1 
3 -1 -1 
3 -1 -1 
3 -1 -1 
3 -1 -1 
3 -1 -1 
3 -1 -1 
3 -1 -1 
3 -1 -1 
3 -1 -1 
3 -1 -1 
3 -1 -1 
3 -1 -1 
3 -1 -1 
3 -1 -1 
3 -1 -1 
3 -1 -1 
3 -1 -1 
3 -1 -1 
3 -1 -1 
3 -1 -1 
3 -1 -1 
3 -1 -1 
3 -1 -1 
3 -1 -1 
3 -1 -1 
3 -1 -1 
3 -1 -1 
3 -1 -1 
3 -1 -1 
3 -1 -1 
3 -1 -1 
3 -1 -1 
3 -1 -1 
3 -1 -1 
3 -1 -1 
3 -1 -1 
3 -1 -1 
3 -1 -1 
3 -1 -1 
3 -1 -1 
3 -1 -1 
3 -1 -1 
3 -1 -1 
3 -1 -1 
3 -1 -1 
3 -1 -1 
3 -1 -1 
3 -1 -1 
3 -1 -1 
3 -1 -1 
3 -1 -1 
3 -1 -1 
3 -1 -1 
3 -1 -1 
3 -1 -1 
3 -1 -1 
3 -1 -1 
3 -1 -1 
3 -1 -1 
3 -1 -1 
3 -1 -1 
3 -1 -1 
3 -1 -1 
3 -1 -1 
3 -1 -1 
3 -1 -1 
3 -1 -1 
3 -1 -1 
3 -1 -1 
3 -1 -1 
3 -1 -1 
3 -1 -1 
3 -1 -1 
3 -1 -1 
3 -1 -1 
3 -1 -1 
3 -1 -1 
3 -1 -1 
3 -1 -1 
3 -1 -1 
3 -1 -1 
3 -1 -1 
3 -1 -1 
3 -1 -1 
3 -1 -1 
3 -1 -1 
3 -1 -1 
3 -1 -1 
3 -1 -1 
3 -1 -1 
3 -1 -1 
3 -1 -1 
3 -1 -1 
3 -1 -1 
3 -1 -1 
3 -1 -1 
3 -1 -1 
3 -1 -1 
3 -1 -1 
3 -1 -1 
3 -1 -1 
3 -1 -1 
3 -1 -1 
3 -1 -1 
3 -1 -1 
3 -1 -1 
3 -1 -1 
3 -1 -1 
3 -1 -1 
3 -1 -1 
3 -1 -1 
3 -1 -1 
3 -1 -1 
3 -1 -1 
3 -1 -1 
3 -1 -1 
3 -1 -1 
3 -1 -1 
3 -1 -1 
3 -1 -1 
3 -1 -1 
3 -1 -1 
3 -1 -1 
3 -1 -1 
3 -1 -1 
3 -1 -1 
3 -1 -1 
3 -1 -1 
3 -1 -1 
3 -1 -1 
3 -1 -1 
3 -1 -1 
3 -1 -1 
3 -1 -1 
3 -1 -1 
3 -1 -1 
3 -1 -1 
3 -1 -1 
3 -1 -1 
3 -1 -1 
3 -1 -1 
3 -1 -1 
3 -1 -1 
3 -1 -1 
3 -1 -1 
3 -1 -1 
3 -1 -1 
3 -1 -1 
3 -1 -1 
3 -1 -1 
3 -1 -1 
3 -1 -1 
3 -1 -1 
3 -1 -1 
3 -1 -1 
3 -1 -1 
3 -1 -1 
3 -1 -1 
3 -1 -1 
3 -1 -1 
3 -1 -1 
3 -1 -1 
3 -1 -1 
3 -1 -1 
3 -1 -1 
3 -1 -1 
3 -1 -1 
3 -1 -1 
3 -1 -1 
3 -1 -1 
3 -1 -1 
3 -1 -1 
3 -1 -1 
3 -1 -1 
3 -1 -1 
3 -1 -1 
3 -1 -1 
3 -1 -1 
3 -1 -1 
3 -1 -1 
3 -1 -1 
3 -1 -1 
3 -1 -1 
3 -1 -1 
3 -1 -1 
3 -1 -1 
3 -1 -1 
3 -1 -1 
3 -1 -1 
3 -1 -1 
3 -1 -1 
3 -1 -1 
3 -1 -1 
3 -1 -1 
3 -1 -1 
3 -1 -1 
3 -1 -1 
3 -1 -1 
3 -1 -1 
3 -1 -1 
3 -1 -1 
3 -1 -1 
3 -1 -1 
3 -1 -1 
3 -1 -1 
3 -1 -1 
3 -1 -1 
3 -1 -1 
3 -1 -1 
3 -1 -1 
3 -1 -1 
3 -1 -1 
3 -1 -1 
3 -1 -1 
3 -1 -1 
3 -1 -1 
3 -1 -1 
3 -1 -1 
3 -1 -1 
3 -1 -1 
3 -1 -1 
3 -1 -1 
3 -1 -1 
3 -1 -1 
3 -1 -1 
3 -1 -1 
3 -1 -1 
3 -1 -1 
3 -1 -1 
3 -1 -1 
3 -1 -1 
3 -1 -1 
3 -1 -1 
3 -1 -1 
3 -1 -1 
3 -1 -1 
3 -1 -1 
3 -1 -1 
3 -1 -1 
3 -1 -1 
3 -1 -1 
3 -1 -1 
3 -1 -1 
3 -1 -1 
3 -1 -1 
3 -1 -1 
3 -1 -1 
3 -1 -1 
3 -1 -1 
3 -1 -1 
3 -1 -1 
3 -1 -1 
3 -1 -1 
3 -1 -1 
3 -1 -1 
3 -1 -1 
3 -1 -1 
3 -1 -1 
3 -1 -1 
3 -1 -1 
3 -1 -1 
3 -1 -1 
3 -1 -1 
3 -1 -1 
3 -1 -1 
3 -1 -1 
3 -1 -1 
3 -1 -1 
3 -1 -1 
3 -1 -1 
3 -1 -1 
3 -1 -1 
3 -1 -1 
3 -1 -1 
3 -1 -1 
3 -1 -1 
3 -1 -1 
3 -1 -1 
3 -1 -1 
3 -1 -1 
3 -1 -1 
3 -1 -1 
3 -1 -1 
3 -1 -1 
3 -1 -1 
3 -1 -1 
3 -1 -1 
3 -1 -1 
3 -1 -1 
3 -1 -1 
3 -1 -1 
3 -1 -1 
3 -1 -1 
3 -1 -1 
3 -1 -1 
3 -1 -1 
3 -1 -1 
3 -1 -1 
3 -1 -1 
3 -1 -1 
3 -1 -1 
3 -1 -1 
3 -1 -1 
3 -1 -1 
3 -1 -1 
3 -1 -1 
3 -1 -1 
3 -1 -1 
3 -1 -1 
3 -1 -1 
3 -1 -1 
3 -1 -1 
3 -1 -1 
3 -1 -1 
3 -1 -1 
3 -1 -1 
3 -1 -1 
3 -1 -1 
3 -1 -1 
3 -1 -1 
3 -1 -1 
3 -1 -1 
3 -1 -1 
3 -1 -1 
3 -1 -1 
3 -1 -1 
3 -1 -1 
3 -1 -1 
3 -1 -1 
3 -1 -1 
3 -1 -1 
3 -1 -1 
3 -1 -1 
3 -1 -1 
3 -1 -1 
3 -1 -1 
3 -1 -1 
3 -1 -1 
3 -1 -1 
3 -1 -1 
3 -1 -1 
3 -1 -1 
3 -1 -1 
3 -1 -1 
3 -1 -1 
3 -1 -1 
3 -1 -1 
3 -1 -1 
3 -1 -1 
3 -1 -1 
3 -1 -1 
3 -1 -1 
3 -1 -1 
3 -1 -1 
3 -1 -1 
3 -1 -1 
3 -1 -1 
3 -1 -1 
3 -1 -1 
3 -1 -1 
3 -1 -1 
3 -1 -1 
3 -1 -1 
3 -1 -1 
3 -1 -1 
3 -1 -1 
3 -1 -1 
3 -1 -1 
3 -1 -1 
3 -1 -1 
3 -1 -1 
3 -1 -1 
3 -1 -1 
3 -1 -1 
3 -1 -1 
3 -1 -1 
3 -1 -1 
3 -1 -1 
3 -1 -1 
3 -1 -1 
3 -1 -1 
3 -1 -1 
3 -1 -1 
3 -1 -1 
3 -1 -1 
3 -1 -1 
3 -1 -1 
3 -1 -1 
3 -1 -1 
3 -1 -1 
3 -1 -1 
3 -1 -1 
3 -1 -1 
3 -1 -1 
3 -1 -1 
3 -1 -1 
3 -1 -1 
3 -1 -1 
3 -1 -1 
3 -1 -1 
3 -1 -1 
3 -1 -1 
3 -1 -1 
3 -1 -1 
3 -1 -1 
3 -1 -1 
3 -1 -1 
3 -1 -1 
3 -1 -1 
3 -1 -1 
3 -1 -1 
3 -1 -1 
3 -1 -1 
3 -1 -1 
3 -1 -1 
3 -1 -1 
3 -1 -1 
3 -1 -1 
3 -1 -1 
3 -1 -1 
3 -1 -1 
3 -1 -1 
3 -1 -1 
3 -1 -1 
3 -1 -1 
3 -1 -1 
3 -1 -1 
3 -1 -1 
3 -1 -1 
3 -1 -1 
3 -1 -1 
3 -1 -1 
3 -1 -1 
3 -1 -1 
3 -1 -1 
3 -1 -1 
3 -1 -1 
3 -1 -1 
3 -1 -1 
3 -1 -1 
3 -1 -1 
3 -1 -1 
3 -1 -1 
3 -1 -1 
3 -1 -1 
3 -1 -1 
3 -1 -1 
3 -1 -1 
3 -1 -1 
3 -1 -1 
3 -1 -1 
3 -1 -1 
3 -1 -1 
3 -1 -1 
3 -1 -1 
3 -1 -1 
3 -1 -1 
3 -1 -1 
3 -1 -1 
3 -1 -1 
3 -1 -1 
3 -1 -1 
3 -1 -1 
3 -1 -1 
3 -1 -1 
3 -1 -1 
3 -1 -1 
3 -1 -1 
3 -1 -1 
3 -1 -1 
3 -1 -1 
3 -1 -1 
3 -1 -1 
3 -1 -1 
3 -1 -1 
3 -1 -1 
3 -1 -1 
3 -1 -1 
3 -1 -1 
3 -1 -1 
3 -1 -1 
3 -1 -1 
3 -1 -1 
3 -1 -1 
3 -1 -1 
3 -1 -1 
3 -1 -1 
3 -1 -1 
3 -1 -1 
3 -1 -1 
3 -1 -1 
3 -1 -1 
3 -1 -1 
3 -1 -1 
3 -1 -1 
3 -1 -1 
3 -1 -1 
3 -1 -1 
3 -1 -1 
3 -1 -1 
3 -1 -1 
3 -1 -1 
3 -1 -1 
3 -1 -1 
3 -1 -1 
3 -1 -1 
3 -1 -1 
3 -1 -1 
3 -1 -1 
3 -1 -1 
3 -1 -1 
3 -1 -1 
3 -1 -1 
3 -1 -1 
3 -1 -1 
3 -1 -1 
3 -1 -1 
3 -1 -1 
3 -1 -1 
3 -1 -1 
3 -1 -1 
3 -1 -1 
3 -1 -1 
3 -1 -1 
3 -1 -1 
3 -1 -1 
3 -1 -1 
3 -1 -1 
3 -1 -1 
3 -1 -1 
3 -1 -1 
3 -1 -1 
3 -1 -1 
3 -1 -1 
3 -1 -1 
3 -1 -1 
3 -1 -1 
3 -1 -1 
3 -1 -1 
3 -1 -1 
3 -1 -1 
3 -1 -1 
3 -1 -1 
3 -1 -1 
3 -1 -1 
3 -1 -1 
3 -1 -1 
3 -1 -1 
3 -1 -1 
3 -1 -1 
3 -1 -1 
3 -1 -1 
3 -1 -1 
3 -1 -1 
3 -1 -1 
3 -1 -1 
3 -1 -1 
3 -1 -1 
3 -1 -1 
3 -1 -1 
3 -1 -1 
3 -1 -1 
3 -1 -1 
3 -1 -1 
3 -1 -1 
3 -1 -1 
3 -1 -1 
3 -1 -1 
3 -1 -1 
3 -1 -1 
3 -1 -1 
3 -1 -1 
3 -1 -1 
3 -1 -1 
3 -1 -1 
3 -1 -1 
3 -1 -1 
3 -1 -1 
3 -1 -1 
3 -1 -1 
3 -1 -1 
3 -1 -1 
3 -1 -1 
3 -1 -1 
3 -1 -1 
3 -1 -1 
3 -1 -1 
3 -1 -1 
3 -1 -1 
3 -1 -1 
3 -1 -1 
3 -1 -1 
3 -1 -1 
3 -1 -1 
3 -1 -1 
3 -1 -1 
3 -1 -1 
3 -1 -1 
3 -1 -1 
3 -1 -1 
3 -1 -1 
3 -1 -1 
3 -1 -1 
3 -1 -1 
3 -1 -1 
3 -1 -1 
3 -1 -1 
3 -1 -1 
3 -1 -1 
3 -1 -1 
3 -1 -1 
3 -1 -1 
3 -1 -1 
3 -1 -1 
3 -1 -1 
3 -1 -1 
3 -1 -1 
3 -1 -1 
3 -1 -1 
3 -1 -1 
3 -1 -1 
3 -1 -1 
3 -1 -1 
3 -1 -1 
3 -1 -1 
3 -1 -1 
3 -1 -1 
3 -1 -1 
3 -1 -1 
3 -1 -1 
3 -1 -1 
3 -1 -1 
3 -1 -1 
3 -1 -1 
3 -1 -1 
3 -1 -1 
3 -1 -1 
3 -1 -1 
3 -1 -1 
3 -1 -1 
3 -1 -1 
3 -1 -1 
3 -1 -1 
3 -1 -1 
3 -1 -1 
3 -1 -1 
3 -1 -1 
3 -1 -1 
3 -1 -1 
3 -1 -1 
3 -1 -1 
3 -1 -1 
3 -1 -1 
3 -1 -1 
3 -1 -1 
3 -1 -1 
3 -1 -1 
3 -1 -1 
3 -1 -1 
3 -1 -1 
3 -1 -1 
3 -1 -1 
3 -1 -1 
3 -1 -1 
3 -1 -1 
3 -1 -1 
3 -1 -1 
3 -1 -1 
3 -1 -1 
3 -1 -1 
3 -1 -1 
3 -1 -1 
3 -1 -1 
3 -1 -1 
3 -1 -1 
3 -1 -1 
3 -1 -1 
3 -1 -1 
3 -1 -1 
3 -1 -1 
3 -1 -1 
3 -1 -1 
3 -1 -1 
3 -1 -1 
3 -1 -1 
3 -1 -1 
3 -1 -1 
3 -1 -1 
3 -1 -1 
3 -1 -1 
3 -1 -1 
3 -1 -1 
3 -1 -1 
3 -1 -1 
3 -1 -1 
3 -1 -1 
3 -1 -1 
3 -1 -1 
3 -1 -1 
3 -1 -1 
3 -1 -1 
3 -1 -1 
3 -1 -1 
3 -1 -1 
3 -1 -1 
3 -1 -1 
3 -1 -1 
3 -1 -1 
3 -1 -1 
3 -1 -1 
3 -1 -1 
3 -1 -1 
3 -1 -1 
3 -1 -1 
3 -1 -1 
3 -1 -1 
3 -1 -1 
3 -1 -1 
3 -1 -1 
3 -1 -1 
3 -1 -1 
3 -1 -1 
3 -1 -1 
3 -1 -1 
3 -1 -1 
3 -1 -1 
3 -1 -1 
3 -1 -1 
3 -1 -1 
3 -1 -1 
3 -1 -1 
3 -1 -1 
3 -1 -1 
3 -1 -1 
3 -1 -1 
3 -1 -1 
3 -1 -1 
3 -1 -1 
3 -1 -1 
3 -1 -1 
3 -1 -1 
3 -1 -1 
3 -1 -1 
3 -1 -1 
3 -1 -1 
3 -1 -1 
3 -1 -1 
3 -1 -1 
3 -1 -1 
3 -1 -1 
3 -1 -1 
3 -1 -1 
3 -1 -1 
3 -1 -1 
3 -1 -1 
3 -1 -1 
3 -1 -1 
3 -1 -1 
3 -1 -1 
3 -1 -1 
3 -1 -1 
3 -1 -1 
3 -1 -1 
3 -1 -1 
3 -1 -1 
3 -1 -1 
3 -1 -1 
3 -1 -1 
3 -1 -1 
3 -1 -1 
3 -1 -1 
3 -1 -1 
3 -1 -1 
3 -1 -1 
3 -1 -1 
3 -1 -1 
3 -1 -1 
3 -1 -1 
3 -1 -1 
3 -1 -1 
3 -1 -1 
3 -1 -1 
3 -1 -1 
3 -1 -1 
3 -1 -1 
3 -1 -1 
3 -1 -1 
3 -1 -1 
3 -1 -1 
3 -1 -1 
3 -1 -1 
3 -1 -1 
3 -1 -1 
3 -1 -1 
3 -1 -1 
3 -1 -1 
3 -1 -1 
3 -1 -1 
3 -1 -1 
3 -1 -1 
3 -1 -1 
3 -1 -1 
3 -1 -1 
3 -1 -1 
3 -1 -1 
3 -1 -1 
3 -1 -1 
3 -1 -1 
3 -1 -1 
3 -1 -1 
3 -1 -1 
3 -1 -1 
3 -1 -1 
3 -1 -1 
3 -1 -1 
3 -1 -1 
3 -1 -1 
3 -1 -1 
3 -1 -1 
3 -1 -1 
3 -1 -1 
3 -1 -1 
3 -1 -1 
3 -1 -1 
3 -1 -1 
3 -1 -1 
3 -1 -1 
3 -1 -1 
3 -1 -1 
3 -1 -1 
3 -1 -1 
3 -1 -1 
3 -1 -1 
3 -1 -1 
3 -1 -1 
3 -1 -1 
3 -1 -1 
3 -1 -1 
3 -1 -1 
3 -1 -1 
3 -1 -1 
3 -1 -1 
3 -1 -1 
3 -1 -1 
3 -1 -1 
3 -1 -1 
3 -1 -1 
3 -1 -1 
3 -1 -1 
3 -1 -1 
3 -1 -1 
3 -1 -1 
3 -1 -1 
3 -1 -1 
3 -1 -1 
3 -1 -1 
3 -1 -1 
3 -1 -1 
3 -1 -1 
3 -1 -1 
3 -1 -1 
3 -1 -1 
3 -1 -1 
3 -1 -1 
3 -1 -1 
3 -1 -1 
3 -1 -1 
3 -1 -1 
3 -1 -1 
3 -1 -1 
3 -1 -1 
3 -1 -1 
3 -1 -1 
3 -1 -1 
3 -1 -1 
3 -1 -1 
3 -1 -1 
3 -1 -1 
3 -1 -1 
3 -1 -1 
3 -1 -1 
3 -1 -1 
3 -1 -1 
3 -1 -1 
3 -1 -1 
3 -1 -1 
3 -1 -1 
3 -1 -1 
3 -1 -1 
3 -1 -1 
3 -1 -1 
3 -1 -1 
3 -1 -1 
3 -1 -1 
3 -1 -1 
3 -1 -1 
3 -1 -1 
3 -1 -1 
3 -1 -1 
3 -1 -1 
3 -1 -1 
3 -1 -1 
3 -1 -1 
3 -1 -1 
3 -1 -1 
3 -1 -1 
3 -1 -1 
3 -1 -1 
3 -1 -1 
3 -1 -1 
3 -1 -1 
3 -1 -1 
3 -1 -1 
3 -1 -1 
3 -1 -1 
3 -1 -1 
3 -1 -1 
3 -1 -1 
3 -1 -1 
3 -1 -1 
3 -1 -1 
3 -1 -1 
3 -1 -1 
3 -1 -1 
3 -1 -1 
3 -1 -1 
3 -1 -1 
3 -1 -1 
3 -1 -1 
3 -1 -1 
3 -1 -1 
3 -1 -1 
3 -1 -1 
3 -1 -1 
3 -1 -1 
3 -1 -1 
3 -1 -1 
3 -1 -1 
3 -1 -1 
3 -1 -1 
3 -1 -1 
3 -1 -1 
3 -1 -1 
3 -1 -1 
3 -1 -1 
3 -1 -1 
3 -1 -1 
3 -1 -1 
3 -1 -1 
3 -1 -1 
3 -1 -1 
3 -1 -1 
3 -1 -1 
3 -1 -1 
3 -1 -1 
3 -1 -1 
3 -1 -1 
3 -1 -1 
3 -1 -1 
3 -1 -1 
3 -1 -1 
3 -1 -1 
3 -1 -1 
3 -1 -1 
3 -1 -1 
3 -1 -1 
3 -1 -1 
3 -1 -1 
3 -1 -1 
3 -1 -1 
3 -1 -1 
3 -1 -1 
3 -1 -1 
3 -1 -1 
3 -1 -1 
3 -1 -1 
3 -1 -1 
3 -1 -1 
3 -1 -1 
3 -1 -1 
3 -1 -1 
3 -1 -1 
3 -1 -1 
3 -1 -1 
3 -1 -1 
3 -1 -1 
3 -1 -1 
3 -1 -1 
3 -1 -1 
3 -1 -1 
3 -1 -1 
3 -1 -1 
3 -1 -1 
3 -1 -1 
3 -1 -1 
3 -1 -1 
3 -1 -1 
3 -1 -1 
3 -1 -1 
3 -1 -1 
3 -1 -1 
3 -1 -1 
3 -1 -1 
3 -1 -1 
3 -1 -1 
3 -1 -1 
3 -1 -1 
3 -1 -1 
3 -1 -1 
3 -1 -1 
3 -1 -1 
3 -1 -1 
3 -1 -1 
3 -1 -1 
3 -1 -1 
3 -1 -1 
3 -1 -1 
3 -1 -1 
3 -1 -1 
3 -1 -1 
3 -1 -1 
3 -1 -1 
3 -1 -1 
3 -1 -1 
3 -1 -1 
3 -1 -1 
3 -1 -1 
3 -1 -1 
3 -1 -1 
3 -1 -1 
3 -1 -1 
3 -1 -1 
3 -1 -1 
3 -1 -1 
3 -1 -1 
3 -1 -1 
3 -1 -1 
3 -1 -1 
3 -1 -1 
3 -1 -1 
3 -1 -1 
3 -1 -1 
3 -1 -1 
3 -1 -1 
3 -1 -1 
3 -1 -1 
3 -1 -1 
3 -1 -1 
3 -1 -1 
3 -1 -1 
3 -1 -1 
3 -1 -1 
3 -1 -1 
3 -1 -1 
3 -1 -1 
3 -1 -1 
3 -1 -1 
3 -1 -1 
3 -1 -1 
3 -1 -1 
3 -1 -1 
3 -1 -1 
3 -1 -1 
3 -1 -1 
3 -1 -1 
3 -1 -1 
3 -1 -1 
3 -1 -1 
3 -1 -1 
3 -1 -1 
3 -1 -1 
3 -1 -1 
3 -1 -1 
3 -1 -1 
3 -1 -1 
3 -1 -1 
3 -1 -1 
3 -1 -1 
3 -1 -1 
3 -1 -1 
3 -1 -1 
3 -1 -1 
3 -1 -1 
3 -1 -1 
3 -1 -1 
3 -1 -1 
3 -1 -1 
3 -1 -1 
3 -1 -1 
3 -1 -1 
3 -1 -1 
3 -1 -1 
3 -1 -1 
3 -1 -1 
3 -1 -1 
3 -1 -1 
3 -1 -1 
3 -1 -1 
3 -1 -1 
3 -1 -1 
3 -1 -1 
3 -1 -1 
3 -1 -1 
3 -1 -1 
3 -1 -1 
3 -1 -1 
3 -1 -1 
3 -1 -1 
3 -1 -1 
3 -1 -1 
3 -1 -1 
3 -1 -1 
3 -1 -1 
3 -1 -1 
3 -1 -1 
3 -1 -1 
3 -1 -1 
3 -1 -1 
3 -1 -1 
3 -1 -1 
3 -1 -1 
3 -1 -1 
3 -1 -1 
3 -1 -1 
3 -1 -1 
3 -1 -1 
3 -1 -1 
3 -1 -1 
3 -1 -1 
3 -1 -1 
3 -1 -1 
3 -1 -1 
3 -1 -1 
3 -1 -1 
3 -1 -1 
3 -1 -1 
3 -1 -1 
3 -1 -1 
3 -1 -1 
3 -1 -1 
3 -1 -1 
3 -1 -1 
3 -1 -1 
3 -1 -1 
3 -1 -1 
3 -1 -1 
3 -1 -1 
3 -1 -1 
3 -1 -1 
3 -1 -1 
3 -1 -1 
3 -1 -1 
3 -1 -1 
3 -1 -1 
3 -1 -1 
3 -1 -1 
3 -1 -1 
3 -1 -1 
3 -1 -1 
3 -1 -1 
3 -1 -1 
3 -1 -1 
3 -1 -1 
3 -1 -1 
3 -1 -1 
3 -1 -1 
3 -1 -1 
3 -1 -1 
3 -1 -1 
3 -1 -1 
3 -1 -1 
3 -1 -1 
3 -1 -1 
3 -1 -1 
3 -1 -1 
3 -1 -1 
3 -1 -1 
3 -1 -1 
3 -1 -1 
3 -1 -1 
3 -1 -1 
3 -1 -1 
3 -1 -1 
3 -1 -1 
3 -1 -1 
3 -1 -1 
3 -1 -1 
3 -1 -1 
3 -1 -1 
3 -1 -1 
3 -1 -1 
3 -1 -1 
3 -1 -1 
3 -1 -1 
3 -1 -1 
3 -1 -1 
3 -1 -1 
3 -1 -1 
3 -1 -1 
3 -1 -1 
3 -1 -1 
3 -1 -1 
3 -1 -1 
3 -1 -1 
3 -1 -1 
3 -1 -1 
3 -1 -1 
3 -1 -1 
3 -1 -1 
3 -1 -1 
3 -1 -1 
3 -1 -1 
3 -1 -1 
3 -1 -1 
3 -1 -1 
3 -1 -1 
3 -1 -1 
3 -1 -1 
3 -1 -1 
3 -1 -1 
3 -1 -1 
3 -1 -1 
3 -1 -1 
3 -1 -1 
3 -1 -1 
3 -1 -1 
3 -1 -1 
3 -1 -1 
3 -1 -1 
3 -1 -1 
3 -1 -1 
3 -1 -1 
3 -1 -1 
3 -1 -1 
3 -1 -1 
3 -1 -1 
3 -1 -1 
3 -1 -1 
3 -1 -1 
3 -1 -1 
3 -1 -1 
3 -1 -1 
3 -1 -1 
3 -1 -1 
3 -1 -1 
3 -1 -1 
3 -1 -1 
3 -1 -1 
3 -1 -1 
3 -1 -1 
3 -1 -1 
3 -1 -1 
3 -1 -1 
3 -1 -1 
3 -1 -1 
3 -1 -1 
3 -1 -1 
3 -1 -1 
3 -1 -1 
3 -1 -1 
3 -1 -1 
3 -1 -1 
3 -1 -1 
3 -1 -1 
3 -1 -1 
3 -1 -1 
3 -1 -1 
3 -1 -1 
3 -1 -1 
3 -1 -1 
3 -1 -1 
3 -1 -1 
3 -1 -1 
3 -1 -1 
3 -1 -1 
3 -1 -1 
3 -1 -1 
3 -1 -1 
3 -1 -1 
3 -1 -1 
3 -1 -1 
3 -1 -1 
3 -1 -1 
3 -1 -1 
3 -1 -1 
3 -1 -1 
3 -1 -1 
3 -1 -1 
3 -1 -1 
3 -1 -1 
3 -1 -1 
3 -1 -1 
3 -1 -1 
3 -1 -1 
3 -1 -1 
3 -1 -1 
3 -1 -1 
3 -1 -1 
3 -1 -1 
3 -1 -1 
3 -1 -1 
3 -1 -1 
3 -1 -1 
3 -1 -1 
3 -1 -1 
3 -1 -1 
3 -1 -1 
3 -1 -1 
3 -1 -1 
3 -1 -1 
3 -1 -1 
3 -1 -1 
3 -1 -1 
3 -1 -1 
3 -1 -1 
3 -1 -1 
3 -1 -1 
3 -1 -1 
3 -1 -1 
3 -1 -1 
3 -1 -1 
3 -1 -1 
3 -1 -1 
3 -1 -1 
3 -1 -1 
3 -1 -1 
3 -1 -1 
3 -1 -1 
3 -1 -1 
3 -1 -1 
3 -1 -1 
3 -1 -1 
3 -1 -1 
3 -1 -1 
3 -1 -1 
3 -1 -1 
3 -1 -1 
3 -1 -1 
3 -1 -1 
3 -1 -1 
3 -1 -1 
3 -1 -1 
3 -1 -1 
3 -1 -1 
3 -1 -1 
3 -1 -1 
3 -1 -1 
3 -1 -1 
3 -1 -1 
3 -1 -1 
3 -1 -1 
3 -1 -1 
3 -1 -1 
3 -1 -1 
3 -1 -1 
3 -1 -1 
3 -1 -1 
3 -1 -1 
3 -1 -1 
3 -1 -1 
3 -1 -1 
3 -1 -1 
3 -1 -1 
3 -1 -1 
3 -1 -1 
3 -1 -1 
3 -1 -1 
3 -1 -1 
3 -1 -1 
3 -1 -1 
3 -1 -1 
3 -1 -1 
3 -1 -1 
3 -1 -1 
3 -1 -1 
3 -1 -1 
3 -1 -1 
3 -1 -1 
3 -1 -1 
3 -1 -1 
3 -1 -1 
3 -1 -1 
3 -1 -1 
3 -1 -1 
3 -1 -1 
3 -1 -1 
3 -1 -1 
3 -1 -1 
3 -1 -1 
3 -1 -1 
3 -1 -1 
3 -1 -1 
3 -1 -1 
3 -1 -1 
3 -1 -1 
3 -1 -1 
3 -1 -1 
3 -1 -1 
3 -1 -1 
3 -1 -1 
3 -1 -1 
3 -1 -1 
3 -1 -1 
3 -1 -1 
3 -1 -1 
3 -1 -1 
3 -1 -1 
3 -1 -1 
3 -1 -1 
3 -1 -1 
3 -1 -1 
3 -1 -1 
3 -1 -1 
3 -1 -1 
3 -1 -1 
3 -1 -1 
3 -1 -1 
3 -1 -1 
3 -1 -1 
3 -1 -1 
3 -1 -1 
3 -1 -1 
3 -1 -1 
3 -1 -1 
3 -1 -1 
3 -1 -1 
3 -1 -1 
3 -1 -1 
3 -1 -1 
3 -1 -1 
3 -1 -1 
3 -1 -1 
3 -1 -1 
3 -1 -1 
3 -1 -1 
3 -1 -1 
3 -1 -1 
3 -1 -1 
3 -1 -1 
3 -1 -1 
3 -1 -1 
3 -1 -1 
3 -1 -1 
3 -1 -1 
3 -1 -1 
3 -1 -1 
3 -1 -1 
3 -1 -1 
3 -1 -1 
3 -1 -1 
3 -1 -1 
3 -1 -1 
3 -1 -1 
3 -1 -1 
3 -1 -1 
3 -1 -1 
3 -1 -1 
3 -1 -1 
3 -1 -1 
3 -1 -1 
3 -1 -1 
3 -1 -1 
3 -1 -1 
3 -1 -1 
3 -1 -1 
3 -1 -1 
3 -1 -1 
3 -1 -1 
3 -1 -1 
3 -1 -1 
3 -1 -1 
3 -1 -1 
3 -1 -1 
3 -1 -1 
3 -1 -1 
3 -1 -1 
3 -1 -1 
3 -1 -1 
3 -1 -1 
3 -1 -1 
3 -1 -1 
3 -1 -1 
3 -1 -1 
3 -1 -1 
3 -1 -1 
3 -1 -1 
3 -1 -1 
3 -1 -1 
3 -1 -1 
3 -1 -1 
3 -1 -1 
3 -1 -1 
3 -1 -1 
3 -1 -1 
3 -1 -1 
3 -1 -1 
3 -1 -1 
3 -1 -1 
3 -1 -1 
3 -1 -1 
3 -1 -1 
3 -1 -1 
3 -1 -1 
3 -1 -1 
3 -1 -1 
3 -1 -1 
3 -1 -1 
3 -1 -1 
3 -1 -1 
3 -1 -1 
3 -1 -1 
3 -1 -1 
3 -1 -1 
3 -1 -1 
3 -1 -1 
3 -1 -1 
3 -1 -1 
3 -1 -1 
3 -1 -1 
3 -1 -1 
3 -1 -1 
3 -1 -1 
3 -1 -1 
3 -1 -1 
3 -1 -1 
3 -1 -1 
3 -1 -1 
3 -1 -1 
3 -1 -1 
3 -1 -1 
3 -1 -1 
3 -1 -1 
3 -1 -1 
3 -1 -1 
3 -1 -1 
3 -1 -1 
3 -1 -1 
3 -1 -1 
3 -1 -1 
3 -1 -1 
3 -1 -1 
3 -1 -1 
3 -1 -1 
3 -1 -1 
3 -1 -1 
3 -1 -1 
3 -1 -1 
3 -1 -1 
3 -1 -1 
3 -1 -1 
3 -1 -1 
3 -1 -1 
3 -1 -1 
3 -1 -1 
3 -1 -1 
3 -1 -1 
3 -1 -1 
3 -1 -1 
3 -1 -1 
3 -1 -1 
3 -1 -1 
3 -1 -1 
3 -1 -1 
3 -1 -1 
3 -1 -1 
3 -1 -1 
3 -1 -1 
3 -1 -1 
3 -1 -1 
3 -1 -1 
3 -1 -1 
3 -1 -1 
3 -1 -1 
3 -1 -1 
3 -1 -1 
3 -1 -1 
3 -1 -1 
3 -1 -1 
3 -1 -1 
3 -1 -1 
3 -1 -1 
3 -1 -1 
3 -1 -1 
3 -1 -1 
3 -1 -1 
3 -1 -1 
3 -1 -1 
3 -1 -1 
3 -1 -1 
3 -1 -1 
3 -1 -1 
3 -1 -1 
3 -1 -1 
3 -1 -1 
3 -1 -1 
3 -1 -1 
3 -1 -1 
3 -1 -1 
3 -1 -1 
3 -1 -1 
3 -1 -1 
3 -1 -1 
3 -1 -1 
3 -1 -1 
3 -1 -1 
3 -1 -1 
3 -1 -1 
3 -1 -1 
3 -1 -1 
3 -1 -1 
3 -1 -1 
3 -1 -1 
3 -1 -1 
3 -1 -1 
3 -1 -1 
3 -1 -1 
3 -1 -1 
3 -1 -1 
3 -1 -1 
3 -1 -1 
3 -1 -1 
3 -1 -1 
3 -1 -1 
3 -1 -1 
3 -1 -1 
3 -1 -1 
3 -1 -1 
3 -1 -1 
3 -1 -1 
3 -1 -1 
3 -1 -1 
3 -1 -1 
3 -1 -1 
3 -1 -1 
3 -1 -1 
3 -1 -1 
3 -1 -1 
3 -1 -1 
3 -1 -1 
3 -1 -1 
3 -1 -1 
3 -1 -1 
3 -1 -1 
3 -1 -1 
3 -1 -1 
3 -1 -1 
3 -1 -1 
3 -1 -1 
3 -1 -1 
3 -1 -1 
3 -1 -1 
3 -1 -1 
3 -1 -1 
3 -1 -1 
3 -1 -1 
3 -1 -1 
3 -1 -1 
3 -1 -1 
3 -1 -1 
3 -1 -1 
3 -1 -1 
3 -1 -1 
3 -1 -1 
3 -1 -1 
3 -1 -1 
3 -1 -1 
3 -1 -1 
3 -1 -1 
3 -1 -1 
3 -1 -1 
3 -1 -1 
3 -1 -1 
3 -1 -1 
3 -1 -1 
3 -1 -1 
3 -1 -1 
3 -1 -1 
3 -1 -1 
3 -1 -1 
3 -1 -1 
3 -1 -1 
3 -1 -1 
3 -1 -1 
3 -1 -1 
3 -1 -1 
3 -1 -1 
3 -1 -1 
3 -1 -1 
3 -1 -1 
3 -1 -1 
3 -1 -1 
3 -1 -1 
3 -1 -1 
3 -1 -1 
3 -1 -1 
3 -1 -1 
3 -1 -1 
3 -1 -1 
3 -1 -1 
3 -1 -1 
3 -1 -1 
3 -1 -1 
3 -1 -1 
3 -1 -1 
3 -1 -1 
3 -1 -1 
3 -1 -1 
3 -1 -1 
3 -1 -1 
3 -1 -1 
3 -1 -1 
3 -1 -1 
3 -1 -1 
3 -1 -1 
3 -1 -1 
3 -1 -1 
3 -1 -1 
3 -1 -1 
3 -1 -1 
3 -1 -1 
3 -1 -1 
3 -1 -1 
3 -1 -1 
3 -1 -1 
3 -1 -1 
3 -1 -1 
3 -1 -1 
3 -1 -1 
3 -1 -1 
3 -1 -1 
3 -1 -1 
3 -1 -1 
3 -1 -1 
3 -1 -1 
3 -1 -1 
3 -1 -1 
3 -1 -1 
3 -1 -1 
3 -1 -1 
3 -1 -1 
3 -1 -1 
3 -1 -1 
3 -1 -1 
3 -1 -1 
3 -1 -1 
3 -1 -1 
3 -1 -1 
3 -1 -1 
3 -1 -1 
3 -1 -1 
3 -1 -1 
3 -1 -1 
3 -1 -1 
3 -1 -1 
3 -1 -1 
3 -1 -1 
3 -1 -1 
3 -1 -1 
3 -1 -1 
3 -1 -1 
3 -1 -1 
3 -1 -1 
3 -1 -1 
3 -1 -1 
3 -1 -1 
3 -1 -1 
3 -1 -1 
3 -1 -1 
3 -1 -1 
3 -1 -1 
3 -1 -1 
3 -1 -1 
3 -1 -1 
3 -1 -1 
3 -1 -1 
3 -1 -1 
3 -1 -1 
3 -1 -1 
3 -1 -1 
3 -1 -1 
3 -1 -1 
3 -1 -1 
3 -1 -1 
3 -1 -1 
3 -1 -1 
3 -1 -1 
3 -1 -1 
3 -1 -1 
3 -1 -1 
3 -1 -1 
3 -1 -1 
3 -1 -1 
3 -1 -1 
3 -1 -1 
3 -1 -1 
3 -1 -1 
3 -1 -1 
3 -1 -1 
3 -1 -1 
3 -1 -1 
3 -1 -1 
3 -1 -1 
3 -1 -1 
3 -1 -1 
3 -1 -1 
3 -1 -1 
3 -1 -1 
3 -1 -1 
3 -1 -1 
3 -1 -1 
3 -1 -1 
3 -1 -1 
3 -1 -1 
3 -1 -1 
3 -1 -1 
3 -1 -1 
3 -1 -1 
3 -1 -1 
3 -1 -1 
3 -1 -1 
3 -1 -1 
3 -1 -1 
3 -1 -1 
3 -1 -1 
3 -1 -1 
3 -1 -1 
3 -1 -1 
3 -1 -1 
3 -1 -1 
3 -1 -1 
3 -1 -1 
3 -1 -1 
3 -1 -1 
3 -1 -1 
3 -1 -1 
3 -1 -1 
3 -1 -1 
3 -1 -1 
3 -1 -1 
3 -1 -1 
3 -1 -1 
3 -1 -1 
3 -1 -1 
3 -1 -1 
3 -1 -1 
3 -1 -1 
3 -1 -1 
3 -1 -1 
3 -1 -1 
3 -1 -1 
3 -1 -1 
3 -1 -1 
3 -1 -1 
3 -1 -1 
3 -1 -1 
3 -1 -1 
3 -1 -1 
3 -1 -1 
3 -1 -1 
3 -1 -1 
3 -1 -1 
3 -1 -1 
3 -1 -1 
3 -1 -1 
3 -1 -1 
3 -1 -1 
3 -1 -1 
3 -1 -1 
3 -1 -1 
3 -1 -1 
3 -1 -1 
3 -1 -1 
3 -1 -1 
3 -1 -1 
3 -1 -1 
3 -1 -1 
3 -1 -1 
3 -1 -1 
3 -1 -1 
3 -1 -1 
3 -1 -1 
3 -1 -1 
3 -1 -1 
3 -1 -1 
3 -1 -1 
3 -1 -1 
3 -1 -1 
3 -1 -1 
3 -1 -1 
3 -1 -1 
3 -1 -1 
3 -1 -1 
3 -1 -1 
3 -1 -1 
3 -1 -1 
3 -1 -1 
3 -1 -1 
3 -1 -1 
3 -1 -1 
3 -1 -1 
3 -1 -1 
3 -1 -1 
3 -1 -1 
3 -1 -1 
3 -1 -1 
3 -1 -1 
3 -1 -1 
3 -1 -1 
3 -1 -1 
3 -1 -1 
3 -1 -1 
3 -1 -1 
3 -1 -1 
3 -1 -1 
3 -1 -1 
3 -1 -1 
3 -1 -1 
3 -1 -1 
3 -1 -1 
3 -1 -1 
3 -1 -1 
3 -1 -1 
3 -1 -1 
3 -1 -1 
3 -1 -1 
3 -1 -1 
3 -1 -1 
3 -1 -1 
3 -1 -1 
3 -1 -1 
3 -1 -1 
3 -1 -1 
3 -1 -1 
3 -1 -1 
3 -1 -1 
3 -1 -1 
3 -1 -1 
3 -1 -1 
3 -1 -1 
3 -1 -1 
3 -1 -1 
3 -1 -1 
3 -1 -1 
3 -1 -1 
3 -1 -1 
3 -1 -1 
3 -1 -1 
3 -1 -1 
3 -1 -1 
3 -1 -1 
3 -1 -1 
3 -1 -1 
3 -1 -1 
3 -1 -1 
3 -1 -1 
3 -1 -1 
3 -1 -1 
3 -1 -1 
3 -1 -1 
3 -1 -1 
3 -1 -1 
3 -1 -1 
3 -1 -1 
3 -1 -1 
3 -1 -1 
3 -1 -1 
3 -1 -1 
3 -1 -1 
3 -1 -1 
3 -1 -1 
3 -1 -1 
3 -1 -1 
3 -1 -1 
3 -1 -1 
3 -1 -1 
3 -1 -1 
3 -1 -1 
3 -1 -1 
3 -1 -1 
3 -1 -1 
3 -1 -1 
3 -1 -1 
3 -1 -1 
3 -1 -1 
3 -1 -1 
3 -1 -1 
3 -1 -1 
3 -1 -1 
3 -1 -1 
3 -1 -1 
3 -1 -1 
3 -1 -1 
3 -1 -1 
3 -1 -1 
3 -1 -1 
3 -1 -1 
3 -1 -1 
3 -1 -1 
3 -1 -1 
3 -1 -1 
3 -1 -1 
3 -1 -1 
3 -1 -1 
3 -1 -1 
3 -1 -1 
3 -1 -1 
3 -1 -1 
3 -1 -1 
3 -1 -1 
3 -1 -1 
3 -1 -1 
3 -1 -1 
3 -1 -1 
3 -1 -1 
3 -1 -1 
3 -1 -1 
3 -1 -1 
3 -1 -1 
3 -1 -1 
3 -1 -1 
3 -1 -1 
3 -1 -1 
3 -1 -1 
3 -1 -1 
3 -1 -1 
3 -1 -1 
3 -1 -1 
3 -1 -1 
3 -1 -1 
3 -1 -1 
3 -1 -1 
3 -1 -1 
3 -1 -1 
3 -1 -1 
3 -1 -1 
3 -1 -1 
3 -1 -1 
3 -1 -1 
3 -1 -1 
3 -1 -1 
3 -1 -1 
3 -1 -1 
3 -1 -1 
3 -1 -1 
3 -1 -1 
3 -1 -1 
3 -1 -1 
3 -1 -1 
3 -1 -1 
3 -1 -1 
3 -1 -1 
3 -1 -1 
3 -1 -1 
3 -1 -1 
3 -1 -1 
3 -1 -1 
3 -1 -1 
3 -1 -1 
3 -1 -1 
3 -1 -1 
3 -1 -1 
3 -1 -1 
3 -1 -1 
3 -1 -1 
3 -1 -1 
3 -1 -1 
3 -1 -1 
3 -1 -1 
3 -1 -1 
3 -1 -1 
3 -1 -1 
3 -1 -1 
3 -1 -1 
3 -1 -1 
3 -1 -1 
3 -1 -1 
3 -1 -1 
3 -1 -1 
3 -1 -1 
3 -1 -1 
3 -1 -1 
3 -1 -1 
3 -1 -1 
3 -1 -1 
3 -1 -1 
3 -1 -1 
3 -1 -1 
3 -1 -1 
3 -1 -1 
3 -1 -1 
3 -1 -1 
3 -1 -1 
3 -1 -1 
3 -1 -1 
3 -1 -1 
3 -1 -1 
3 -1 -1 
3 -1 -1 
3 -1 -1 
3 -1 -1 
3 -1 -1 
3 -1 -1 
3 -1 -1 
3 -1 -1 
3 -1 -1 
3 -1 -1 
3 -1 -1 
3 -1 -1 
3 -1 -1 
3 -1 -1 
3 -1 -1 
3 -1 -1 
3 -1 -1 
3 -1 -1 
3 -1 -1 
3 -1 -1 
3 -1 -1 
3 -1 -1 
3 -1 -1 
3 -1 -1 
3 -1 -1 
3 -1 -1 
3 -1 -1 
3 -1 -1 
3 -1 -1 
3 -1 -1 
3 -1 -1 
3 -1 -1 
3 -1 -1 
3 -1 -1 
3 -1 -1 
3 -1 -1 
3 -1 -1 
3 -1 -1 
3 -1 -1 
3 -1 -1 
3 -1 -1 
3 -1 -1 
3 -1 -1 
3 -1 -1 
3 -1 -1 
3 -1 -1 
3 -1 -1 
3 -1 -1 
3 -1 -1 
3 -1 -1 
3 -1 -1 
3 -1 -1 
3 -1 -1 
3 -1 -1 
3 -1 -1 
3 -1 -1 
3 -1 -1 
3 -1 -1 
3 -1 -1 
3 -1 -1 
3 -1 -1 
3 -1 -1 
3 -1 -1 
3 -1 -1 
3 -1 -1 
3 -1 -1 
3 -1 -1 
3 -1 -1 
3 -1 -1 
3 -1 -1 
3 -1 -1 
3 -1 -1 
3 -1 -1 
3 -1 -1 
3 -1 -1 
3 -1 -1 
3 -1 -1 
3 -1 -1 
3 -1 -1 
3 -1 -1 
3 -1 -1 
3 -1 -1 
3 -1 -1 
3 -1 -1 
3 -1 -1 
3 -1 -1 
3 -1 -1 
3 -1 -1 
3 -1 -1 
3 -1 -1 
3 -1 -1 
3 -1 -1 
3 -1 -1 
3 -1 -1 
3 -1 -1 
3 -1 -1 
3 -1 -1 
3 -1 -1 
3 -1 -1 
3 -1 -1 
3 -1 -1 
3 -1 -1 
3 -1 -1 
3 -1 -1 
3 -1 -1 
3 -1 -1 
3 -1 -1 
3 -1 -1 
3 -1 -1 
3 -1 -1 
3 -1 -1 
3 -1 -1 
3 -1 -1 
3 -1 -1 
3 -1 -1 
3 -1 -1 
3 -1 -1 
3 -1 -1 
3 -1 -1 
3 -1 -1 
3 -1 -1 
3 -1 -1 
3 -1 -1 
3 -1 -1 
3 -1 -1 
3 -1 -1 
3 -1 -1 
3 -1 -1 
3 -1 -1 
3 -1 -1 
3 -1 -1 
3 -1 -1 
3 -1 -1 
3 -1 -1 
3 -1 -1 
3 -1 -1 
3 -1 -1 
3 -1 -1 
3 -1 -1 
3 -1 -1 
3 -1 -1 
3 -1 -1 
3 -1 -1 
3 -1 -1 
3 -1 -1 
3 -1 -1 
3 -1 -1 
3 -1 -1 
3 -1 -1 
3 -1 -1 
3 -1 -1 
3 -1 -1 
3 -1 -1 
3 -1 -1 
3 -1 -1 
3 -1 -1 
3 -1 -1 
3 -1 -1 
3 -1 -1 
3 -1 -1 
3 -1 -1 
3 -1 -1 
3 -1 -1 
3 -1 -1 
3 -1 -1 
3 -1 -1 
3 -1 -1 
3 -1 -1 
3 -1 -1 
3 -1 -1 
3 -1 -1 
3 -1 -1 
3 -1 -1 
3 -1 -1 
3 -1 -1 
3 -1 -1 
3 -1 -1 
3 -1 -1 
3 -1 -1 
3 -1 -1 
3 -1 -1 
3 -1 -1 
3 -1 -1 
3 -1 -1 
3 -1 -1 
3 -1 -1 
3 -1 -1 
3 -1 -1 
3 -1 -1 
3 -1 -1 
3 -1 -1 
3 -1 -1 
3 -1 -1 
3 -1 -1 
3 -1 -1 
3 -1 -1 
3 -1 -1 
3 -1 -1 
3 -1 -1 
3 -1 -1 
3 -1 -1 
3 -1 -1 
3 -1 -1 
3 -1 -1 
3 -1 -1 
3 -1 -1 
3 -1 -1 
3 -1 -1 
3 -1 -1 
3 -1 -1 
3 -1 -1 
3 -1 -1 
3 -1 -1 
3 -1 -1 
3 -1 -1 
3 -1 -1 
3 -1 -1 
3 -1 -1 
3 -1 -1 
3 -1 -1 
3 -1 -1 
3 -1 -1 
3 -1 -1 
3 -1 -1 
3 -1 -1 
3 -1 -1 
3 -1 -1 
3 -1 -1 
3 -1 -1 
3 -1 -1 
3 -1 -1 
3 -1 -1 
3 -1 -1 
3 -1 -1 
3 -1 -1 
3 -1 -1 
3 -1 -1 
3 -1 -1 
3 -1 -1 
3 -1 -1 
3 -1 -1 
3 -1 -1 
3 -1 -1 
3 -1 -1 
3 -1 -1 
3 -1 -1 
3 -1 -1 
3 -1 -1 
3 -1 -1 
3 -1 -1 
3 -1 -1 
3 -1 -1 
3 -1 -1 
3 -1 -1 
3 -1 -1 
3 -1 -1 
3 -1 -1 
3 -1 -1 
3 -1 -1 
3 -1 -1 
3 -1 -1 
3 -1 -1 
3 -1 -1 
3 -1 -1 
3 -1 -1 
3 -1 -1 
3 -1 -1 
3 -1 -1 
3 -1 -1 
3 -1 -1 
3 -1 -1 
3 -1 -1 
3 -1 -1 
3 -1 -1 
3 -1 -1 
3 -1 -1 
3 -1 -1 
3 -1 -1 
3 -1 -1 
3 -1 -1 
3 -1 -1 
3 -1 -1 
3 -1 -1 
3 -1 -1 
3 -1 -1 
3 -1 -1 
3 -1 -1 
3 -1 -1 
3 -1 -1 
3 -1 -1 
3 -1 -1 
3 -1 -1 
3 -1 -1 
3 -1 -1 
3 -1 -1 
3 -1 -1 
3 -1 -1 
3 -1 -1 
3 -1 -1 
3 -1 -1 
3 -1 -1 
3 -1 -1 
3 -1 -1 
3 -1 -1 
3 -1 -1 
3 -1 -1 
3 -1 -1 
3 -1 -1 
3 -1 -1 
3 -1 -1 
3 -1 -1 
3 -1 -1 
3 -1 -1 
3 -1 -1 
3 -1 -1 
3 -1 -1 
3 -1 -1 
3 -1 -1 
3 -1 -1 
3 -1 -1 
3 -1 -1 
3 -1 -1 
3 -1 -1 
3 -1 -1 
3 -1 -1 
3 -1 -1 
3 -1 -1 
3 -1 -1 
3 -1 -1 
3 -1 -1 
3 -1 -1 
3 -1 -1 
3 -1 -1 
3 -1 -1 
3 -1 -1 
3 -1 -1 
3 -1 -1 
3 -1 -1 
3 -1 -1 
3 -1 -1 
3 -1 -1 
3 -1 -1 
3 -1 -1 
3 -1 -1 
3 -1 -1 
3 -1 -1 
3 -1 -1 
3 -1 -1 
3 -1 -1 
3 -1 -1 
3 -1 -1 
3 -1 -1 
3 -1 -1 
3 -1 -1 
3 -1 -1 
3 -1 -1 
3 -1 -1 
3 -1 -1 
3 -1 -1 
3 -1 -1 
3 -1 -1 
3 -1 -1 
3 -1 -1 
3 -1 -1 
3 -1 -1 
3 -1 -1 
3 -1 -1 
3 -1 -1 
3 -1 -1 
3 -1 -1 
3 -1 -1 
3 -1 -1 
3 -1 -1 
3 -1 -1 
3 -1 -1 
3 -1 -1 
3 -1 -1 
3 -1 -1 
3 -1 -1 
3 -1 -1 
3 -1 -1 
3 -1 -1 
3 -1 -1 
3 -1 -1 
3 -1 -1 
3 -1 -1 
3 -1 -1 
3 -1 -1 
3 -1 -1 
3 -1 -1 
3 -1 -1 
3 -1 -1 
3 -1 -1 
3 -1 -1 
3 -1 -1 
3 -1 -1 
3 -1 -1 
3 -1 -1 
3 -1 -1 
3 -1 -1 
3 -1 -1 
3 -1 -1 
3 -1 -1 
3 -1 -1 
3 -1 -1 
3 -1 -1 
3 -1 -1 
3 -1 -1 
3 -1 -1 
3 -1 -1 
3 -1 -1 
3 -1 -1 
3 -1 -1 
3 -1 -1 
3 -1 -1 
3 -1 -1 
3 -1 -1 
3 -1 -1 
3 -1 -1 
3 -1 -1 
3 -1 -1 
3 -1 -1 
3 -1 -1 
3 -1 -1 
3 -1 -1 
3 -1 -1 
3 -1 -1 
3 -1 -1 
3 -1 -1 
3 -1 -1 
3 -1 -1 
3 -1 -1 
3 -1 -1 
3 -1 -1 
3 -1 -1 
3 -1 -1 
3 -1 -1 
3 -1 -1 
3 -1 -1 
3 -1 -1 
3 -1 -1 
3 -1 -1 
3 -1 -1 
3 -1 -1 
3 -1 -1 
3 -1 -1 
3 -1 -1 
3 -1 -1 
3 -1 -1 
3 -1 -1 
3 -1 -1 
3 -1 -1 
3 -1 -1 
3 -1 -1 
3 -1 -1 
3 -1 -1 
3 -1 -1 
3 -1 -1 
3 -1 -1 
3 -1 -1 
3 -1 -1 
3 -1 -1 
3 -1 -1 
3 -1 -1 
3 -1 -1 
3 -1 -1 
3 -1 -1 
3 -1 -1 
3 -1 -1 
3 -1 -1 
3 -1 -1 
3 -1 -1 
3 -1 -1 
3 -1 -1 
3 -1 -1 
3 -1 -1 
3 -1 -1 
3 -1 -1 
3 -1 -1 
3 -1 -1 
3 -1 -1 
3 -1 -1 
3 -1 -1 
3 -1 -1 
3 -1 -1 
3 -1 -1 
3 -1 -1 
3 -1 -1 
3 -1 -1 
3 -1 -1 
3 -1 -1 
3 -1 -1 
3 -1 -1 
3 -1 -1 
3 -1 -1 
3 -1 -1 
3 -1 -1 
3 -1 -1 
3 -1 -1 
3 -1 -1 
3 -1 -1 
3 -1 -1 
3 -1 -1 
3 -1 -1 
3 -1 -1 
3 -1 -1 
3 -1 -1 
3 -1 -1 
3 -1 -1 
3 -1 -1 
3 -1 -1 
3 -1 -1 
3 -1 -1 
3 -1 -1 
3 -1 -1 
3 -1 -1 
3 -1 -1 
3 -1 -1 
3 -1 -1 
3 -1 -1 
3 -1 -1 
3 -1 -1 
3 -1 -1 
3 -1 -1 
3 -1 -1 
3 -1 -1 
3 -1 -1 
3 -1 -1 
3 -1 -1 
3 -1 -1 
3 -1 -1 
3 -1 -1 
3 -1 -1 
3 -1 -1 
3 -1 -1 
3 -1 -1 
3 -1 -1 
3 -1 -1 
3 -1 -1 
3 -1 -1 
3 -1 -1 
3 -1 -1 
3 -1 -1 
3 -1 -1 
3 -1 -1 
3 -1 -1 
3 -1 -1 
3 -1 -1 
3 -1 -1 
3 -1 -1 
3 -1 -1 
3 -1 -1 
3 -1 -1 
3 -1 -1 
3 -1 -1 
3 -1 -1 
3 -1 -1 
3 -1 -1 
3 -1 -1 
3 -1 -1 
3 -1 -1 
3 -1 -1 
3 -1 -1 
3 -1 -1 
3 -1 -1 
3 -1 -1 
3 -1 -1 
3 -1 -1 
3 -1 -1 
3 -1 -1 
3 -1 -1 
3 -1 -1 
3 -1 -1 
3 -1 -1 
3 -1 -1 
3 -1 -1 
3 -1 -1 
3 -1 -1 
3 -1 -1 
3 -1 -1 
3 -1 -1 
3 -1 -1 
3 -1 -1 
3 -1 -1 
3 -1 -1 
3 -1 -1 
3 -1 -1 
3 -1 -1 
3 -1 -1 
3 -1 -1 
3 -1 -1 
3 -1 -1 
3 -1 -1 
3 -1 -1 
3 -1 -1 
3 -1 -1 
3 -1 -1 
3 -1 -1 
3 -1 -1 
3 -1 -1 
3 -1 -1 
3 -1 -1 
3 -1 -1 
3 -1 -1 
3 -1 -1 
3 -1 -1 
3 -1 -1 
3 -1 -1 
3 -1 -1 
3 -1 -1 
3 -1 -1 
3 -1 -1 
3 -1 -1 
3 -1 -1 
3 -1 -1 
3 -1 -1 
3 -1 -1 
3 -1 -1 
3 -1 -1 
3 -1 -1 
3 -1 -1 
3 -1 -1 
3 -1 -1 
3 -1 -1 
3 -1 -1 
3 -1 -1 
3 -1 -1 
3 -1 -1 
3 -1 -1 
3 -1 -1 
3 -1 -1 
3 -1 -1 
3 -1 -1 
3 -1 -1 
3 -1 -1 
3 -1 -1 
3 -1 -1 
3 -1 -1 
3 -1 -1 
3 -1 -1 
3 -1 -1 
3 -1 -1 
3 -1 -1 
3 -1 -1 
3 -1 -1 
3 -1 -1 
3 -1 -1 
3 -1 -1 
3 -1 -1 
3 -1 -1 
3 -1 -1 
3 -1 -1 
3 -1 -1 
3 -1 -1 
3 -1 -1 
3 -1 -1 
3 -1 -1 
3 -1 -1 
3 -1 -1 
3 -1 -1 
3 -1 -1 
3 -1 -1 
3 -1 -1 
3 -1 -1 
3 -1 -1 
3 -1 -1 
3 -1 -1 
3 -1 -1 
3 -1 -1 
3 -1 -1 
3 -1 -1 
3 -1 -1 
3 -1 -1 
3 -1 -1 
3 -1 -1 
3 -1 -1 
3 -1 -1 
3 -1 -1 
3 -1 -1 
3 -1 -1 
3 -1 -1 
3 -1 -1 
3 -1 -1 
3 -1 -1 
3 -1 -1 
3 -1 -1 
3 -1 -1 
3 -1 -1 
3 -1 -1 
3 -1 -1 
3 -1 -1 
3 -1 -1 
3 -1 -1 
3 -1 -1 
3 -1 -1 
3 -1 -1 
3 -1 -1 
3 -1 -1 
3 -1 -1 
3 -1 -1 
3 -1 -1 
3 -1 -1 
3 -1 -1 
3 -1 -1 
3 -1 -1 
3 -1 -1 
3 -1 -1 
3 -1 -1 
3 -1 -1 
3 -1 -1 
3 -1 -1 
3 -1 -1 
3 -1 -1 
3 -1 -1 
3 -1 -1 
3 -1 -1 
3 -1 -1 
3 -1 -1 
3 -1 -1 
3 -1 -1 
3 -1 -1 
3 -1 -1 
3 -1 -1 
3 -1 -1 
3 -1 -1 
3 -1 -1 
3 -1 -1 
3 -1 -1 
3 -1 -1 
3 -1 -1 
3 -1 -1 
3 -1 -1 
3 -1 -1 
3 -1 -1 
3 -1 -1 
3 -1 -1 
3 -1 -1 
3 -1 -1 
3 -1 -1 
3 -1 -1 
3 -1 -1 
3 -1 -1 
3 -1 -1 
3 -1 -1 
3 -1 -1 
3 -1 -1 
3 -1 -1 
3 -1 -1 
3 -1 -1 
3 -1 -1 
3 -1 -1 
3 -1 -1 
3 -1 -1 
3 -1 -1 
3 -1 -1 
3 -1 -1 
3 -1 -1 
3 -1 -1 
3 -1 -1 
3 -1 -1 
3 -1 -1 
3 -1 -1 
3 -1 -1 
3 -1 -1 
3 -1 -1 
3 -1 -1 
3 -1 -1 
3 -1 -1 
3 -1 -1 
3 -1 -1 
3 -1 -1 
3 -1 -1 
3 -1 -1 
3 -1 -1 
3 -1 -1 
3 -1 -1 
3 -1 -1 
3 -1 -1 
3 -1 -1 
3 -1 -1 
3 -1 -1 
3 -1 -1 
3 -1 -1 
3 -1 -1 
3 -1 -1 
3 -1 -1 
3 -1 -1 
3 -1 -1 
3 -1 -1 
3 -1 -1 
3 -1 -1 
3 -1 -1 
3 -1 -1 
3 -1 -1 
3 -1 -1 
3 -1 -1 
3 -1 -1 
3 -1 -1 
3 -1 -1 
3 -1 -1 
3 -1 -1 
3 -1 -1 
3 -1 -1 
3 -1 -1 
3 -1 -1 
3 -1 -1 
3 -1 -1 
3 -1 -1 
3 -1 -1 
3 -1 -1 
3 -1 -1 
3 -1 -1 
3 -1 -1 
3 -1 -1 
3 -1 -1 
3 -1 -1 
3 -1 -1 
3 -1 -1 
3 -1 -1 
3 -1 -1 
3 -1 -1 
3 -1 -1 
3 -1 -1 
3 -1 -1 
3 -1 -1 
3 -1 -1 
3 -1 -1 
3 -1 -1 
3 -1 -1 
3 -1 -1 
3 -1 -1 
3 -1 -1 
3 -1 -1 
3 -1 -1 
3 -1 -1 
3 -1 -1 
3 -1 -1 
3 -1 -1 
3 -1 -1 
3 -1 -1 
3 -1 -1 
3 -1 -1 
3 -1 -1 
3 -1 -1 
3 -1 -1 
3 -1 -1 
3 -1 -1 
3 -1 -1 
3 -1 -1 
3 -1 -1 
3 -1 -1 
3 -1 -1 
3 -1 -1 
3 -1 -1 
3 -1 -1 
3 -1 -1 
3 -1 -1 
3 -1 -1 
3 -1 -1 
3 -1 -1 
3 -1 -1 
3 -1 -1 
3 -1 -1 
3 -1 -1 
3 -1 -1 
3 -1 -1 
3 -1 -1 
3 -1 -1 
3 -1 -1 
3 -1 -1 
3 -1 -1 
3 -1 -1 
3 -1 -1 
3 -1 -1 
3 -1 -1 
3 -1 -1 
3 -1 -1 
3 -1 -1 
3 -1 -1 
3 -1 -1 
3 -1 -1 
3 -1 -1 
3 -1 -1 
3 -1 -1 
3 -1 -1 
3 -1 -1 
3 -1 -1 
3 -1 -1 
3 -1 -1 
3 -1 -1 
3 -1 -1 
3 -1 -1 
3 -1 -1 
3 -1 -1 
3 -1 -1 
3 -1 -1 
3 -1 -1 
3 -1 -1 
3 -1 -1 
3 -1 -1 
3 -1 -1 
3 -1 -1 
3 -1 -1 
3 -1 -1 
3 -1 -1 
3 -1 -1 
3 -1 -1 
3 -1 -1 
3 -1 -1 
3 -1 -1 
3 -1 -1 
3 -1 -1 
3 -1 -1 
3 -1 -1 
3 -1 -1 
3 -1 -1 
3 -1 -1 
3 -1 -1 
3 -1 -1 
3 -1 -1 
3 -1 -1 
3 -1 -1 
3 -1 -1 
3 -1 -1 
3 -1 -1 
3 -1 -1 
3 -1 -1 
3 -1 -1 
3 -1 -1 
3 -1 -1 
3 -1 -1 
3 -1 -1 
3 -1 -1 
3 -1 -1 
3 -1 -1 
3 -1 -1 
3 -1 -1 
3 -1 -1 
3 -1 -1 
3 -1 -1 
3 -1 -1 
3 -1 -1 
3 -1 -1 
3 -1 -1 
3 -1 -1 
3 -1 -1 
3 -1 -1 
3 -1 -1 
3 -1 -1 
3 -1 -1 
3 -1 -1 
3 -1 -1 
3 -1 -1 
3 -1 -1 
3 -1 -1 
3 -1 -1 
3 -1 -1 
3 -1 -1 
3 -1 -1 
3 -1 -1 
3 -1 -1 
3 -1 -1 
3 -1 -1 
3 -1 -1 
3 -1 -1 
3 -1 -1 
3 -1 -1 
3 -1 -1 
3 -1 -1 
3 -1 -1 
3 -1 -1 
3 -1 -1 
