0
SECTION
2
HEADER
9
$INSUNITS
70
4
9
$ACADVER
1
AC1014
9
$HANDSEED
5
FFFF
0
ENDSEC
0
SECTION
2
TABLES
0
TABLE
2
VPORT
5
8
100
AcDbSymbolTable
0
ENDTAB
0
TABLE
2
LTYPE
5
5
100
AcDbSymbolTable
0
LTYPE
5
14
100
AcDbSymbolTableRecord
100
AcDbLinetypeTableRecord
2
BYBLOCK
70
0
0
LTYPE
5
15
100
AcDbSymbolTableRecord
100
AcDbLinetypeTableRecord
2
BYLAYER
70
0
0
LTYPE
5
16
100
AcDbSymbolTableRecord
100
AcDbLinetypeTableRecord
2
DASHED
70
0
3
Dashed __ __ __ __ __ __ __ __ __ __ __ __ __ _
72
65
73
2
40
0.75
49
0.5
74
0
49
-0.25
74
0
0
ENDTAB
0
TABLE
2
LAYER
5
2
100
AcDbSymbolTable
70
2
0
LAYER
5
50
100
AcDbSymbolTableRecord
100
AcDbLayerTableRecord
2
0
70
0
62
7
6
CONTINUOUS
0
ENDTAB
0
TABLE
2
STYLE
5
3
100
AcDbSymbolTable
70
1
0
STYLE
5
11
100
AcDbSymbolTableRecord
100
AcDbTextStyleTableRecord
2
STANDARD
70
0
0
ENDTAB
0
TABLE
2
VIEW
5
6
100
AcDbSymbolTable
70
0
0
ENDTAB
0
TABLE
2
UCS
5
7
100
AcDbSymbolTable
70
0
0
ENDTAB
0
TABLE
2
APPID
5
9
100
AcDbSymbolTable
70
2
0
APPID
5
12
100
AcDbSymbolTableRecord
100
AcDbRegAppTableRecord
2
ACAD
70
0
0
ENDTAB
0
TABLE
2
DIMSTYLE
5
A
100
AcDbSymbolTable
70
1
0
ENDTAB
0
TABLE
2
BLOCK_RECORD
5
1
100
AcDbSymbolTable
70
1
0
BLOCK_RECORD
5
1F
100
AcDbSymbolTableRecord
100
AcDbBlockTableRecord
2
*MODEL_SPACE
0
BLOCK_RECORD
5
1B
100
AcDbSymbolTableRecord
100
AcDbBlockTableRecord
2
*PAPER_SPACE
0
ENDTAB
0
ENDSEC
0
SECTION
2
BLOCKS
0
BLOCK
5
20
100
AcDbEntity
100
AcDbBlockBegin
2
*MODEL_SPACE
0
ENDBLK
5
21
100
AcDbEntity
100
AcDbBlockEnd
0
BLOCK
5
1C
100
AcDbEntity
100
AcDbBlockBegin
2
*PAPER_SPACE
0
ENDBLK
5
1D
100
AcDbEntity
100
AcDbBlockEnd
0
ENDSEC
0
SECTION
2
ENTITIES
0
SPLINE
5
100
100
AcDbEntity
8
0
100
AcDbSpline
70
0
71
3
72
10
73
6
74
0
42
0.000000001
43
0.0000000001
44
0.0000000001
40
-1.150802160388589
40
-1.150802160388589
40
-1.150802160388589
40
-1.150802160388589
40
-0.56810994746402166
40
-0.56810994746402166
40
0
40
0
40
0
40
0
10
-3214.0179000781268
20
9.2298925822894358
30
2.3191762095821954e-16
10
-3215.9144437232235
20
8.8123636765729092
30
2.3191762095821954e-16
10
-3217.8103791117296
20
8.3829289777419831
30
-3.2319389135435873e-16
10
-3221.5451258125518
20
7.5086672975238695
30
-3.2319389135435873e-16
10
-3223.3870018342732
20
7.0638355632850116
30
-3.2319389135435873e-16
10
-3225.2240696746862
20
6.6041826763461851
30
-3.2319389135435873e-16
0
LINE
5
101
100
AcDbEntity
8
0
100
AcDbLine
10
-3225.2240696746862
20
6.6041826763461851
30
-3.2319389135435873e-16
11
-3237.0818820136365
21
3.6168429888321336
31
7.8702913327079781e-16
0
ARC
5
102
100
AcDbEntity
8
0
100
AcDbCircle
10
-3236.3489918038149
20
0.70774141955821124
30
-4.5638135198069591e-17
40
3.000000000000826
210
6.7805965455526446e-17
220
-2.6914596193160874e-16
230
1
100
AcDbArc
50
104.14027686787415
51
180
0
LINE
5
103
100
AcDbEntity
8
0
100
AcDbLine
10
-3239.3489918038154
20
0.70774141955781111
30
-4.5638135198069591e-17
11
-3239.3489918038167
21
-0.7077785357448092
31
9.3139742880074977e-17
0
ARC
5
104
100
AcDbEntity
8
0
100
AcDbCircle
10
-3236.3489918038135
20
-0.70777853574638816
30
2.3750803841002693e-17
40
3.0000000000029559
210
2.3129646346334638e-17
220
-1.2172947209583557e-29
230
1
100
AcDbArc
50
180
51
255.85972313208285
0
LINE
5
105
100
AcDbEntity
8
0
100
AcDbLine
10
-3237.0818820136374
20
-3.616880105020122
30
2.3750803841002693e-17
11
-3225.2240696746999
21
-6.6042197925858463
31
-4.5638135198069591e-17
0
SPLINE
5
106
100
AcDbEntity
8
0
100
AcDbSpline
70
0
71
3
72
10
73
6
74
0
42
0.000000001
43
0.0000000001
44
0.0000000001
40
-1.1505962728713759
40
-1.1505962728713759
40
-1.1505962728713759
40
-1.1505962728713759
40
-0.58258796472423724
40
-0.58258796472423724
40
0
40
0
40
0
40
0
10
-3225.2240696746862
20
-6.6042197925417252
30
2.3191762095821954e-16
10
-3223.3870018342691
20
-7.0638726794725386
30
2.3191762095821954e-16
10
-3221.5451258125531
20
-7.5087044137089167
30
-3.2319389135435873e-16
10
-3217.8103791117269
20
-8.3829660939286939
30
-3.2319389135435873e-16
10
-3215.9144437232335
20
-8.812400792759135
30
2.3191762095821954e-16
10
-3214.0179000781263
20
-9.2299296984762549
30
-3.2319389135435873e-16
0
LINE
5
107
100
AcDbEntity
8
0
100
AcDbLine
10
-3214.0179000781263
20
-9.2299296984762567
30
-3.2319389135435843e-16
11
-3213.4494442312662
21
-9.3552172057287404
31
-3.2319389135435873e-16
0
LINE
5
108
100
AcDbEntity
8
0
100
AcDbLine
10
-3213.4494442312662
20
-9.3552172057287404
30
-3.2319389135435873e-16
11
-3212.8166658320824
21
-9.4955925102157241
31
2.3191762095821954e-16
0
SPLINE
5
109
100
AcDbEntity
8
0
100
AcDbSpline
70
0
71
3
72
10
73
6
74
0
42
0.000000001
43
0.0000000001
44
0.0000000001
40
-1.6042453112812332
40
-1.6042453112812332
40
-1.6042453112812332
40
-1.6042453112812332
40
-0.81845427662378878
40
-0.81845427662378878
40
0
40
0
40
0
40
0
10
-3212.816665832067
20
-9.4955925101434406
30
2.3191762095821954e-16
10
-3210.2589415067987
20
-10.062794118970174
30
7.8702913327079781e-16
10
-3207.6969585258007
20
-10.612023284031661
30
-3.2319389135435873e-16
10
-3202.4608320870029
20
-11.700657553796461
30
7.8702913327079781e-16
10
-3199.7842328233901
20
-12.239164220487236
30
7.8702913327079781e-16
10
-3197.1066967211068
20
-12.762396066390288
30
-3.2319389135435873e-16
0
LINE
5
110
100
AcDbEntity
8
0
100
AcDbLine
10
-3197.1066967211063
20
-12.762396066390288
30
-3.2319389135435848e-16
11
-3195.5095781598361
21
-13.070838728904528
31
-3.2319389135435873e-16
0
LINE
5
111
100
AcDbEntity
8
0
100
AcDbLine
10
-3195.5095781598361
20
-13.070838728904528
30
-3.2319389135435873e-16
11
-3193.8657226134133
21
-13.39778042144879
31
-3.2319389135435873e-16
0
SPLINE
5
112
100
AcDbEntity
8
0
100
AcDbSpline
70
0
71
3
72
10
73
6
74
0
42
0.000000001
43
0.0000000001
44
0.0000000001
40
-0.83444284366454902
40
-0.83444284366454902
40
-0.83444284366454902
40
-0.83444284366454902
40
-0.42210430278163191
40
-0.42210430278163191
40
0
40
0
40
0
40
0
10
-3193.8657226134173
20
-13.397780421453012
30
-3.2319389135435873e-16
10
-3192.5171950784343
20
-13.66374858776765
30
-3.2319389135435873e-16
10
-3191.1683939660898
20
-13.925046283655401
30
-1.4334169159795153e-15
10
-3188.4358928449205
20
-14.444936238161127
30
-1.4334169159795153e-15
10
-3187.0532974809094
20
-14.703094269850158
30
-3.2319389135435873e-16
10
-3185.6693266118396
20
-14.956696308214603
30
7.8702913327079781e-16
0
LINE
5
113
100
AcDbEntity
8
0
100
AcDbLine
10
-3185.6693266118396
20
-14.956696308214603
30
7.8702913327079801e-16
11
-3183.7830875069362
21
-15.298507872581242
31
-1.4334169159795153e-15
0
LINE
5
114
100
AcDbEntity
8
0
100
AcDbLine
10
-3183.7830875069362
20
-15.298507872581242
30
-1.4334169159795153e-15
11
-3181.8510200400074
21
-15.662803358775205
31
-3.2319389135435873e-16
0
SPLINE
5
115
100
AcDbEntity
8
0
100
AcDbSpline
70
0
71
3
72
14
73
10
74
0
42
0.000000001
43
0.0000000001
44
0.0000000001
40
-17.639975287852167
40
-17.639975287852167
40
-17.639975287852167
40
-17.639975287852167
40
-14.791470883726035
40
-14.791470883726035
40
-10.850152438810696
40
-10.850152438810696
40
-2.7746815456055178
40
-2.7746815456055178
40
0
40
0
40
0
40
0
10
-3181.8510200399996
20
-15.662803358774934
30
-3.2319389135435873e-16
10
-3171.2125797216604
20
-17.649229037058426
30
-3.2319389135435873e-16
10
-3140.8492739930543
20
-23.029235119643985
30
1.8972521578959544e-15
10
-3027.8535521718827
20
-38.983325200344126
30
1.8972521578959544e-15
10
-2955.8517258029065
20
-47.240070923814834
30
-3.2319389135435873e-16
10
-2748.9080501466242
20
-68.091232114749005
30
-3.2319389135435873e-16
10
-2590.2858538235728
20
-79.775944793242203
30
8.5585903056468936e-15
10
-2413.0133464585278
20
-86.573952902821048
30
1.299948240414752e-14
10
-2384.248706041958
20
-86.93561322434519
30
4.1176982071462674e-15
10
-2374.9999918038161
20
-87.000018558093927
30
4.1176982071462674e-15
0
LINE
5
116
100
AcDbEntity
8
0
100
AcDbLine
10
-2374.9999918038161
20
-87.000018558093927
30
4.1176982071462651e-15
11
-48.999991803817124
21
-87.000018558096372
31
4.1176982071462674e-15
0
LINE
5
117
100
AcDbEntity
8
0
100
AcDbLine
10
-48.999991803817124
20
-87.000018558096372
30
4.1176982071462674e-15
11
-48.999991803817196
21
-49.000018558096187
31
-3.2319389135435873e-16
0
LINE
5
118
100
AcDbEntity
8
0
100
AcDbLine
10
-48.999991803817196
20
-49.000018558096187
30
-3.2319389135435873e-16
11
8.1961807296693223e-06
21
-49.000018558096158
31
-3.2319389135436267e-16
0
LINE
5
119
100
AcDbEntity
8
0
100
AcDbLine
10
8.1961807296693223e-06
20
-49.000018558096158
30
-3.2319389135436267e-16
11
8.1961807296693223e-06
21
48.999981441903799
31
-3.2319389135435873e-16
0
LINE
5
120
100
AcDbEntity
8
0
100
AcDbLine
10
8.1961807296693223e-06
20
48.999981441903799
30
-3.2319389135435873e-16
11
-48.999991803817196
21
48.999981441903763
31
-3.2319389135435478e-16
0
LINE
5
121
100
AcDbEntity
8
0
100
AcDbLine
10
-48.999991803817196
20
48.999981441903763
30
-3.2319389135435478e-16
11
-48.999991803817196
21
86.9999814419036
31
4.1176982071462674e-15
0
LINE
5
122
100
AcDbEntity
8
0
100
AcDbLine
10
-48.999991803817196
20
86.9999814419036
30
4.1176982071462674e-15
11
-2374.9999918038161
21
86.999981441903614
31
4.1176982071462674e-15
0
SPLINE
5
123
100
AcDbEntity
8
0
100
AcDbSpline
70
0
71
3
72
14
73
10
74
0
42
0.000000001
43
0.0000000001
44
0.0000000001
40
-56.231481428850344
40
-56.231481428850344
40
-56.231481428850344
40
-56.231481428850344
40
-30.459909147755901
40
-30.459909147755901
40
-17.055888962468806
40
-17.055888962468806
40
-3.8672815943396608
40
-3.8672815943396608
40
0
40
0
40
0
40
0
10
-2374.9999918038161
20
86.99998144190603
30
1.299948240414752e-14
10
-2396.4727922396773
20
86.850451156613445
30
-4.7640859898549849e-15
10
-2484.5014040519554
20
85.491167311517046
30
4.1176982071462674e-15
10
-2718.4394367814402
20
69.632182239162219
30
-4.7640859898549849e-15
10
-2801.5043025105888
20
62.711368451477007
30
-4.7640859898549849e-15
10
-2959.7661621568141
20
46.918247546578264
30
4.1176982071462674e-15
10
-3049.7882473800291
20
36.546912297183667
30
-2.5436399406046718e-15
10
-3147.2906453344108
20
21.709484449760701
30
1.8972521578959544e-15
10
-3169.1790917093713
20
18.028887880359168
30
7.8702913327079781e-16
10
-3181.8510200399996
20
15.662766242588342
30
-1.4334169159795153e-15
0
LINE
5
124
100
AcDbEntity
8
0
100
AcDbLine
10
-3181.8510200399996
20
15.662766242588342
30
-1.4334169159795153e-15
11
-3183.7830875069362
21
15.298470756394204
31
-3.2319389135435873e-16
0
LINE
5
125
100
AcDbEntity
8
0
100
AcDbLine
10
-3183.7830875069362
20
15.298470756394204
30
-3.2319389135435873e-16
11
-3185.6693266118491
21
14.956659192042085
31
-3.2319389135435873e-16
0
SPLINE
5
126
100
AcDbEntity
8
0
100
AcDbSpline
70
0
71
3
72
10
73
6
74
0
42
0.000000001
43
0.0000000001
44
0.0000000001
40
-0.83446941846445188
40
-0.83446941846445188
40
-0.83446941846445188
40
-0.83446941846445188
40
-0.41235167276862089
40
-0.41235167276862089
40
0
40
0
40
0
40
0
10
-3185.6693266118382
20
14.956659192027534
30
-3.2319389135435873e-16
10
-3187.0532974808993
20
14.703057153667709
30
-3.2319389135435873e-16
10
-3188.4358928449051
20
14.444899121977022
30
7.8702913327079781e-16
10
-3191.1683939660566
20
13.925009167473764
30
7.8702913327079781e-16
10
-3192.5171950784083
20
13.663711471586746
30
-3.2319389135435873e-16
10
-3193.8657226134178
20
13.397743305279516
30
-3.2319389135435873e-16
0
LINE
5
127
100
AcDbEntity
8
0
100
AcDbLine
10
-3193.8657226134178
20
13.397743305279516
30
-3.2319389135435868e-16
11
-3195.5095781598361
21
13.07080161271749
31
7.8702913327079781e-16
0
LINE
5
128
100
AcDbEntity
8
0
100
AcDbLine
10
-3195.5095781598361
20
13.07080161271749
30
7.8702913327079781e-16
11
-3197.10669672111
21
12.762358950221063
31
-3.2319389135435873e-16
0
SPLINE
5
129
100
AcDbEntity
8
0
100
AcDbSpline
70
0
71
3
72
10
73
6
74
0
42
0.000000001
43
0.0000000001
44
0.0000000001
40
-1.6045867631629798
40
-1.6045867631629798
40
-1.6045867631629798
40
-1.6045867631629798
40
-0.78595828453099525
40
-0.78595828453099525
40
0
40
0
40
0
40
0
10
-3197.1066967211073
20
12.762358950203796
30
-3.2319389135435873e-16
10
-3199.7842328233878
20
12.239127104300882
30
-3.2319389135435873e-16
10
-3202.460832087002
20
11.700620437609711
30
-3.2319389135435873e-16
10
-3207.6969585257934
20
10.611986167846524
30
-3.2319389135435873e-16
10
-3210.2589415067955
20
10.062757002784144
30
-3.2319389135435873e-16
10
-3212.8166658320674
20
9.4955553939565362
30
2.3191762095821954e-16
0
LINE
5
130
100
AcDbEntity
8
0
100
AcDbLine
10
-3212.8166658320674
20
9.4955553939565362
30
2.319176209582194e-16
11
-3213.4494442312662
21
9.3551800895417028
31
2.3191762095821954e-16
0
LINE
5
131
100
AcDbEntity
8
0
100
AcDbLine
10
-3213.4494442312662
20
9.3551800895417028
30
2.3191762095821954e-16
11
-3214.0179000781268
21
9.2298925822894358
31
2.3191762095821954e-16
0
LINE
5
132
100
AcDbEntity
8
0
100
AcDbLine
10
-3181.8510200399996
20
15.662766242588404
30
6.7966728764741725e-14
11
-3183.7830875069362
21
15.298470756394204
31
-3.2319389135435873e-16
0
LINE
5
133
100
AcDbEntity
8
0
100
AcDbLine
10
-3183.7830875069362
20
15.298470756394204
30
-3.2319389135435873e-16
11
-3185.6693266118491
21
14.956659192042085
31
-3.2319389135435873e-16
0
SPLINE
5
134
100
AcDbEntity
8
0
100
AcDbSpline
70
0
71
3
72
10
73
6
74
0
42
0.000000001
43
0.0000000001
44
0.0000000001
40
-0.83446941846445188
40
-0.83446941846445188
40
-0.83446941846445188
40
-0.83446941846445188
40
-0.41235167276862089
40
-0.41235167276862089
40
-0
40
-0
40
-0
40
-0
10
-3185.6693266118382
20
14.956659192027537
30
-2.1417431359232331e-14
10
-3187.0532974808993
20
14.703057153667711
30
-1.1425424137605924e-14
10
-3188.4358928449051
20
14.444899121977024
30
-5.1339944597580782e-12
10
-3191.1683939660566
20
13.925009167473764
30
-5.1706318195707084e-12
10
-3192.5171950784083
20
13.663711471586748
30
-4.4732114876360619e-14
10
-3193.8657226134178
20
13.397743305279516
30
-3.0299215556233584e-14
0
LINE
5
135
100
AcDbEntity
8
0
100
AcDbLine
10
-3193.8657226134178
20
13.397743305279516
30
-3.0299215556234177e-14
11
-3195.5095781598361
21
13.07080161271749
31
7.8702913327079781e-16
0
LINE
5
136
100
AcDbEntity
8
0
100
AcDbLine
10
-3195.5095781598361
20
13.07080161271749
30
7.8702913327079781e-16
11
-3197.10669672111
21
12.762358950221063
31
-3.2319389135435873e-16
0
SPLINE
5
137
100
AcDbEntity
8
0
100
AcDbSpline
70
0
71
3
72
10
73
6
74
0
42
0.000000001
43
0.0000000001
44
0.0000000001
40
-1.6045867631629798
40
-1.6045867631629798
40
-1.6045867631629798
40
-1.6045867631629798
40
-0.78595828453099525
40
-0.78595828453099525
40
-0
40
-0
40
-0
40
-0
10
-3197.1066967211073
20
12.762358950203797
30
2.4101712650399087e-14
10
-3199.7842328233878
20
12.239127104300884
30
4.7416396167527374e-14
10
-3202.460832087002
20
11.700620437609713
30
2.7501211621568447e-13
10
-3207.6969585257934
20
10.611986167846524
30
2.6502010899405806e-13
10
-3210.2589415067955
20
10.062757002784146
30
6.4069741536904716e-14
10
-3212.8166658320674
20
9.495555393956538
30
9.904176681259716e-14
0
LINE
5
138
100
AcDbEntity
8
0
100
AcDbLine
10
-3212.8166658320674
20
9.495555393956538
30
9.9041766812597185e-14
11
-3213.4494442312662
21
9.3551800895417028
31
2.3191762095821954e-16
0
LINE
5
139
100
AcDbEntity
8
0
100
AcDbLine
10
-3213.4494442312662
20
9.3551800895417028
30
2.3191762095821954e-16
11
-3214.0179000781268
21
9.2298925822894358
31
2.3191762095821954e-16
0
SPLINE
5
140
100
AcDbEntity
8
0
100
AcDbSpline
70
0
71
3
72
10
73
6
74
0
42
0.000000001
43
0.0000000001
44
0.0000000001
40
-1.150802160388589
40
-1.150802160388589
40
-1.150802160388589
40
-1.150802160388589
40
-0.56810994746402166
40
-0.56810994746402166
40
-0
40
-0
40
-0
40
-0
10
-3214.0179000781268
20
9.2298925822894375
30
-6.3605906294988286e-14
10
-3215.9144437232235
20
8.8123636765729092
30
-9.7467708546055548e-14
10
-3217.8103791117296
20
8.3829289777419866
30
4.8685598806022697e-12
10
-3221.5451258125518
20
7.5086672975238713
30
4.8890990065578351e-12
10
-3223.3870018342732
20
7.0638355632850125
30
-3.7515665216297101e-14
10
-3225.2240696746862
20
6.6041826763461859
30
-6.4161017807300865e-14
0
LINE
5
141
100
AcDbEntity
8
0
100
AcDbLine
10
-3225.2240696746862
20
6.6041826763461859
30
-6.4161017807301332e-14
11
-3237.0818820136365
21
3.6168429888321336
31
7.8702913327079781e-16
0
ARC
5
142
100
AcDbEntity
8
0
100
AcDbCircle
10
-3236.3489918038149
20
0.70774141955821124
30
-4.5638135198069591e-17
40
3.000000000000826
210
6.7805965455526446e-17
220
-2.6914596193160874e-16
230
1
100
AcDbArc
50
104.14027686787415
51
180
0
LINE
5
143
100
AcDbEntity
8
0
100
AcDbLine
10
-3239.3489918038154
20
0.70774141955781045
30
1.5777976116845798e-16
11
-3239.3489918038167
21
-0.70777853574480942
31
9.3139742880074977e-17
0
ARC
5
144
100
AcDbEntity
8
0
100
AcDbCircle
10
-3236.3489918038135
20
-0.70777853574638816
30
2.3750803841002693e-17
40
3.0000000000029559
210
2.3129646346334638e-17
220
-1.2171877248503345e-29
230
1
100
AcDbArc
50
180
51
255.85972313208291
0
LINE
5
145
100
AcDbEntity
8
0
100
AcDbLine
10
-3237.0818820136378
20
-3.6168801050219339
30
4.0702295204894104e-17
11
-3225.2240696746999
21
-6.6042197925858463
31
-4.5638135198069585e-17
0
SPLINE
5
146
100
AcDbEntity
8
0
100
AcDbSpline
70
0
71
3
72
10
73
6
74
0
42
0.000000001
43
0.0000000001
44
0.0000000001
40
-1.1505962728713759
40
-1.1505962728713759
40
-1.1505962728713759
40
-1.1505962728713759
40
-0.58258796472423724
40
-0.58258796472423724
40
-0
40
-0
40
-0
40
-0
10
-3225.2240696746862
20
-6.6042197925417252
30
1.0126221286184747e-13
10
-3223.3870018342691
20
-7.0638726794725404
30
1.0181732437416005e-13
10
-3221.5451258125531
20
-7.5087044137089176
30
-1.678980407124591e-12
10
-3217.8103791117269
20
-8.3829660939286939
30
-1.6034852414500804e-12
10
-3215.9144437232335
20
-8.8124007927591368
30
6.4624853049217294e-14
10
-3214.0179000781263
20
-9.2299296984762567
30
2.1881266601148774e-14
0
LINE
5
147
100
AcDbEntity
8
0
100
AcDbLine
10
-3214.0179000781263
20
-9.2299296984762584
30
2.1881266601148512e-14
11
-3213.4494442312662
21
-9.3552172057287404
31
-3.2319389135435873e-16
0
LINE
5
148
100
AcDbEntity
8
0
100
AcDbLine
10
-3213.4494442312662
20
-9.3552172057287404
30
-3.2319389135435873e-16
11
-3212.8166658320824
21
-9.4955925102157241
31
2.3191762095821954e-16
0
SPLINE
5
149
100
AcDbEntity
8
0
100
AcDbSpline
70
0
71
3
72
10
73
6
74
0
42
0.000000001
43
0.0000000001
44
0.0000000001
40
-1.6042453112812332
40
-1.6042453112812332
40
-1.6042453112812332
40
-1.6042453112812332
40
-0.81845427662378878
40
-0.81845427662378878
40
-0
40
-0
40
-0
40
-0
10
-3212.816665832067
20
-9.4955925101434424
30
-5.6389456634924762e-14
10
-3210.2589415067987
20
-10.062794118970174
30
-9.0251258885992031e-14
10
-3207.6969585258007
20
-10.612023284031661
30
-1.7906910085600455e-13
10
-3202.4608320870029
20
-11.700657553796461
30
-1.8573043900375549e-13
10
-3199.7842328233901
20
-12.23916422048724
30
4.9636842216777687e-14
10
-3197.1066967211068
20
-12.762396066390288
30
5.227921231771424e-15
0
LINE
5
150
100
AcDbEntity
8
0
100
AcDbLine
10
-3197.1066967211063
20
-12.762396066390288
30
5.2279212317714019e-15
11
-3195.5095781598361
21
-13.070838728904528
31
-3.2319389135435873e-16
0
LINE
5
151
100
AcDbEntity
8
0
100
AcDbLine
10
-3195.5095781598361
20
-13.070838728904528
30
-3.2319389135435873e-16
11
-3193.8657226134133
21
-13.39778042144879
31
-3.2319389135435873e-16
0
SPLINE
5
152
100
AcDbEntity
8
0
100
AcDbSpline
70
0
71
3
72
10
73
6
74
0
42
0.000000001
43
0.0000000001
44
0.0000000001
40
-0.83444284366454902
40
-0.83444284366454902
40
-0.83444284366454902
40
-0.83444284366454902
40
-0.42210430278163191
40
-0.42210430278163191
40
-0
40
-0
40
-0
40
-0
10
-3193.8657226134173
20
-13.397780421453014
30
-6.9157021418114069e-14
10
-3192.5171950784343
20
-13.663748587767653
30
-8.3589920738241091e-14
10
-3191.1683939660898
20
-13.925046283655407
30
3.5690438302785239e-12
10
-3188.4358928449205
20
-14.44493623816113
30
3.5845869526232761e-12
10
-3187.0532974809094
20
-14.703094269850162
30
2.1881266601148774e-14
10
-3185.6693266118396
20
-14.956696308214607
30
3.1873273822775183e-14
0
LINE
5
153
100
AcDbEntity
8
0
100
AcDbLine
10
-3185.6693266118396
20
-14.956696308214607
30
3.1873273822776331e-14
11
-3183.7830875069362
21
-15.298507872581242
31
-1.4334169159795153e-15
0
LINE
5
154
100
AcDbEntity
8
0
100
AcDbLine
10
-3183.7830875069362
20
-15.298507872581242
30
-1.4334169159795153e-15
11
-3181.8510200400074
21
-15.662803358775205
31
-3.2319389135435873e-16
0
SPLINE
5
155
100
AcDbEntity
8
0
100
AcDbSpline
70
0
71
3
72
14
73
10
74
0
42
0.000000001
43
0.0000000001
44
0.0000000001
40
-17.639975287852167
40
-17.639975287852167
40
-17.639975287852167
40
-17.639975287852167
40
-14.791470883726035
40
-14.791470883726035
40
-10.850152438810696
40
-10.850152438810696
40
-2.7746815456055178
40
-2.7746815456055178
40
-0
40
-0
40
-0
40
-0
10
-3181.8510200399996
20
-15.662803358774937
30
1.6330151478022991e-14
10
-3171.2125797216604
20
-17.649229037058429
30
3.2983496847400339e-14
10
-3140.8492739930543
20
-23.029235119643996
30
-1.6327342712365331e-09
10
-3027.8535521718827
20
-38.98332520034414
30
-1.6327364916825823e-09
10
-2955.8517258029065
20
-47.240070923814834
30
-1.8325699747769627e-09
10
-2748.9080501466242
20
-68.091232114749019
30
-1.8325477703164702e-09
10
-2590.2858538235728
20
-79.775944793242218
30
-1.8618310128139834e-09
10
-2413.0133464585278
20
-86.573952902821091
30
-1.8618931853033624e-09
10
-2384.248706041958
20
-86.935613224345204
30
-1.3645870186856237e-14
10
-2374.9999918038161
20
-87.000018558093956
30
3.9644834995151278e-14
0
LINE
5
156
100
AcDbEntity
8
0
100
AcDbLine
10
-2374.9999918038161
20
-87.000018558093956
30
3.9644834995456037e-14
11
-48.999991803817124
21
-87.000018558096372
31
4.1176982071462674e-15
0
LINE
5
157
100
AcDbEntity
8
0
100
AcDbLine
10
-48.999991803817124
20
-87.000018558096372
30
4.1176982071462674e-15
11
-48.999991803817196
21
-49.000018558096187
31
-3.2319389135435873e-16
0
LINE
5
158
100
AcDbEntity
8
0
100
AcDbLine
10
-48.999991803817196
20
-49.000018558096187
30
-3.2319389135435873e-16
11
8.1961807296693223e-06
21
-49.000018558096158
31
-3.2319389135436267e-16
0
LINE
5
159
100
AcDbEntity
8
0
100
AcDbLine
10
8.1961807296693223e-06
20
-49.000018558096158
30
-3.2319389135436267e-16
11
8.1961807296693223e-06
21
48.999981441903799
31
-3.2319389135435873e-16
0
LINE
5
160
100
AcDbEntity
8
0
100
AcDbLine
10
8.1961807296693223e-06
20
48.999981441903799
30
-3.2319389135435873e-16
11
-48.999991803817196
21
48.999981441903763
31
-3.2319389135435478e-16
0
LINE
5
161
100
AcDbEntity
8
0
100
AcDbLine
10
-48.999991803817196
20
48.999981441903763
30
-3.2319389135435478e-16
11
-48.999991803817196
21
86.9999814419036
31
4.1176982071462674e-15
0
LINE
5
162
100
AcDbEntity
8
0
100
AcDbLine
10
-48.999991803817196
20
86.9999814419036
30
4.1176982071462674e-15
11
-2374.9999918038161
21
86.999981441903614
31
4.1176982071462674e-15
0
SPLINE
5
163
100
AcDbEntity
8
0
100
AcDbSpline
70
0
71
3
72
14
73
10
74
0
42
0.000000001
43
0.0000000001
44
0.0000000001
40
-56.231481428850344
40
-56.231481428850344
40
-56.231481428850344
40
-56.231481428850344
40
-30.459909147755901
40
-30.459909147755901
40
-17.055888962468806
40
-17.055888962468806
40
-3.8672815943396608
40
-3.8672815943396608
40
-0
40
-0
40
-0
40
-0
10
-2374.9999918038161
20
86.99998144190603
30
2.1881266601148774e-14
10
-2396.4727922396773
20
86.850451156613445
30
4.8526619192152531e-14
10
-2484.5014040519554
20
85.491167311517046
30
8.4151673327673322e-12
10
-2718.4394367814402
20
69.632182239162233
30
8.3885219801763285e-12
10
-2801.5043025105888
20
62.711368451477014
30
1.6009092821203403e-11
10
-2959.7661621568141
20
46.918247546578272
30
1.59913292528094e-11
10
-3049.7882473800291
20
36.546912297183674
30
2.1328684251289672e-10
10
-3147.2906453344108
20
21.709484449760712
30
2.1329794474314297e-10
10
-3169.1790917093713
20
18.028887880359171
30
8.8494648078658172e-14
10
-3181.8510200399996
20
15.662766242588347
30
1.1514000066966193e-13
0
ENDSEC
0
SECTION
2
OBJECTS
0
DICTIONARY
5
C
100
AcDbDictionary
3
ACAD_GROUP
350
D
3
ACAD_MLINESTYLE
350
17
0
DICTIONARY
5
D
100
AcDbDictionary
0
DICTIONARY
5
1A
330
C
100
AcDbDictionary
0
DICTIONARY
5
17
100
AcDbDictionary
0
ENDSEC
0
EOF
